<svg width="1067" height="400" viewBox="0 0 1067 400" fill="none" xmlns="http://www.w3.org/2000/svg">
<g clip-path="url(#clip0_50_348)">
<rect x="0.286865" width="1066.67" height="400" fill="#0E1027"/>
<g clip-path="url(#clip1_50_348)">
<mask id="mask0_50_348" style="mask-type:alpha" maskUnits="userSpaceOnUse" x="0" y="0" width="1069" height="478">
<path d="M1069 0H0V477.919H1069V0Z" fill="url(#paint0_radial_50_348)" fill-opacity="0.7"/>
</mask>
<g mask="url(#mask0_50_348)">
<g opacity="0.14">
<path d="M5.86866 0.6763H-23.4747V29.9827H5.86866V0.6763Z" stroke="#E2E7F0" stroke-width="1.5"/>
<path d="M35.212 0.6763H5.86866V29.9827H35.212V0.6763Z" stroke="#E2E7F0" stroke-width="1.5"/>
<path d="M64.5553 0.6763H35.212V29.9827H64.5553V0.6763Z" fill="#E2E7F0" fill-opacity="0.3" stroke="#E2E7F0" stroke-width="1.5"/>
<path d="M93.8986 0.6763H64.5553V29.9827H93.8986V0.6763Z" stroke="#E2E7F0" stroke-width="1.5"/>
<path d="M123.242 0.6763H93.8986V29.9827H123.242V0.6763Z" stroke="#E2E7F0" stroke-width="1.5"/>
<path d="M152.585 0.6763H123.242V29.9827H152.585V0.6763Z" stroke="#E2E7F0" stroke-width="1.5"/>
<path d="M181.929 0.6763H152.585V29.9827H181.929V0.6763Z" stroke="#E2E7F0" stroke-width="1.5"/>
<path d="M211.272 0.6763H181.929V29.9827H211.272V0.6763Z" stroke="#E2E7F0" stroke-width="1.5"/>
<path d="M240.615 0.6763H211.272V29.9827H240.615V0.6763Z" fill="#E2E7F0" fill-opacity="0.3" stroke="#E2E7F0" stroke-width="1.5"/>
<path d="M269.959 0.6763H240.615V29.9827H269.959V0.6763Z" stroke="#E2E7F0" stroke-width="1.5"/>
<path d="M299.302 0.6763H269.959V29.9827H299.302V0.6763Z" stroke="#E2E7F0" stroke-width="1.5"/>
<path d="M328.645 0.6763H299.302V29.9827H328.645V0.6763Z" stroke="#E2E7F0" stroke-width="1.5"/>
<path d="M357.989 0.6763H328.645V29.9827H357.989V0.6763Z" stroke="#E2E7F0" stroke-width="1.5"/>
<path d="M387.332 0.6763H357.989V29.9827H387.332V0.6763Z" stroke="#E2E7F0" stroke-width="1.5"/>
<path d="M416.675 0.6763H387.332V29.9827H416.675V0.6763Z" stroke="#E2E7F0" stroke-width="1.5"/>
<path d="M446.019 0.6763H416.675V29.9827H446.019V0.6763Z" stroke="#E2E7F0" stroke-width="1.5"/>
<path d="M475.362 0.6763H446.019V29.9827H475.362V0.6763Z" stroke="#E2E7F0" stroke-width="1.5"/>
<path d="M504.705 0.6763H475.362V29.9827H504.705V0.6763Z" stroke="#E2E7F0" stroke-width="1.5"/>
<path d="M534.049 0.6763H504.705V29.9827H534.049V0.6763Z" stroke="#E2E7F0" stroke-width="1.5"/>
<path d="M563.392 0.6763H534.049V29.9827H563.392V0.6763Z" stroke="#E2E7F0" stroke-width="1.5"/>
<path d="M592.735 0.6763H563.392V29.9827H592.735V0.6763Z" stroke="#E2E7F0" stroke-width="1.5"/>
<path d="M622.078 0.6763H592.735V29.9827H622.078V0.6763Z" stroke="#E2E7F0" stroke-width="1.5"/>
<path d="M651.422 0.6763H622.079V29.9827H651.422V0.6763Z" stroke="#E2E7F0" stroke-width="1.5"/>
<path d="M680.765 0.6763H651.422V29.9827H680.765V0.6763Z" stroke="#E2E7F0" stroke-width="1.5"/>
<path d="M710.109 0.6763H680.765V29.9827H710.109V0.6763Z" stroke="#E2E7F0" stroke-width="1.5"/>
<path d="M739.452 0.6763H710.109V29.9827H739.452V0.6763Z" fill="#E2E7F0" fill-opacity="0.3" stroke="#E2E7F0" stroke-width="1.5"/>
<path d="M768.795 0.6763H739.452V29.9827H768.795V0.6763Z" stroke="#E2E7F0" stroke-width="1.5"/>
<path d="M798.138 0.6763H768.795V29.9827H798.138V0.6763Z" stroke="#E2E7F0" stroke-width="1.5"/>
<path d="M827.482 0.6763H798.139V29.9827H827.482V0.6763Z" fill="#E2E7F0" fill-opacity="0.3" stroke="#E2E7F0" stroke-width="1.5"/>
<path d="M856.825 0.6763H827.482V29.9827H856.825V0.6763Z" stroke="#E2E7F0" stroke-width="1.5"/>
<path d="M886.168 0.6763H856.825V29.9827H886.168V0.6763Z" stroke="#E2E7F0" stroke-width="1.5"/>
<path d="M915.512 0.6763H886.168V29.9827H915.512V0.6763Z" stroke="#E2E7F0" stroke-width="1.5"/>
<path d="M944.855 0.6763H915.512V29.9827H944.855V0.6763Z" stroke="#E2E7F0" stroke-width="1.5"/>
<path d="M974.199 0.6763H944.855V29.9827H974.199V0.6763Z" stroke="#E2E7F0" stroke-width="1.5"/>
<path d="M1003.54 0.6763H974.198V29.9827H1003.54V0.6763Z" stroke="#E2E7F0" stroke-width="1.5"/>
<path d="M1032.89 0.6763H1003.54V29.9827H1032.89V0.6763Z" stroke="#E2E7F0" stroke-width="1.5"/>
<path d="M1062.23 0.6763H1032.89V29.9827H1062.23V0.6763Z" stroke="#E2E7F0" stroke-width="1.5"/>
<path d="M1091.57 0.6763H1062.23V29.9827H1091.57V0.6763Z" fill="#E2E7F0" fill-opacity="0.3" stroke="#E2E7F0" stroke-width="1.5"/>
<path d="M5.86866 29.9827H-23.4747V59.289H5.86866V29.9827Z" stroke="#E2E7F0" stroke-width="1.5"/>
<path d="M35.212 29.9827H5.86866V59.289H35.212V29.9827Z" stroke="#E2E7F0" stroke-width="1.5"/>
<path d="M64.5553 29.9827H35.212V59.289H64.5553V29.9827Z" stroke="#E2E7F0" stroke-width="1.5"/>
<path d="M93.8986 29.9827H64.5553V59.289H93.8986V29.9827Z" stroke="#E2E7F0" stroke-width="1.5"/>
<path d="M123.242 29.9827H93.8986V59.289H123.242V29.9827Z" stroke="#E2E7F0" stroke-width="1.5"/>
<path d="M152.585 29.9827H123.242V59.289H152.585V29.9827Z" stroke="#E2E7F0" stroke-width="1.5"/>
<path d="M181.929 29.9827H152.585V59.289H181.929V29.9827Z" fill="#E2E7F0" fill-opacity="0.3" stroke="#E2E7F0" stroke-width="1.5"/>
<path d="M211.272 29.9827H181.929V59.289H211.272V29.9827Z" stroke="#E2E7F0" stroke-width="1.5"/>
<path d="M240.615 29.9827H211.272V59.289H240.615V29.9827Z" stroke="#E2E7F0" stroke-width="1.5"/>
<path d="M269.959 29.9827H240.615V59.289H269.959V29.9827Z" stroke="#E2E7F0" stroke-width="1.5"/>
<path d="M299.302 29.9827H269.959V59.289H299.302V29.9827Z" stroke="#E2E7F0" stroke-width="1.5"/>
<path d="M328.645 29.9827H299.302V59.289H328.645V29.9827Z" stroke="#E2E7F0" stroke-width="1.5"/>
<path d="M357.989 29.9827H328.645V59.289H357.989V29.9827Z" stroke="#E2E7F0" stroke-width="1.5"/>
<path d="M387.332 29.9827H357.989V59.289H387.332V29.9827Z" stroke="#E2E7F0" stroke-width="1.5"/>
<path d="M416.675 29.9827H387.332V59.289H416.675V29.9827Z" stroke="#E2E7F0" stroke-width="1.5"/>
<path d="M446.019 29.9827H416.675V59.289H446.019V29.9827Z" stroke="#E2E7F0" stroke-width="1.5"/>
<path d="M475.362 29.9827H446.019V59.289H475.362V29.9827Z" stroke="#E2E7F0" stroke-width="1.5"/>
<path d="M504.705 29.9827H475.362V59.289H504.705V29.9827Z" stroke="#E2E7F0" stroke-width="1.5"/>
<path d="M534.049 29.9827H504.705V59.289H534.049V29.9827Z" stroke="#E2E7F0" stroke-width="1.5"/>
<path d="M563.392 29.9827H534.049V59.289H563.392V29.9827Z" stroke="#E2E7F0" stroke-width="1.5"/>
<path d="M592.735 29.9827H563.392V59.289H592.735V29.9827Z" stroke="#E2E7F0" stroke-width="1.5"/>
<path d="M622.078 29.9827H592.735V59.289H622.078V29.9827Z" stroke="#E2E7F0" stroke-width="1.5"/>
<path d="M651.422 29.9827H622.079V59.289H651.422V29.9827Z" stroke="#E2E7F0" stroke-width="1.5"/>
<path d="M680.765 29.9827H651.422V59.289H680.765V29.9827Z" stroke="#E2E7F0" stroke-width="1.5"/>
<path d="M710.109 29.9827H680.765V59.289H710.109V29.9827Z" stroke="#E2E7F0" stroke-width="1.5"/>
<path d="M739.452 29.9827H710.109V59.289H739.452V29.9827Z" stroke="#E2E7F0" stroke-width="1.5"/>
<path d="M768.795 29.9827H739.452V59.289H768.795V29.9827Z" stroke="#E2E7F0" stroke-width="1.5"/>
<path d="M798.138 29.9827H768.795V59.289H798.138V29.9827Z" stroke="#E2E7F0" stroke-width="1.5"/>
<path d="M827.482 29.9827H798.139V59.289H827.482V29.9827Z" stroke="#E2E7F0" stroke-width="1.5"/>
<path d="M856.825 29.9827H827.482V59.289H856.825V29.9827Z" stroke="#E2E7F0" stroke-width="1.5"/>
<path d="M886.168 29.9827H856.825V59.289H886.168V29.9827Z" stroke="#E2E7F0" stroke-width="1.5"/>
<path d="M915.512 29.9827H886.168V59.289H915.512V29.9827Z" stroke="#E2E7F0" stroke-width="1.5"/>
<path d="M944.855 29.9827H915.512V59.289H944.855V29.9827Z" fill="#E2E7F0" fill-opacity="0.3" stroke="#E2E7F0" stroke-width="1.5"/>
<path d="M974.199 29.9827H944.855V59.289H974.199V29.9827Z" stroke="#E2E7F0" stroke-width="1.5"/>
<path d="M1003.54 29.9827H974.198V59.289H1003.54V29.9827Z" stroke="#E2E7F0" stroke-width="1.5"/>
<path d="M1032.89 29.9827H1003.54V59.289H1032.89V29.9827Z" stroke="#E2E7F0" stroke-width="1.5"/>
<path d="M1062.23 29.9827H1032.89V59.289H1062.23V29.9827Z" stroke="#E2E7F0" stroke-width="1.5"/>
<path d="M1091.57 29.9827H1062.23V59.289H1091.57V29.9827Z" stroke="#E2E7F0" stroke-width="1.5"/>
<path d="M5.86866 59.289H-23.4747V88.5954H5.86866V59.289Z" stroke="#E2E7F0" stroke-width="1.5"/>
<path d="M35.212 59.289H5.86866V88.5954H35.212V59.289Z" stroke="#E2E7F0" stroke-width="1.5"/>
<path d="M64.5553 59.289H35.212V88.5954H64.5553V59.289Z" stroke="#E2E7F0" stroke-width="1.5"/>
<path d="M93.8986 59.289H64.5553V88.5954H93.8986V59.289Z" stroke="#E2E7F0" stroke-width="1.5"/>
<path d="M123.242 59.289H93.8986V88.5954H123.242V59.289Z" stroke="#E2E7F0" stroke-width="1.5"/>
<path d="M152.585 59.289H123.242V88.5954H152.585V59.289Z" stroke="#E2E7F0" stroke-width="1.5"/>
<path d="M181.929 59.289H152.585V88.5954H181.929V59.289Z" stroke="#E2E7F0" stroke-width="1.5"/>
<path d="M211.272 59.289H181.929V88.5954H211.272V59.289Z" stroke="#E2E7F0" stroke-width="1.5"/>
<path d="M240.615 59.289H211.272V88.5954H240.615V59.289Z" stroke="#E2E7F0" stroke-width="1.5"/>
<path d="M269.959 59.289H240.615V88.5954H269.959V59.289Z" stroke="#E2E7F0" stroke-width="1.5"/>
<path d="M299.302 59.289H269.959V88.5954H299.302V59.289Z" stroke="#E2E7F0" stroke-width="1.5"/>
<path d="M328.645 59.289H299.302V88.5954H328.645V59.289Z" stroke="#E2E7F0" stroke-width="1.5"/>
<path d="M357.989 59.289H328.645V88.5954H357.989V59.289Z" stroke="#E2E7F0" stroke-width="1.5"/>
<path d="M387.332 59.289H357.989V88.5954H387.332V59.289Z" stroke="#E2E7F0" stroke-width="1.5"/>
<path d="M416.675 59.289H387.332V88.5954H416.675V59.289Z" stroke="#E2E7F0" stroke-width="1.5"/>
<path d="M446.019 59.289H416.675V88.5954H446.019V59.289Z" stroke="#E2E7F0" stroke-width="1.5"/>
<path d="M475.362 59.289H446.019V88.5954H475.362V59.289Z" stroke="#E2E7F0" stroke-width="1.5"/>
<path d="M504.705 59.289H475.362V88.5954H504.705V59.289Z" stroke="#E2E7F0" stroke-width="1.5"/>
<path d="M534.049 59.289H504.705V88.5954H534.049V59.289Z" stroke="#E2E7F0" stroke-width="1.5"/>
<path d="M563.392 59.289H534.049V88.5954H563.392V59.289Z" stroke="#E2E7F0" stroke-width="1.5"/>
<path d="M592.735 59.289H563.392V88.5954H592.735V59.289Z" stroke="#E2E7F0" stroke-width="1.5"/>
<path d="M622.078 59.289H592.735V88.5954H622.078V59.289Z" stroke="#E2E7F0" stroke-width="1.5"/>
<path d="M651.422 59.289H622.079V88.5954H651.422V59.289Z" stroke="#E2E7F0" stroke-width="1.5"/>
<path d="M680.765 59.289H651.422V88.5954H680.765V59.289Z" stroke="#E2E7F0" stroke-width="1.5"/>
<path d="M710.109 59.289H680.765V88.5954H710.109V59.289Z" stroke="#E2E7F0" stroke-width="1.5"/>
<path d="M739.452 59.289H710.109V88.5954H739.452V59.289Z" stroke="#E2E7F0" stroke-width="1.5"/>
<path d="M768.795 59.289H739.452V88.5954H768.795V59.289Z" stroke="#E2E7F0" stroke-width="1.5"/>
<path d="M798.138 59.289H768.795V88.5954H798.138V59.289Z" stroke="#E2E7F0" stroke-width="1.5"/>
<path d="M827.482 59.289H798.139V88.5954H827.482V59.289Z" stroke="#E2E7F0" stroke-width="1.5"/>
<path d="M856.825 59.289H827.482V88.5954H856.825V59.289Z" stroke="#E2E7F0" stroke-width="1.5"/>
<path d="M886.168 59.289H856.825V88.5954H886.168V59.289Z" stroke="#E2E7F0" stroke-width="1.5"/>
<path d="M915.512 59.289H886.168V88.5954H915.512V59.289Z" stroke="#E2E7F0" stroke-width="1.5"/>
<path d="M944.855 59.289H915.512V88.5954H944.855V59.289Z" stroke="#E2E7F0" stroke-width="1.5"/>
<path d="M974.199 59.289H944.855V88.5954H974.199V59.289Z" stroke="#E2E7F0" stroke-width="1.5"/>
<path d="M1003.54 59.289H974.198V88.5954H1003.54V59.289Z" stroke="#E2E7F0" stroke-width="1.5"/>
<path d="M1032.89 59.289H1003.54V88.5954H1032.89V59.289Z" stroke="#E2E7F0" stroke-width="1.5"/>
<path d="M1062.23 59.289H1032.89V88.5954H1062.23V59.289Z" stroke="#E2E7F0" stroke-width="1.5"/>
<path d="M1091.57 59.289H1062.23V88.5954H1091.57V59.289Z" stroke="#E2E7F0" stroke-width="1.5"/>
<path d="M5.86866 88.5954H-23.4747V117.902H5.86866V88.5954Z" stroke="#E2E7F0" stroke-width="1.5"/>
<path d="M35.212 88.5954H5.86866V117.902H35.212V88.5954Z" stroke="#E2E7F0" stroke-width="1.5"/>
<path d="M64.5553 88.5954H35.212V117.902H64.5553V88.5954Z" stroke="#E2E7F0" stroke-width="1.5"/>
<path d="M93.8986 88.5954H64.5553V117.902H93.8986V88.5954Z" stroke="#E2E7F0" stroke-width="1.5"/>
<path d="M123.242 88.5954H93.8986V117.902H123.242V88.5954Z" stroke="#E2E7F0" stroke-width="1.5"/>
<path d="M152.585 88.5954H123.242V117.902H152.585V88.5954Z" stroke="#E2E7F0" stroke-width="1.5"/>
<path d="M181.929 88.5954H152.585V117.902H181.929V88.5954Z" stroke="#E2E7F0" stroke-width="1.5"/>
<path d="M211.272 88.5954H181.929V117.902H211.272V88.5954Z" stroke="#E2E7F0" stroke-width="1.5"/>
<path d="M240.615 88.5954H211.272V117.902H240.615V88.5954Z" stroke="#E2E7F0" stroke-width="1.5"/>
<path d="M269.959 88.5954H240.615V117.902H269.959V88.5954Z" stroke="#E2E7F0" stroke-width="1.5"/>
<path d="M299.302 88.5954H269.959V117.902H299.302V88.5954Z" stroke="#E2E7F0" stroke-width="1.5"/>
<path d="M328.645 88.5954H299.302V117.902H328.645V88.5954Z" stroke="#E2E7F0" stroke-width="1.5"/>
<path d="M357.989 88.5954H328.645V117.902H357.989V88.5954Z" stroke="#E2E7F0" stroke-width="1.5"/>
<path d="M387.332 88.5954H357.989V117.902H387.332V88.5954Z" stroke="#E2E7F0" stroke-width="1.5"/>
<path d="M416.675 88.5954H387.332V117.902H416.675V88.5954Z" stroke="#E2E7F0" stroke-width="1.5"/>
<path d="M446.019 88.5954H416.675V117.902H446.019V88.5954Z" stroke="#E2E7F0" stroke-width="1.5"/>
<path d="M475.362 88.5954H446.019V117.902H475.362V88.5954Z" stroke="#E2E7F0" stroke-width="1.5"/>
<path d="M504.705 88.5954H475.362V117.902H504.705V88.5954Z" stroke="#E2E7F0" stroke-width="1.5"/>
<path d="M534.049 88.5954H504.705V117.902H534.049V88.5954Z" stroke="#E2E7F0" stroke-width="1.5"/>
<path d="M563.392 88.5954H534.049V117.902H563.392V88.5954Z" stroke="#E2E7F0" stroke-width="1.5"/>
<path d="M592.735 88.5954H563.392V117.902H592.735V88.5954Z" stroke="#E2E7F0" stroke-width="1.5"/>
<path d="M622.078 88.5954H592.735V117.902H622.078V88.5954Z" stroke="#E2E7F0" stroke-width="1.5"/>
<path d="M651.422 88.5954H622.079V117.902H651.422V88.5954Z" stroke="#E2E7F0" stroke-width="1.5"/>
<path d="M680.765 88.5954H651.422V117.902H680.765V88.5954Z" stroke="#E2E7F0" stroke-width="1.5"/>
<path d="M710.109 88.5954H680.765V117.902H710.109V88.5954Z" stroke="#E2E7F0" stroke-width="1.5"/>
<path d="M739.452 88.5954H710.109V117.902H739.452V88.5954Z" stroke="#E2E7F0" stroke-width="1.5"/>
<path d="M768.795 88.5954H739.452V117.902H768.795V88.5954Z" stroke="#E2E7F0" stroke-width="1.5"/>
<path d="M798.138 88.5954H768.795V117.902H798.138V88.5954Z" stroke="#E2E7F0" stroke-width="1.5"/>
<path d="M827.482 88.5954H798.139V117.902H827.482V88.5954Z" stroke="#E2E7F0" stroke-width="1.5"/>
<path d="M856.825 88.5954H827.482V117.902H856.825V88.5954Z" fill="#E2E7F0" fill-opacity="0.3" stroke="#E2E7F0" stroke-width="1.5"/>
<path d="M886.168 88.5954H856.825V117.902H886.168V88.5954Z" stroke="#E2E7F0" stroke-width="1.5"/>
<path d="M915.512 88.5954H886.168V117.902H915.512V88.5954Z" stroke="#E2E7F0" stroke-width="1.5"/>
<path d="M944.855 88.5954H915.512V117.902H944.855V88.5954Z" stroke="#E2E7F0" stroke-width="1.5"/>
<path d="M974.199 88.5954H944.855V117.902H974.199V88.5954Z" stroke="#E2E7F0" stroke-width="1.5"/>
<path d="M1003.54 88.5954H974.198V117.902H1003.54V88.5954Z" fill="#E2E7F0" fill-opacity="0.3" stroke="#E2E7F0" stroke-width="1.5"/>
<path d="M1032.89 88.5954H1003.54V117.902H1032.89V88.5954Z" stroke="#E2E7F0" stroke-width="1.5"/>
<path d="M1062.23 88.5954H1032.89V117.902H1062.23V88.5954Z" stroke="#E2E7F0" stroke-width="1.5"/>
<path d="M1091.57 88.5954H1062.23V117.902H1091.57V88.5954Z" fill="#E2E7F0" fill-opacity="0.3" stroke="#E2E7F0" stroke-width="1.5"/>
<path d="M5.86866 117.902H-23.4747V147.208H5.86866V117.902Z" stroke="#E2E7F0" stroke-width="1.5"/>
<path d="M35.212 117.902H5.86866V147.208H35.212V117.902Z" fill="#E2E7F0" fill-opacity="0.3" stroke="#E2E7F0" stroke-width="1.5"/>
<path d="M64.5553 117.902H35.212V147.208H64.5553V117.902Z" stroke="#E2E7F0" stroke-width="1.5"/>
<path d="M93.8986 117.902H64.5553V147.208H93.8986V117.902Z" stroke="#E2E7F0" stroke-width="1.5"/>
<path d="M123.242 117.902H93.8986V147.208H123.242V117.902Z" stroke="#E2E7F0" stroke-width="1.5"/>
<path d="M152.585 117.902H123.242V147.208H152.585V117.902Z" stroke="#E2E7F0" stroke-width="1.5"/>
<path d="M181.929 117.902H152.585V147.208H181.929V117.902Z" fill="#E2E7F0" fill-opacity="0.3" stroke="#E2E7F0" stroke-width="1.5"/>
<path d="M211.272 117.902H181.929V147.208H211.272V117.902Z" stroke="#E2E7F0" stroke-width="1.5"/>
<path d="M240.615 117.902H211.272V147.208H240.615V117.902Z" stroke="#E2E7F0" stroke-width="1.5"/>
<path d="M269.959 117.902H240.615V147.208H269.959V117.902Z" stroke="#E2E7F0" stroke-width="1.5"/>
<path d="M299.302 117.902H269.959V147.208H299.302V117.902Z" stroke="#E2E7F0" stroke-width="1.5"/>
<path d="M328.645 117.902H299.302V147.208H328.645V117.902Z" stroke="#E2E7F0" stroke-width="1.5"/>
<path d="M357.989 117.902H328.645V147.208H357.989V117.902Z" stroke="#E2E7F0" stroke-width="1.5"/>
<path d="M387.332 117.902H357.989V147.208H387.332V117.902Z" stroke="#E2E7F0" stroke-width="1.5"/>
<path d="M416.675 117.902H387.332V147.208H416.675V117.902Z" stroke="#E2E7F0" stroke-width="1.5"/>
<path d="M446.019 117.902H416.675V147.208H446.019V117.902Z" stroke="#E2E7F0" stroke-width="1.5"/>
<path d="M475.362 117.902H446.019V147.208H475.362V117.902Z" stroke="#E2E7F0" stroke-width="1.5"/>
<path d="M504.705 117.902H475.362V147.208H504.705V117.902Z" stroke="#E2E7F0" stroke-width="1.5"/>
<path d="M534.049 117.902H504.705V147.208H534.049V117.902Z" stroke="#E2E7F0" stroke-width="1.5"/>
<path d="M563.392 117.902H534.049V147.208H563.392V117.902Z" stroke="#E2E7F0" stroke-width="1.5"/>
<path d="M592.735 117.902H563.392V147.208H592.735V117.902Z" stroke="#E2E7F0" stroke-width="1.5"/>
<path d="M622.078 117.902H592.735V147.208H622.078V117.902Z" stroke="#E2E7F0" stroke-width="1.5"/>
<path d="M651.422 117.902H622.079V147.208H651.422V117.902Z" stroke="#E2E7F0" stroke-width="1.5"/>
<path d="M680.765 117.902H651.422V147.208H680.765V117.902Z" stroke="#E2E7F0" stroke-width="1.5"/>
<path d="M710.109 117.902H680.765V147.208H710.109V117.902Z" stroke="#E2E7F0" stroke-width="1.5"/>
<path d="M739.452 117.902H710.109V147.208H739.452V117.902Z" stroke="#E2E7F0" stroke-width="1.5"/>
<path d="M768.795 117.902H739.452V147.208H768.795V117.902Z" stroke="#E2E7F0" stroke-width="1.5"/>
<path d="M798.138 117.902H768.795V147.208H798.138V117.902Z" stroke="#E2E7F0" stroke-width="1.5"/>
<path d="M827.482 117.902H798.139V147.208H827.482V117.902Z" stroke="#E2E7F0" stroke-width="1.5"/>
<path d="M856.825 117.902H827.482V147.208H856.825V117.902Z" stroke="#E2E7F0" stroke-width="1.5"/>
<path d="M886.168 117.902H856.825V147.208H886.168V117.902Z" stroke="#E2E7F0" stroke-width="1.5"/>
<path d="M915.512 117.902H886.168V147.208H915.512V117.902Z" stroke="#E2E7F0" stroke-width="1.5"/>
<path d="M944.855 117.902H915.512V147.208H944.855V117.902Z" stroke="#E2E7F0" stroke-width="1.5"/>
<path d="M974.199 117.902H944.855V147.208H974.199V117.902Z" stroke="#E2E7F0" stroke-width="1.5"/>
<path d="M1003.54 117.902H974.198V147.208H1003.54V117.902Z" stroke="#E2E7F0" stroke-width="1.5"/>
<path d="M1032.89 117.902H1003.54V147.208H1032.89V117.902Z" stroke="#E2E7F0" stroke-width="1.5"/>
<path d="M1062.23 117.902H1032.89V147.208H1062.23V117.902Z" stroke="#E2E7F0" stroke-width="1.5"/>
<path d="M1091.57 117.902H1062.23V147.208H1091.57V117.902Z" stroke="#E2E7F0" stroke-width="1.5"/>
<path d="M5.86866 147.208H-23.4747V176.514H5.86866V147.208Z" stroke="#E2E7F0" stroke-width="1.5"/>
<path d="M35.212 147.208H5.86866V176.514H35.212V147.208Z" stroke="#E2E7F0" stroke-width="1.5"/>
<path d="M64.5553 147.208H35.212V176.514H64.5553V147.208Z" stroke="#E2E7F0" stroke-width="1.5"/>
<path d="M93.8986 147.208H64.5553V176.514H93.8986V147.208Z" stroke="#E2E7F0" stroke-width="1.5"/>
<path d="M123.242 147.208H93.8986V176.514H123.242V147.208Z" stroke="#E2E7F0" stroke-width="1.5"/>
<path d="M152.585 147.208H123.242V176.514H152.585V147.208Z" stroke="#E2E7F0" stroke-width="1.5"/>
<path d="M181.929 147.208H152.585V176.514H181.929V147.208Z" stroke="#E2E7F0" stroke-width="1.5"/>
<path d="M211.272 147.208H181.929V176.514H211.272V147.208Z" stroke="#E2E7F0" stroke-width="1.5"/>
<path d="M240.615 147.208H211.272V176.514H240.615V147.208Z" stroke="#E2E7F0" stroke-width="1.5"/>
<path d="M269.959 147.208H240.615V176.514H269.959V147.208Z" stroke="#E2E7F0" stroke-width="1.5"/>
<path d="M299.302 147.208H269.959V176.514H299.302V147.208Z" stroke="#E2E7F0" stroke-width="1.5"/>
<path d="M328.645 147.208H299.302V176.514H328.645V147.208Z" stroke="#E2E7F0" stroke-width="1.5"/>
<path d="M357.989 147.208H328.645V176.514H357.989V147.208Z" stroke="#E2E7F0" stroke-width="1.5"/>
<path d="M387.332 147.208H357.989V176.514H387.332V147.208Z" stroke="#E2E7F0" stroke-width="1.5"/>
<path d="M416.675 147.208H387.332V176.514H416.675V147.208Z" stroke="#E2E7F0" stroke-width="1.5"/>
<path d="M446.019 147.208H416.675V176.514H446.019V147.208Z" stroke="#E2E7F0" stroke-width="1.5"/>
<path d="M475.362 147.208H446.019V176.514H475.362V147.208Z" stroke="#E2E7F0" stroke-width="1.5"/>
<path d="M504.705 147.208H475.362V176.514H504.705V147.208Z" stroke="#E2E7F0" stroke-width="1.5"/>
<path d="M534.049 147.208H504.705V176.514H534.049V147.208Z" stroke="#E2E7F0" stroke-width="1.5"/>
<path d="M563.392 147.208H534.049V176.514H563.392V147.208Z" stroke="#E2E7F0" stroke-width="1.5"/>
<path d="M592.735 147.208H563.392V176.514H592.735V147.208Z" stroke="#E2E7F0" stroke-width="1.5"/>
<path d="M622.078 147.208H592.735V176.514H622.078V147.208Z" stroke="#E2E7F0" stroke-width="1.5"/>
<path d="M651.422 147.208H622.079V176.514H651.422V147.208Z" stroke="#E2E7F0" stroke-width="1.5"/>
<path d="M680.765 147.208H651.422V176.514H680.765V147.208Z" stroke="#E2E7F0" stroke-width="1.5"/>
<path d="M710.109 147.208H680.765V176.514H710.109V147.208Z" stroke="#E2E7F0" stroke-width="1.5"/>
<path d="M739.452 147.208H710.109V176.514H739.452V147.208Z" stroke="#E2E7F0" stroke-width="1.5"/>
<path d="M768.795 147.208H739.452V176.514H768.795V147.208Z" stroke="#E2E7F0" stroke-width="1.5"/>
<path d="M798.138 147.208H768.795V176.514H798.138V147.208Z" stroke="#E2E7F0" stroke-width="1.5"/>
<path d="M827.482 147.208H798.139V176.514H827.482V147.208Z" stroke="#E2E7F0" stroke-width="1.5"/>
<path d="M856.825 147.208H827.482V176.514H856.825V147.208Z" fill="#E2E7F0" fill-opacity="0.3" stroke="#E2E7F0" stroke-width="1.5"/>
<path d="M886.168 147.208H856.825V176.514H886.168V147.208Z" stroke="#E2E7F0" stroke-width="1.5"/>
<path d="M915.512 147.208H886.168V176.514H915.512V147.208Z" stroke="#E2E7F0" stroke-width="1.5"/>
<path d="M944.855 147.208H915.512V176.514H944.855V147.208Z" stroke="#E2E7F0" stroke-width="1.5"/>
<path d="M974.199 147.208H944.855V176.514H974.199V147.208Z" stroke="#E2E7F0" stroke-width="1.5"/>
<path d="M1003.54 147.208H974.198V176.514H1003.54V147.208Z" stroke="#E2E7F0" stroke-width="1.5"/>
<path d="M1032.89 147.208H1003.54V176.514H1032.89V147.208Z" stroke="#E2E7F0" stroke-width="1.5"/>
<path d="M1062.23 147.208H1032.89V176.514H1062.23V147.208Z" stroke="#E2E7F0" stroke-width="1.5"/>
<path d="M1091.57 147.208H1062.23V176.514H1091.57V147.208Z" stroke="#E2E7F0" stroke-width="1.5"/>
<path d="M5.86866 176.514H-23.4747V205.821H5.86866V176.514Z" stroke="#E2E7F0" stroke-width="1.5"/>
<path d="M35.212 176.514H5.86866V205.821H35.212V176.514Z" stroke="#E2E7F0" stroke-width="1.5"/>
<path d="M64.5553 176.514H35.212V205.821H64.5553V176.514Z" stroke="#E2E7F0" stroke-width="1.5"/>
<path d="M93.8986 176.514H64.5553V205.821H93.8986V176.514Z" stroke="#E2E7F0" stroke-width="1.5"/>
<path d="M123.242 176.514H93.8986V205.821H123.242V176.514Z" stroke="#E2E7F0" stroke-width="1.5"/>
<path d="M152.585 176.514H123.242V205.821H152.585V176.514Z" stroke="#E2E7F0" stroke-width="1.5"/>
<path d="M181.929 176.514H152.585V205.821H181.929V176.514Z" stroke="#E2E7F0" stroke-width="1.5"/>
<path d="M211.272 176.514H181.929V205.821H211.272V176.514Z" stroke="#E2E7F0" stroke-width="1.5"/>
<path d="M240.615 176.514H211.272V205.821H240.615V176.514Z" stroke="#E2E7F0" stroke-width="1.5"/>
<path d="M269.959 176.514H240.615V205.821H269.959V176.514Z" stroke="#E2E7F0" stroke-width="1.5"/>
<path d="M299.302 176.514H269.959V205.821H299.302V176.514Z" stroke="#E2E7F0" stroke-width="1.5"/>
<path d="M328.645 176.514H299.302V205.821H328.645V176.514Z" stroke="#E2E7F0" stroke-width="1.5"/>
<path d="M357.989 176.514H328.645V205.821H357.989V176.514Z" stroke="#E2E7F0" stroke-width="1.5"/>
<path d="M387.332 176.514H357.989V205.821H387.332V176.514Z" stroke="#E2E7F0" stroke-width="1.5"/>
<path d="M416.675 176.514H387.332V205.821H416.675V176.514Z" stroke="#E2E7F0" stroke-width="1.5"/>
<path d="M446.019 176.514H416.675V205.821H446.019V176.514Z" stroke="#E2E7F0" stroke-width="1.5"/>
<path d="M475.362 176.514H446.019V205.821H475.362V176.514Z" stroke="#E2E7F0" stroke-width="1.5"/>
<path d="M504.705 176.514H475.362V205.821H504.705V176.514Z" stroke="#E2E7F0" stroke-width="1.5"/>
<path d="M534.049 176.514H504.705V205.821H534.049V176.514Z" stroke="#E2E7F0" stroke-width="1.5"/>
<path d="M563.392 176.514H534.049V205.821H563.392V176.514Z" stroke="#E2E7F0" stroke-width="1.5"/>
<path d="M592.735 176.514H563.392V205.821H592.735V176.514Z" stroke="#E2E7F0" stroke-width="1.5"/>
<path d="M622.078 176.514H592.735V205.821H622.078V176.514Z" stroke="#E2E7F0" stroke-width="1.5"/>
<path d="M651.422 176.514H622.079V205.821H651.422V176.514Z" stroke="#E2E7F0" stroke-width="1.5"/>
<path d="M680.765 176.514H651.422V205.821H680.765V176.514Z" stroke="#E2E7F0" stroke-width="1.5"/>
<path d="M710.109 176.514H680.765V205.821H710.109V176.514Z" stroke="#E2E7F0" stroke-width="1.5"/>
<path d="M739.452 176.514H710.109V205.821H739.452V176.514Z" stroke="#E2E7F0" stroke-width="1.5"/>
<path d="M768.795 176.514H739.452V205.821H768.795V176.514Z" stroke="#E2E7F0" stroke-width="1.5"/>
<path d="M798.138 176.514H768.795V205.821H798.138V176.514Z" stroke="#E2E7F0" stroke-width="1.5"/>
<path d="M827.482 176.514H798.139V205.821H827.482V176.514Z" stroke="#E2E7F0" stroke-width="1.5"/>
<path d="M856.825 176.514H827.482V205.821H856.825V176.514Z" stroke="#E2E7F0" stroke-width="1.5"/>
<path d="M886.168 176.514H856.825V205.821H886.168V176.514Z" stroke="#E2E7F0" stroke-width="1.5"/>
<path d="M915.512 176.514H886.168V205.821H915.512V176.514Z" stroke="#E2E7F0" stroke-width="1.5"/>
<path d="M944.855 176.514H915.512V205.821H944.855V176.514Z" stroke="#E2E7F0" stroke-width="1.5"/>
<path d="M974.199 176.514H944.855V205.821H974.199V176.514Z" stroke="#E2E7F0" stroke-width="1.5"/>
<path d="M1003.54 176.514H974.198V205.821H1003.54V176.514Z" fill="#E2E7F0" fill-opacity="0.3" stroke="#E2E7F0" stroke-width="1.5"/>
<path d="M1032.89 176.514H1003.54V205.821H1032.89V176.514Z" stroke="#E2E7F0" stroke-width="1.5"/>
<path d="M1062.23 176.514H1032.89V205.821H1062.23V176.514Z" stroke="#E2E7F0" stroke-width="1.5"/>
<path d="M1091.57 176.514H1062.23V205.821H1091.57V176.514Z" stroke="#E2E7F0" stroke-width="1.5"/>
<path d="M5.86866 205.821H-23.4747V235.127H5.86866V205.821Z" fill="#E2E7F0" fill-opacity="0.3" stroke="#E2E7F0" stroke-width="1.5"/>
<path d="M35.212 205.821H5.86866V235.127H35.212V205.821Z" stroke="#E2E7F0" stroke-width="1.5"/>
<path d="M64.5553 205.821H35.212V235.127H64.5553V205.821Z" stroke="#E2E7F0" stroke-width="1.5"/>
<path d="M93.8986 205.821H64.5553V235.127H93.8986V205.821Z" stroke="#E2E7F0" stroke-width="1.5"/>
<path d="M123.242 205.821H93.8986V235.127H123.242V205.821Z" stroke="#E2E7F0" stroke-width="1.5"/>
<path d="M152.585 205.821H123.242V235.127H152.585V205.821Z" stroke="#E2E7F0" stroke-width="1.5"/>
<path d="M181.929 205.821H152.585V235.127H181.929V205.821Z" fill="#E2E7F0" fill-opacity="0.3" stroke="#E2E7F0" stroke-width="1.5"/>
<path d="M211.272 205.821H181.929V235.127H211.272V205.821Z" stroke="#E2E7F0" stroke-width="1.5"/>
<path d="M240.615 205.821H211.272V235.127H240.615V205.821Z" stroke="#E2E7F0" stroke-width="1.5"/>
<path d="M269.959 205.821H240.615V235.127H269.959V205.821Z" stroke="#E2E7F0" stroke-width="1.5"/>
<path d="M299.302 205.821H269.959V235.127H299.302V205.821Z" stroke="#E2E7F0" stroke-width="1.5"/>
<path d="M328.645 205.821H299.302V235.127H328.645V205.821Z" stroke="#E2E7F0" stroke-width="1.5"/>
<path d="M357.989 205.821H328.645V235.127H357.989V205.821Z" stroke="#E2E7F0" stroke-width="1.5"/>
<path d="M387.332 205.821H357.989V235.127H387.332V205.821Z" stroke="#E2E7F0" stroke-width="1.5"/>
<path d="M416.675 205.821H387.332V235.127H416.675V205.821Z" stroke="#E2E7F0" stroke-width="1.5"/>
<path d="M446.019 205.821H416.675V235.127H446.019V205.821Z" stroke="#E2E7F0" stroke-width="1.5"/>
<path d="M475.362 205.821H446.019V235.127H475.362V205.821Z" stroke="#E2E7F0" stroke-width="1.5"/>
<path d="M504.705 205.821H475.362V235.127H504.705V205.821Z" stroke="#E2E7F0" stroke-width="1.5"/>
<path d="M534.049 205.821H504.705V235.127H534.049V205.821Z" stroke="#E2E7F0" stroke-width="1.5"/>
<path d="M563.392 205.821H534.049V235.127H563.392V205.821Z" stroke="#E2E7F0" stroke-width="1.5"/>
<path d="M592.735 205.821H563.392V235.127H592.735V205.821Z" stroke="#E2E7F0" stroke-width="1.5"/>
<path d="M622.078 205.821H592.735V235.127H622.078V205.821Z" stroke="#E2E7F0" stroke-width="1.5"/>
<path d="M651.422 205.821H622.079V235.127H651.422V205.821Z" stroke="#E2E7F0" stroke-width="1.5"/>
<path d="M680.765 205.821H651.422V235.127H680.765V205.821Z" stroke="#E2E7F0" stroke-width="1.5"/>
<path d="M710.109 205.821H680.765V235.127H710.109V205.821Z" stroke="#E2E7F0" stroke-width="1.5"/>
<path d="M739.452 205.821H710.109V235.127H739.452V205.821Z" stroke="#E2E7F0" stroke-width="1.5"/>
<path d="M768.795 205.821H739.452V235.127H768.795V205.821Z" stroke="#E2E7F0" stroke-width="1.5"/>
<path d="M798.138 205.821H768.795V235.127H798.138V205.821Z" stroke="#E2E7F0" stroke-width="1.5"/>
<path d="M827.482 205.821H798.139V235.127H827.482V205.821Z" stroke="#E2E7F0" stroke-width="1.5"/>
<path d="M856.825 205.821H827.482V235.127H856.825V205.821Z" stroke="#E2E7F0" stroke-width="1.5"/>
<path d="M886.168 205.821H856.825V235.127H886.168V205.821Z" fill="#E2E7F0" fill-opacity="0.3" stroke="#E2E7F0" stroke-width="1.5"/>
<path d="M915.512 205.821H886.168V235.127H915.512V205.821Z" stroke="#E2E7F0" stroke-width="1.5"/>
<path d="M944.855 205.821H915.512V235.127H944.855V205.821Z" stroke="#E2E7F0" stroke-width="1.5"/>
<path d="M974.199 205.821H944.855V235.127H974.199V205.821Z" stroke="#E2E7F0" stroke-width="1.5"/>
<path d="M1003.54 205.821H974.198V235.127H1003.54V205.821Z" stroke="#E2E7F0" stroke-width="1.5"/>
<path d="M1032.89 205.821H1003.54V235.127H1032.89V205.821Z" stroke="#E2E7F0" stroke-width="1.5"/>
<path d="M1062.23 205.821H1032.89V235.127H1062.23V205.821Z" stroke="#E2E7F0" stroke-width="1.5"/>
<path d="M1091.57 205.821H1062.23V235.127H1091.57V205.821Z" stroke="#E2E7F0" stroke-width="1.5"/>
<path d="M5.86866 235.127H-23.4747V264.434H5.86866V235.127Z" stroke="#E2E7F0" stroke-width="1.5"/>
<path d="M35.212 235.127H5.86866V264.434H35.212V235.127Z" stroke="#E2E7F0" stroke-width="1.5"/>
<path d="M64.5553 235.127H35.212V264.434H64.5553V235.127Z" stroke="#E2E7F0" stroke-width="1.5"/>
<path d="M93.8986 235.127H64.5553V264.434H93.8986V235.127Z" stroke="#E2E7F0" stroke-width="1.5"/>
<path d="M123.242 235.127H93.8986V264.434H123.242V235.127Z" stroke="#E2E7F0" stroke-width="1.5"/>
<path d="M152.585 235.127H123.242V264.434H152.585V235.127Z" fill="#E2E7F0" fill-opacity="0.3" stroke="#E2E7F0" stroke-width="1.5"/>
<path d="M181.929 235.127H152.585V264.434H181.929V235.127Z" stroke="#E2E7F0" stroke-width="1.5"/>
<path d="M211.272 235.127H181.929V264.434H211.272V235.127Z" stroke="#E2E7F0" stroke-width="1.5"/>
<path d="M240.615 235.127H211.272V264.434H240.615V235.127Z" stroke="#E2E7F0" stroke-width="1.5"/>
<path d="M269.959 235.127H240.615V264.434H269.959V235.127Z" stroke="#E2E7F0" stroke-width="1.5"/>
<path d="M299.302 235.127H269.959V264.434H299.302V235.127Z" stroke="#E2E7F0" stroke-width="1.5"/>
<path d="M328.645 235.127H299.302V264.434H328.645V235.127Z" stroke="#E2E7F0" stroke-width="1.5"/>
<path d="M357.989 235.127H328.645V264.434H357.989V235.127Z" stroke="#E2E7F0" stroke-width="1.5"/>
<path d="M387.332 235.127H357.989V264.434H387.332V235.127Z" stroke="#E2E7F0" stroke-width="1.5"/>
<path d="M416.675 235.127H387.332V264.434H416.675V235.127Z" stroke="#E2E7F0" stroke-width="1.5"/>
<path d="M446.019 235.127H416.675V264.434H446.019V235.127Z" stroke="#E2E7F0" stroke-width="1.5"/>
<path d="M475.362 235.127H446.019V264.434H475.362V235.127Z" stroke="#E2E7F0" stroke-width="1.5"/>
<path d="M504.705 235.127H475.362V264.434H504.705V235.127Z" stroke="#E2E7F0" stroke-width="1.5"/>
<path d="M534.049 235.127H504.705V264.434H534.049V235.127Z" stroke="#E2E7F0" stroke-width="1.5"/>
<path d="M563.392 235.127H534.049V264.434H563.392V235.127Z" stroke="#E2E7F0" stroke-width="1.5"/>
<path d="M592.735 235.127H563.392V264.434H592.735V235.127Z" stroke="#E2E7F0" stroke-width="1.5"/>
<path d="M622.078 235.127H592.735V264.434H622.078V235.127Z" stroke="#E2E7F0" stroke-width="1.5"/>
<path d="M651.422 235.127H622.079V264.434H651.422V235.127Z" stroke="#E2E7F0" stroke-width="1.5"/>
<path d="M680.765 235.127H651.422V264.434H680.765V235.127Z" stroke="#E2E7F0" stroke-width="1.5"/>
<path d="M710.109 235.127H680.765V264.434H710.109V235.127Z" stroke="#E2E7F0" stroke-width="1.5"/>
<path d="M739.452 235.127H710.109V264.434H739.452V235.127Z" stroke="#E2E7F0" stroke-width="1.5"/>
<path d="M768.795 235.127H739.452V264.434H768.795V235.127Z" stroke="#E2E7F0" stroke-width="1.5"/>
<path d="M798.138 235.127H768.795V264.434H798.138V235.127Z" stroke="#E2E7F0" stroke-width="1.5"/>
<path d="M827.482 235.127H798.139V264.434H827.482V235.127Z" stroke="#E2E7F0" stroke-width="1.5"/>
<path d="M856.825 235.127H827.482V264.434H856.825V235.127Z" stroke="#E2E7F0" stroke-width="1.5"/>
<path d="M886.168 235.127H856.825V264.434H886.168V235.127Z" stroke="#E2E7F0" stroke-width="1.5"/>
<path d="M915.512 235.127H886.168V264.434H915.512V235.127Z" stroke="#E2E7F0" stroke-width="1.5"/>
<path d="M944.855 235.127H915.512V264.434H944.855V235.127Z" stroke="#E2E7F0" stroke-width="1.5"/>
<path d="M974.199 235.127H944.855V264.434H974.199V235.127Z" stroke="#E2E7F0" stroke-width="1.5"/>
<path d="M1003.54 235.127H974.198V264.434H1003.54V235.127Z" stroke="#E2E7F0" stroke-width="1.5"/>
<path d="M1032.89 235.127H1003.54V264.434H1032.89V235.127Z" stroke="#E2E7F0" stroke-width="1.5"/>
<path d="M1062.23 235.127H1032.89V264.434H1062.23V235.127Z" stroke="#E2E7F0" stroke-width="1.5"/>
<path d="M1091.57 235.127H1062.23V264.434H1091.57V235.127Z" stroke="#E2E7F0" stroke-width="1.5"/>
<path d="M5.86866 264.434H-23.4747V293.74H5.86866V264.434Z" stroke="#E2E7F0" stroke-width="1.5"/>
<path d="M35.212 264.434H5.86866V293.74H35.212V264.434Z" stroke="#E2E7F0" stroke-width="1.5"/>
<path d="M64.5553 264.434H35.212V293.74H64.5553V264.434Z" stroke="#E2E7F0" stroke-width="1.5"/>
<path d="M93.8986 264.434H64.5553V293.74H93.8986V264.434Z" fill="#E2E7F0" fill-opacity="0.3" stroke="#E2E7F0" stroke-width="1.5"/>
<path d="M123.242 264.434H93.8986V293.74H123.242V264.434Z" stroke="#E2E7F0" stroke-width="1.5"/>
<path d="M152.585 264.434H123.242V293.74H152.585V264.434Z" stroke="#E2E7F0" stroke-width="1.5"/>
<path d="M181.929 264.434H152.585V293.74H181.929V264.434Z" stroke="#E2E7F0" stroke-width="1.5"/>
<path d="M211.272 264.434H181.929V293.74H211.272V264.434Z" stroke="#E2E7F0" stroke-width="1.5"/>
<path d="M240.615 264.434H211.272V293.74H240.615V264.434Z" stroke="#E2E7F0" stroke-width="1.5"/>
<path d="M269.959 264.434H240.615V293.74H269.959V264.434Z" stroke="#E2E7F0" stroke-width="1.5"/>
<path d="M299.302 264.434H269.959V293.74H299.302V264.434Z" stroke="#E2E7F0" stroke-width="1.5"/>
<path d="M328.645 264.434H299.302V293.74H328.645V264.434Z" stroke="#E2E7F0" stroke-width="1.5"/>
<path d="M357.989 264.434H328.645V293.74H357.989V264.434Z" stroke="#E2E7F0" stroke-width="1.5"/>
<path d="M387.332 264.434H357.989V293.74H387.332V264.434Z" stroke="#E2E7F0" stroke-width="1.5"/>
<path d="M416.675 264.434H387.332V293.74H416.675V264.434Z" stroke="#E2E7F0" stroke-width="1.5"/>
<path d="M446.019 264.434H416.675V293.74H446.019V264.434Z" stroke="#E2E7F0" stroke-width="1.5"/>
<path d="M475.362 264.434H446.019V293.74H475.362V264.434Z" stroke="#E2E7F0" stroke-width="1.5"/>
<path d="M504.705 264.434H475.362V293.74H504.705V264.434Z" stroke="#E2E7F0" stroke-width="1.5"/>
<path d="M534.049 264.434H504.705V293.74H534.049V264.434Z" stroke="#E2E7F0" stroke-width="1.5"/>
<path d="M563.392 264.434H534.049V293.74H563.392V264.434Z" stroke="#E2E7F0" stroke-width="1.5"/>
<path d="M592.735 264.434H563.392V293.74H592.735V264.434Z" stroke="#E2E7F0" stroke-width="1.5"/>
<path d="M622.078 264.434H592.735V293.74H622.078V264.434Z" stroke="#E2E7F0" stroke-width="1.5"/>
<path d="M651.422 264.434H622.079V293.74H651.422V264.434Z" stroke="#E2E7F0" stroke-width="1.5"/>
<path d="M680.765 264.434H651.422V293.74H680.765V264.434Z" stroke="#E2E7F0" stroke-width="1.5"/>
<path d="M710.109 264.434H680.765V293.74H710.109V264.434Z" stroke="#E2E7F0" stroke-width="1.5"/>
<path d="M739.452 264.434H710.109V293.74H739.452V264.434Z" stroke="#E2E7F0" stroke-width="1.5"/>
<path d="M768.795 264.434H739.452V293.74H768.795V264.434Z" stroke="#E2E7F0" stroke-width="1.5"/>
<path d="M798.138 264.434H768.795V293.74H798.138V264.434Z" stroke="#E2E7F0" stroke-width="1.5"/>
<path d="M827.482 264.434H798.139V293.74H827.482V264.434Z" stroke="#E2E7F0" stroke-width="1.5"/>
<path d="M856.825 264.434H827.482V293.74H856.825V264.434Z" stroke="#E2E7F0" stroke-width="1.5"/>
<path d="M886.168 264.434H856.825V293.74H886.168V264.434Z" stroke="#E2E7F0" stroke-width="1.5"/>
<path d="M915.512 264.434H886.168V293.74H915.512V264.434Z" stroke="#E2E7F0" stroke-width="1.5"/>
<path d="M944.855 264.434H915.512V293.74H944.855V264.434Z" stroke="#E2E7F0" stroke-width="1.5"/>
<path d="M974.199 264.434H944.855V293.74H974.199V264.434Z" stroke="#E2E7F0" stroke-width="1.5"/>
<path d="M1003.54 264.434H974.198V293.74H1003.54V264.434Z" stroke="#E2E7F0" stroke-width="1.5"/>
<path d="M1032.89 264.434H1003.54V293.74H1032.89V264.434Z" stroke="#E2E7F0" stroke-width="1.5"/>
<path d="M1062.23 264.434H1032.89V293.74H1062.23V264.434Z" fill="#E2E7F0" fill-opacity="0.3" stroke="#E2E7F0" stroke-width="1.5"/>
<path d="M1091.57 264.434H1062.23V293.74H1091.57V264.434Z" stroke="#E2E7F0" stroke-width="1.5"/>
<path d="M5.86866 293.74H-23.4747V323.046H5.86866V293.74Z" stroke="#E2E7F0" stroke-width="1.5"/>
<path d="M35.212 293.74H5.86866V323.046H35.212V293.74Z" stroke="#E2E7F0" stroke-width="1.5"/>
<path d="M64.5553 293.74H35.212V323.046H64.5553V293.74Z" stroke="#E2E7F0" stroke-width="1.5"/>
<path d="M93.8986 293.74H64.5553V323.046H93.8986V293.74Z" stroke="#E2E7F0" stroke-width="1.5"/>
<path d="M123.242 293.74H93.8986V323.046H123.242V293.74Z" stroke="#E2E7F0" stroke-width="1.5"/>
<path d="M152.585 293.74H123.242V323.046H152.585V293.74Z" stroke="#E2E7F0" stroke-width="1.5"/>
<path d="M181.929 293.74H152.585V323.046H181.929V293.74Z" stroke="#E2E7F0" stroke-width="1.5"/>
<path d="M211.272 293.74H181.929V323.046H211.272V293.74Z" fill="#E2E7F0" fill-opacity="0.3" stroke="#E2E7F0" stroke-width="1.5"/>
<path d="M240.615 293.74H211.272V323.046H240.615V293.74Z" stroke="#E2E7F0" stroke-width="1.5"/>
<path d="M269.959 293.74H240.615V323.046H269.959V293.74Z" stroke="#E2E7F0" stroke-width="1.5"/>
<path d="M299.302 293.74H269.959V323.046H299.302V293.74Z" stroke="#E2E7F0" stroke-width="1.5"/>
<path d="M328.645 293.74H299.302V323.046H328.645V293.74Z" stroke="#E2E7F0" stroke-width="1.5"/>
<path d="M357.989 293.74H328.645V323.046H357.989V293.74Z" stroke="#E2E7F0" stroke-width="1.5"/>
<path d="M387.332 293.74H357.989V323.046H387.332V293.74Z" stroke="#E2E7F0" stroke-width="1.5"/>
<path d="M416.675 293.74H387.332V323.046H416.675V293.74Z" fill="#E2E7F0" fill-opacity="0.3" stroke="#E2E7F0" stroke-width="1.5"/>
<path d="M446.019 293.74H416.675V323.046H446.019V293.74Z" stroke="#E2E7F0" stroke-width="1.5"/>
<path d="M475.362 293.74H446.019V323.046H475.362V293.74Z" stroke="#E2E7F0" stroke-width="1.5"/>
<path d="M504.705 293.74H475.362V323.046H504.705V293.74Z" stroke="#E2E7F0" stroke-width="1.5"/>
<path d="M534.049 293.74H504.705V323.046H534.049V293.74Z" stroke="#E2E7F0" stroke-width="1.5"/>
<path d="M563.392 293.74H534.049V323.046H563.392V293.74Z" stroke="#E2E7F0" stroke-width="1.5"/>
<path d="M592.735 293.74H563.392V323.046H592.735V293.74Z" stroke="#E2E7F0" stroke-width="1.5"/>
<path d="M622.078 293.74H592.735V323.046H622.078V293.74Z" stroke="#E2E7F0" stroke-width="1.5"/>
<path d="M651.422 293.74H622.079V323.046H651.422V293.74Z" stroke="#E2E7F0" stroke-width="1.5"/>
<path d="M680.765 293.74H651.422V323.046H680.765V293.74Z" stroke="#E2E7F0" stroke-width="1.5"/>
<path d="M710.109 293.74H680.765V323.046H710.109V293.74Z" stroke="#E2E7F0" stroke-width="1.5"/>
<path d="M739.452 293.74H710.109V323.046H739.452V293.74Z" stroke="#E2E7F0" stroke-width="1.5"/>
<path d="M768.795 293.74H739.452V323.046H768.795V293.74Z" stroke="#E2E7F0" stroke-width="1.5"/>
<path d="M798.138 293.74H768.795V323.046H798.138V293.74Z" stroke="#E2E7F0" stroke-width="1.5"/>
<path d="M827.482 293.74H798.139V323.046H827.482V293.74Z" stroke="#E2E7F0" stroke-width="1.5"/>
<path d="M856.825 293.74H827.482V323.046H856.825V293.74Z" stroke="#E2E7F0" stroke-width="1.5"/>
<path d="M886.168 293.74H856.825V323.046H886.168V293.74Z" stroke="#E2E7F0" stroke-width="1.5"/>
<path d="M915.512 293.74H886.168V323.046H915.512V293.74Z" stroke="#E2E7F0" stroke-width="1.5"/>
<path d="M944.855 293.74H915.512V323.046H944.855V293.74Z" stroke="#E2E7F0" stroke-width="1.5"/>
<path d="M974.199 293.74H944.855V323.046H974.199V293.74Z" stroke="#E2E7F0" stroke-width="1.5"/>
<path d="M1003.54 293.74H974.198V323.046H1003.54V293.74Z" stroke="#E2E7F0" stroke-width="1.5"/>
<path d="M1032.89 293.74H1003.54V323.046H1032.89V293.74Z" stroke="#E2E7F0" stroke-width="1.5"/>
<path d="M1062.23 293.74H1032.89V323.046H1062.23V293.74Z" stroke="#E2E7F0" stroke-width="1.5"/>
<path d="M1091.57 293.74H1062.23V323.046H1091.57V293.74Z" stroke="#E2E7F0" stroke-width="1.5"/>
<path d="M5.86866 323.046H-23.4747V352.353H5.86866V323.046Z" stroke="#E2E7F0" stroke-width="1.5"/>
<path d="M35.212 323.046H5.86866V352.353H35.212V323.046Z" stroke="#E2E7F0" stroke-width="1.5"/>
<path d="M64.5553 323.046H35.212V352.353H64.5553V323.046Z" stroke="#E2E7F0" stroke-width="1.5"/>
<path d="M93.8986 323.046H64.5553V352.353H93.8986V323.046Z" stroke="#E2E7F0" stroke-width="1.5"/>
<path d="M123.242 323.046H93.8986V352.353H123.242V323.046Z" stroke="#E2E7F0" stroke-width="1.5"/>
<path d="M152.585 323.046H123.242V352.353H152.585V323.046Z" stroke="#E2E7F0" stroke-width="1.5"/>
<path d="M181.929 323.046H152.585V352.353H181.929V323.046Z" stroke="#E2E7F0" stroke-width="1.5"/>
<path d="M211.272 323.046H181.929V352.353H211.272V323.046Z" stroke="#E2E7F0" stroke-width="1.5"/>
<path d="M240.615 323.046H211.272V352.353H240.615V323.046Z" stroke="#E2E7F0" stroke-width="1.5"/>
<path d="M269.959 323.046H240.615V352.353H269.959V323.046Z" stroke="#E2E7F0" stroke-width="1.5"/>
<path d="M299.302 323.046H269.959V352.353H299.302V323.046Z" stroke="#E2E7F0" stroke-width="1.5"/>
<path d="M328.645 323.046H299.302V352.353H328.645V323.046Z" stroke="#E2E7F0" stroke-width="1.5"/>
<path d="M357.989 323.046H328.645V352.353H357.989V323.046Z" stroke="#E2E7F0" stroke-width="1.5"/>
<path d="M387.332 323.046H357.989V352.353H387.332V323.046Z" stroke="#E2E7F0" stroke-width="1.5"/>
<path d="M416.675 323.046H387.332V352.353H416.675V323.046Z" stroke="#E2E7F0" stroke-width="1.5"/>
<path d="M446.019 323.046H416.675V352.353H446.019V323.046Z" stroke="#E2E7F0" stroke-width="1.5"/>
<path d="M475.362 323.046H446.019V352.353H475.362V323.046Z" stroke="#E2E7F0" stroke-width="1.5"/>
<path d="M504.705 323.046H475.362V352.353H504.705V323.046Z" stroke="#E2E7F0" stroke-width="1.5"/>
<path d="M534.049 323.046H504.705V352.353H534.049V323.046Z" stroke="#E2E7F0" stroke-width="1.5"/>
<path d="M563.392 323.046H534.049V352.353H563.392V323.046Z" stroke="#E2E7F0" stroke-width="1.5"/>
<path d="M592.735 323.046H563.392V352.353H592.735V323.046Z" stroke="#E2E7F0" stroke-width="1.5"/>
<path d="M622.078 323.046H592.735V352.353H622.078V323.046Z" stroke="#E2E7F0" stroke-width="1.5"/>
<path d="M651.422 323.046H622.079V352.353H651.422V323.046Z" stroke="#E2E7F0" stroke-width="1.5"/>
<path d="M680.765 323.046H651.422V352.353H680.765V323.046Z" stroke="#E2E7F0" stroke-width="1.5"/>
<path d="M710.109 323.046H680.765V352.353H710.109V323.046Z" stroke="#E2E7F0" stroke-width="1.5"/>
<path d="M739.452 323.046H710.109V352.353H739.452V323.046Z" stroke="#E2E7F0" stroke-width="1.5"/>
<path d="M768.795 323.046H739.452V352.353H768.795V323.046Z" stroke="#E2E7F0" stroke-width="1.5"/>
<path d="M798.138 323.046H768.795V352.353H798.138V323.046Z" fill="#E2E7F0" fill-opacity="0.3" stroke="#E2E7F0" stroke-width="1.5"/>
<path d="M827.482 323.046H798.139V352.353H827.482V323.046Z" stroke="#E2E7F0" stroke-width="1.5"/>
<path d="M856.825 323.046H827.482V352.353H856.825V323.046Z" stroke="#E2E7F0" stroke-width="1.5"/>
<path d="M886.168 323.046H856.825V352.353H886.168V323.046Z" stroke="#E2E7F0" stroke-width="1.5"/>
<path d="M915.512 323.046H886.168V352.353H915.512V323.046Z" stroke="#E2E7F0" stroke-width="1.5"/>
<path d="M944.855 323.046H915.512V352.353H944.855V323.046Z" stroke="#E2E7F0" stroke-width="1.5"/>
<path d="M974.199 323.046H944.855V352.353H974.199V323.046Z" stroke="#E2E7F0" stroke-width="1.5"/>
<path d="M1003.54 323.046H974.198V352.353H1003.54V323.046Z" fill="#E2E7F0" fill-opacity="0.3" stroke="#E2E7F0" stroke-width="1.5"/>
<path d="M1032.89 323.046H1003.54V352.353H1032.89V323.046Z" stroke="#E2E7F0" stroke-width="1.5"/>
<path d="M1062.23 323.046H1032.89V352.353H1062.23V323.046Z" stroke="#E2E7F0" stroke-width="1.5"/>
<path d="M1091.57 323.046H1062.23V352.353H1091.57V323.046Z" stroke="#E2E7F0" stroke-width="1.5"/>
<path d="M5.86866 352.353H-23.4747V381.659H5.86866V352.353Z" stroke="#E2E7F0" stroke-width="1.5"/>
<path d="M35.212 352.353H5.86866V381.659H35.212V352.353Z" stroke="#E2E7F0" stroke-width="1.5"/>
<path d="M64.5553 352.353H35.212V381.659H64.5553V352.353Z" fill="#E2E7F0" fill-opacity="0.3" stroke="#E2E7F0" stroke-width="1.5"/>
<path d="M93.8986 352.353H64.5553V381.659H93.8986V352.353Z" stroke="#E2E7F0" stroke-width="1.5"/>
<path d="M123.242 352.353H93.8986V381.659H123.242V352.353Z" stroke="#E2E7F0" stroke-width="1.5"/>
<path d="M152.585 352.353H123.242V381.659H152.585V352.353Z" stroke="#E2E7F0" stroke-width="1.5"/>
<path d="M181.929 352.353H152.585V381.659H181.929V352.353Z" stroke="#E2E7F0" stroke-width="1.5"/>
<path d="M211.272 352.353H181.929V381.659H211.272V352.353Z" stroke="#E2E7F0" stroke-width="1.5"/>
<path d="M240.615 352.353H211.272V381.659H240.615V352.353Z" stroke="#E2E7F0" stroke-width="1.5"/>
<path d="M269.959 352.353H240.615V381.659H269.959V352.353Z" stroke="#E2E7F0" stroke-width="1.5"/>
<path d="M299.302 352.353H269.959V381.659H299.302V352.353Z" stroke="#E2E7F0" stroke-width="1.5"/>
<path d="M328.645 352.353H299.302V381.659H328.645V352.353Z" stroke="#E2E7F0" stroke-width="1.5"/>
<path d="M357.989 352.353H328.645V381.659H357.989V352.353Z" fill="#E2E7F0" fill-opacity="0.3" stroke="#E2E7F0" stroke-width="1.5"/>
<path d="M387.332 352.353H357.989V381.659H387.332V352.353Z" stroke="#E2E7F0" stroke-width="1.5"/>
<path d="M416.675 352.353H387.332V381.659H416.675V352.353Z" stroke="#E2E7F0" stroke-width="1.5"/>
<path d="M446.019 352.353H416.675V381.659H446.019V352.353Z" stroke="#E2E7F0" stroke-width="1.5"/>
<path d="M475.362 352.353H446.019V381.659H475.362V352.353Z" stroke="#E2E7F0" stroke-width="1.5"/>
<path d="M504.705 352.353H475.362V381.659H504.705V352.353Z" stroke="#E2E7F0" stroke-width="1.5"/>
<path d="M534.049 352.353H504.705V381.659H534.049V352.353Z" stroke="#E2E7F0" stroke-width="1.5"/>
<path d="M563.392 352.353H534.049V381.659H563.392V352.353Z" stroke="#E2E7F0" stroke-width="1.5"/>
<path d="M592.735 352.353H563.392V381.659H592.735V352.353Z" stroke="#E2E7F0" stroke-width="1.5"/>
<path d="M622.078 352.353H592.735V381.659H622.078V352.353Z" stroke="#E2E7F0" stroke-width="1.5"/>
<path d="M651.422 352.353H622.079V381.659H651.422V352.353Z" stroke="#E2E7F0" stroke-width="1.5"/>
<path d="M680.765 352.353H651.422V381.659H680.765V352.353Z" stroke="#E2E7F0" stroke-width="1.5"/>
<path d="M710.109 352.353H680.765V381.659H710.109V352.353Z" stroke="#E2E7F0" stroke-width="1.5"/>
<path d="M739.452 352.353H710.109V381.659H739.452V352.353Z" fill="#E2E7F0" fill-opacity="0.3" stroke="#E2E7F0" stroke-width="1.5"/>
<path d="M768.795 352.353H739.452V381.659H768.795V352.353Z" stroke="#E2E7F0" stroke-width="1.5"/>
<path d="M798.138 352.353H768.795V381.659H798.138V352.353Z" stroke="#E2E7F0" stroke-width="1.5"/>
<path d="M827.482 352.353H798.139V381.659H827.482V352.353Z" stroke="#E2E7F0" stroke-width="1.5"/>
<path d="M856.825 352.353H827.482V381.659H856.825V352.353Z" stroke="#E2E7F0" stroke-width="1.5"/>
<path d="M886.168 352.353H856.825V381.659H886.168V352.353Z" stroke="#E2E7F0" stroke-width="1.5"/>
<path d="M915.512 352.353H886.168V381.659H915.512V352.353Z" stroke="#E2E7F0" stroke-width="1.5"/>
<path d="M944.855 352.353H915.512V381.659H944.855V352.353Z" stroke="#E2E7F0" stroke-width="1.5"/>
<path d="M974.199 352.353H944.855V381.659H974.199V352.353Z" stroke="#E2E7F0" stroke-width="1.5"/>
<path d="M1003.54 352.353H974.198V381.659H1003.54V352.353Z" stroke="#E2E7F0" stroke-width="1.5"/>
<path d="M1032.89 352.353H1003.54V381.659H1032.89V352.353Z" stroke="#E2E7F0" stroke-width="1.5"/>
<path d="M1062.23 352.353H1032.89V381.659H1062.23V352.353Z" stroke="#E2E7F0" stroke-width="1.5"/>
<path d="M1091.57 352.353H1062.23V381.659H1091.57V352.353Z" stroke="#E2E7F0" stroke-width="1.5"/>
<path d="M5.86866 381.659H-23.4747V410.965H5.86866V381.659Z" stroke="#E2E7F0" stroke-width="1.5"/>
<path d="M35.212 381.659H5.86866V410.965H35.212V381.659Z" stroke="#E2E7F0" stroke-width="1.5"/>
<path d="M64.5553 381.659H35.212V410.965H64.5553V381.659Z" stroke="#E2E7F0" stroke-width="1.5"/>
<path d="M93.8986 381.659H64.5553V410.965H93.8986V381.659Z" stroke="#E2E7F0" stroke-width="1.5"/>
<path d="M123.242 381.659H93.8986V410.965H123.242V381.659Z" stroke="#E2E7F0" stroke-width="1.5"/>
<path d="M152.585 381.659H123.242V410.965H152.585V381.659Z" fill="#E2E7F0" fill-opacity="0.3" stroke="#E2E7F0" stroke-width="1.5"/>
<path d="M181.929 381.659H152.585V410.965H181.929V381.659Z" stroke="#E2E7F0" stroke-width="1.5"/>
<path d="M211.272 381.659H181.929V410.965H211.272V381.659Z" stroke="#E2E7F0" stroke-width="1.5"/>
<path d="M240.615 381.659H211.272V410.965H240.615V381.659Z" stroke="#E2E7F0" stroke-width="1.5"/>
<path d="M269.959 381.659H240.615V410.965H269.959V381.659Z" stroke="#E2E7F0" stroke-width="1.5"/>
<path d="M299.302 381.659H269.959V410.965H299.302V381.659Z" stroke="#E2E7F0" stroke-width="1.5"/>
<path d="M328.645 381.659H299.302V410.965H328.645V381.659Z" stroke="#E2E7F0" stroke-width="1.5"/>
<path d="M357.989 381.659H328.645V410.965H357.989V381.659Z" stroke="#E2E7F0" stroke-width="1.5"/>
<path d="M387.332 381.659H357.989V410.965H387.332V381.659Z" stroke="#E2E7F0" stroke-width="1.5"/>
<path d="M416.675 381.659H387.332V410.965H416.675V381.659Z" stroke="#E2E7F0" stroke-width="1.5"/>
<path d="M446.019 381.659H416.675V410.965H446.019V381.659Z" stroke="#E2E7F0" stroke-width="1.5"/>
<path d="M475.362 381.659H446.019V410.965H475.362V381.659Z" stroke="#E2E7F0" stroke-width="1.5"/>
<path d="M504.705 381.659H475.362V410.965H504.705V381.659Z" stroke="#E2E7F0" stroke-width="1.5"/>
<path d="M534.049 381.659H504.705V410.965H534.049V381.659Z" stroke="#E2E7F0" stroke-width="1.5"/>
<path d="M563.392 381.659H534.049V410.965H563.392V381.659Z" stroke="#E2E7F0" stroke-width="1.5"/>
<path d="M592.735 381.659H563.392V410.965H592.735V381.659Z" stroke="#E2E7F0" stroke-width="1.5"/>
<path d="M622.078 381.659H592.735V410.965H622.078V381.659Z" stroke="#E2E7F0" stroke-width="1.5"/>
<path d="M651.422 381.659H622.079V410.965H651.422V381.659Z" stroke="#E2E7F0" stroke-width="1.5"/>
<path d="M680.765 381.659H651.422V410.965H680.765V381.659Z" stroke="#E2E7F0" stroke-width="1.5"/>
<path d="M710.109 381.659H680.765V410.965H710.109V381.659Z" stroke="#E2E7F0" stroke-width="1.5"/>
<path d="M739.452 381.659H710.109V410.965H739.452V381.659Z" stroke="#E2E7F0" stroke-width="1.5"/>
<path d="M768.795 381.659H739.452V410.965H768.795V381.659Z" stroke="#E2E7F0" stroke-width="1.5"/>
<path d="M798.138 381.659H768.795V410.965H798.138V381.659Z" stroke="#E2E7F0" stroke-width="1.5"/>
<path d="M827.482 381.659H798.139V410.965H827.482V381.659Z" stroke="#E2E7F0" stroke-width="1.5"/>
<path d="M856.825 381.659H827.482V410.965H856.825V381.659Z" stroke="#E2E7F0" stroke-width="1.5"/>
<path d="M886.168 381.659H856.825V410.965H886.168V381.659Z" stroke="#E2E7F0" stroke-width="1.5"/>
<path d="M915.512 381.659H886.168V410.965H915.512V381.659Z" stroke="#E2E7F0" stroke-width="1.5"/>
<path d="M944.855 381.659H915.512V410.965H944.855V381.659Z" stroke="#E2E7F0" stroke-width="1.5"/>
<path d="M974.199 381.659H944.855V410.965H974.199V381.659Z" stroke="#E2E7F0" stroke-width="1.5"/>
<path d="M1003.54 381.659H974.198V410.965H1003.54V381.659Z" stroke="#E2E7F0" stroke-width="1.5"/>
<path d="M1032.89 381.659H1003.54V410.965H1032.89V381.659Z" stroke="#E2E7F0" stroke-width="1.5"/>
<path d="M1062.23 381.659H1032.89V410.965H1062.23V381.659Z" stroke="#E2E7F0" stroke-width="1.5"/>
<path d="M1091.57 381.659H1062.23V410.965H1091.57V381.659Z" stroke="#E2E7F0" stroke-width="1.5"/>
</g>
<path d="M1069 0H0V477.919H1069V0Z" fill="url(#paint1_radial_50_348)" fill-opacity="0.2"/>
</g>
</g>
<path d="M80.8038 351.825L72.2385 337.016C71.8458 336.336 70.878 335.779 70.0878 335.779H64.7403C63.4974 335.779 62.9878 334.904 63.6078 333.835L66.5403 328.778C66.773 328.377 66.7725 327.883 66.539 327.482C66.3054 327.081 65.8743 326.834 65.4078 326.834H57.948C57.1578 326.834 56.1878 327.39 55.7923 328.069L41.2967 352.965C40.9013 353.644 40.901 354.756 41.2962 355.435L45.026 361.847C45.6475 362.916 46.6666 362.917 47.2907 361.85L50.2052 356.868C50.8293 355.801 51.8485 355.803 52.4699 356.871L55.1121 361.413C55.5072 362.093 56.4769 362.648 57.2671 362.648H74.505C75.2953 362.648 76.265 362.093 76.6601 361.413L80.7995 354.297C81.1946 353.618 81.1965 352.505 80.8038 351.825ZM69.2364 351.112C69.8539 352.183 69.3423 353.059 68.0994 353.059H54.6911C53.4482 353.059 52.9397 352.184 53.5611 351.116L60.2706 339.581C60.892 338.513 61.9089 338.513 62.5303 339.581L69.2364 351.112Z" fill="white"/>
<path d="M122.155 352.074L112.353 342.281L113.964 340.662L123.765 350.463L122.155 352.074ZM113.964 352.074L112.353 350.463L122.155 340.662L123.765 342.281L113.964 352.074Z" fill="white"/>
<path d="M329.54 181.137C327.035 181.137 324.819 180.728 322.893 179.909C320.984 179.074 319.484 177.813 318.393 176.125C317.302 174.438 316.756 172.29 316.756 169.682C316.756 167.534 317.123 165.702 317.856 164.185C318.589 162.651 319.611 161.398 320.924 160.426C322.236 159.455 323.762 158.713 325.501 158.202C327.256 157.691 329.148 157.358 331.177 157.205C333.376 157.034 335.14 156.83 336.469 156.591C337.816 156.336 338.788 155.986 339.384 155.543C339.981 155.083 340.279 154.478 340.279 153.728V153.625C340.279 152.603 339.887 151.818 339.103 151.273C338.319 150.728 337.313 150.455 336.086 150.455C334.739 150.455 333.64 150.753 332.788 151.35C331.952 151.929 331.45 152.824 331.279 154.034H318.29C318.461 151.648 319.219 149.449 320.566 147.438C321.93 145.409 323.915 143.79 326.523 142.58C329.131 141.353 332.387 140.739 336.29 140.739C339.103 140.739 341.626 141.071 343.859 141.736C346.092 142.384 347.992 143.296 349.56 144.472C351.128 145.631 352.322 146.995 353.14 148.563C353.975 150.114 354.393 151.801 354.393 153.625V180.523H341.2V175H340.893C340.109 176.466 339.154 177.651 338.029 178.554C336.921 179.458 335.651 180.114 334.219 180.523C332.805 180.932 331.245 181.137 329.54 181.137ZM334.143 172.239C335.217 172.239 336.222 172.017 337.16 171.574C338.114 171.131 338.89 170.492 339.486 169.657C340.083 168.821 340.381 167.807 340.381 166.614V163.341C340.006 163.495 339.606 163.639 339.18 163.776C338.771 163.912 338.327 164.04 337.85 164.159C337.39 164.279 336.896 164.389 336.367 164.492C335.856 164.594 335.319 164.688 334.756 164.773C333.665 164.943 332.771 165.225 332.072 165.617C331.39 165.992 330.878 166.461 330.538 167.023C330.214 167.568 330.052 168.182 330.052 168.864C330.052 169.955 330.435 170.79 331.202 171.37C331.969 171.949 332.95 172.239 334.143 172.239ZM373.307 141.25L379.034 153.421L385.068 141.25H399.079L388.545 160.887L399.591 180.523H385.682L379.034 168.046L372.591 180.523H358.477L369.625 160.887L359.193 141.25H373.307ZM404.097 180.523V141.25H418.211V180.523H404.097ZM411.154 137.159C409.245 137.159 407.609 136.529 406.245 135.267C404.881 134.006 404.2 132.489 404.2 130.716C404.2 128.943 404.881 127.426 406.245 126.165C407.609 124.904 409.245 124.273 411.154 124.273C413.08 124.273 414.717 124.904 416.063 126.165C417.427 127.426 418.109 128.943 418.109 130.716C418.109 132.489 417.427 134.006 416.063 135.267C414.717 136.529 413.08 137.159 411.154 137.159ZM444.322 181.239C440.061 181.239 436.413 180.395 433.379 178.708C430.345 177.003 428.018 174.634 426.399 171.6C424.78 168.549 423.97 165.012 423.97 160.989C423.97 156.966 424.78 153.438 426.399 150.404C428.018 147.353 430.345 144.983 433.379 143.296C436.413 141.591 440.061 140.739 444.322 140.739C448.584 140.739 452.231 141.591 455.266 143.296C458.3 144.983 460.626 147.353 462.246 150.404C463.865 153.438 464.675 156.966 464.675 160.989C464.675 165.012 463.865 168.549 462.246 171.6C460.626 174.634 458.3 177.003 455.266 178.708C452.231 180.395 448.584 181.239 444.322 181.239ZM444.425 170.807C445.618 170.807 446.649 170.407 447.518 169.605C448.388 168.804 449.061 167.662 449.538 166.179C450.016 164.696 450.254 162.932 450.254 160.887C450.254 158.824 450.016 157.06 449.538 155.594C449.061 154.111 448.388 152.969 447.518 152.168C446.649 151.367 445.618 150.966 444.425 150.966C443.163 150.966 442.081 151.367 441.178 152.168C440.274 152.969 439.584 154.111 439.106 155.594C438.629 157.06 438.391 158.824 438.391 160.887C438.391 162.932 438.629 164.696 439.106 166.179C439.584 167.662 440.274 168.804 441.178 169.605C442.081 170.407 443.163 170.807 444.425 170.807ZM470.402 180.523V141.25H483.8V148.716H484.209C485.027 146.262 486.425 144.318 488.402 142.887C490.379 141.455 492.731 140.739 495.459 140.739C498.22 140.739 500.598 141.472 502.592 142.938C504.587 144.387 505.788 146.313 506.197 148.716H506.606C507.271 146.313 508.686 144.387 510.851 142.938C513.016 141.472 515.555 140.739 518.47 140.739C522.237 140.739 525.288 141.949 527.624 144.37C529.976 146.79 531.152 150.012 531.152 154.034V180.523H517.038V157.614C517.038 155.892 516.604 154.546 515.734 153.574C514.865 152.586 513.697 152.091 512.231 152.091C510.783 152.091 509.632 152.586 508.78 153.574C507.945 154.546 507.527 155.892 507.527 157.614V180.523H494.027V157.614C494.027 155.892 493.592 154.546 492.723 153.574C491.854 152.586 490.686 152.091 489.22 152.091C488.249 152.091 487.413 152.313 486.714 152.756C486.016 153.199 485.47 153.838 485.078 154.674C484.703 155.492 484.516 156.472 484.516 157.614V180.523H470.402ZM563.886 154.341V164.978H539.34V154.341H563.886ZM586.398 158.432V180.523H572.285V141.25H585.682V148.716H586.092C586.944 146.228 588.444 144.276 590.592 142.861C592.756 141.446 595.279 140.739 598.16 140.739C600.938 140.739 603.35 141.378 605.396 142.657C607.458 143.918 609.052 145.657 610.177 147.872C611.319 150.088 611.881 152.62 611.864 155.466V180.523H597.751V158.432C597.768 156.489 597.273 154.963 596.268 153.855C595.279 152.747 593.898 152.193 592.126 152.193C590.967 152.193 589.952 152.449 589.083 152.961C588.231 153.455 587.575 154.171 587.114 155.108C586.654 156.029 586.415 157.137 586.398 158.432ZM637.752 181.239C633.491 181.239 629.843 180.395 626.809 178.708C623.775 177.003 621.448 174.634 619.829 171.6C618.209 168.549 617.4 165.012 617.4 160.989C617.4 156.966 618.209 153.438 619.829 150.404C621.448 147.353 623.775 144.983 626.809 143.296C629.843 141.591 633.491 140.739 637.752 140.739C642.013 140.739 645.661 141.591 648.695 143.296C651.729 144.983 654.056 147.353 655.675 150.404C657.295 153.438 658.104 156.966 658.104 160.989C658.104 165.012 657.295 168.549 655.675 171.6C654.056 174.634 651.729 177.003 648.695 178.708C645.661 180.395 642.013 181.239 637.752 181.239ZM637.854 170.807C639.048 170.807 640.079 170.407 640.948 169.605C641.817 168.804 642.491 167.662 642.968 166.179C643.445 164.696 643.684 162.932 643.684 160.887C643.684 158.824 643.445 157.06 642.968 155.594C642.491 154.111 641.817 152.969 640.948 152.168C640.079 151.367 639.048 150.966 637.854 150.966C636.593 150.966 635.511 151.367 634.607 152.168C633.704 152.969 633.013 154.111 632.536 155.594C632.059 157.06 631.82 158.824 631.82 160.887C631.82 162.932 632.059 164.696 632.536 166.179C633.013 167.662 633.704 168.804 634.607 169.605C635.511 170.407 636.593 170.807 637.854 170.807ZM678.048 181.034C675.252 181.034 672.678 180.301 670.326 178.836C667.991 177.37 666.116 175.145 664.701 172.162C663.303 169.179 662.604 165.421 662.604 160.887C662.604 156.148 663.337 152.296 664.803 149.33C666.286 146.364 668.195 144.191 670.53 142.81C672.883 141.429 675.354 140.739 677.945 140.739C679.888 140.739 681.593 141.08 683.059 141.762C684.525 142.426 685.752 143.321 686.741 144.446C687.729 145.554 688.479 146.773 688.991 148.103H689.195V128.159H703.309V180.523H689.298V174.08H688.991C688.445 175.409 687.661 176.603 686.638 177.659C685.633 178.699 684.405 179.526 682.957 180.139C681.525 180.736 679.888 181.034 678.048 181.034ZM683.263 170.193C684.559 170.193 685.667 169.818 686.587 169.068C687.525 168.301 688.241 167.228 688.735 165.847C689.246 164.449 689.502 162.796 689.502 160.887C689.502 158.943 689.246 157.282 688.735 155.901C688.241 154.503 687.525 153.438 686.587 152.705C685.667 151.955 684.559 151.58 683.263 151.58C681.968 151.58 680.86 151.955 679.94 152.705C679.036 153.438 678.337 154.503 677.843 155.901C677.366 157.282 677.127 158.943 677.127 160.887C677.127 162.83 677.366 164.5 677.843 165.898C678.337 167.279 679.036 168.344 679.94 169.094C680.86 169.827 681.968 170.193 683.263 170.193ZM729.056 181.239C724.863 181.239 721.249 180.438 718.215 178.836C715.198 177.216 712.871 174.898 711.235 171.881C709.616 168.847 708.806 165.216 708.806 160.989C708.806 156.932 709.624 153.387 711.261 150.353C712.897 147.318 715.207 144.958 718.19 143.27C721.173 141.583 724.692 140.739 728.749 140.739C731.715 140.739 734.4 141.199 736.803 142.12C739.207 143.04 741.261 144.378 742.965 146.134C744.67 147.872 745.982 149.986 746.903 152.475C747.823 154.963 748.283 157.767 748.283 160.887V164.159H713.204V156.387H735.295C735.278 155.262 734.988 154.273 734.425 153.421C733.88 152.551 733.138 151.878 732.201 151.401C731.28 150.907 730.232 150.659 729.056 150.659C727.914 150.659 726.866 150.907 725.911 151.401C724.957 151.878 724.19 152.543 723.61 153.395C723.048 154.247 722.749 155.245 722.715 156.387V164.773C722.715 166.034 722.979 167.159 723.508 168.148C724.036 169.137 724.795 169.912 725.783 170.475C726.772 171.037 727.965 171.318 729.363 171.318C730.334 171.318 731.221 171.182 732.022 170.909C732.84 170.637 733.539 170.245 734.119 169.733C734.698 169.205 735.124 168.574 735.397 167.841H748.283C747.84 170.568 746.792 172.938 745.138 174.949C743.485 176.943 741.295 178.495 738.567 179.603C735.857 180.693 732.687 181.239 729.056 181.239Z" fill="url(#paint2_linear_50_348)"/>
<path d="M264.481 222.196V219.545H278.407V222.196H273.012V237H269.876V222.196H264.481ZM284.041 229.33V237H280.955V219.545H283.972V226.134H284.126C284.433 225.395 284.907 224.812 285.549 224.386C286.197 223.955 287.021 223.739 288.021 223.739C288.93 223.739 289.722 223.929 290.399 224.31C291.075 224.69 291.597 225.247 291.967 225.98C292.342 226.713 292.529 227.608 292.529 228.665V237H289.444V229.142C289.444 228.261 289.217 227.577 288.762 227.088C288.313 226.594 287.683 226.347 286.87 226.347C286.325 226.347 285.836 226.466 285.404 226.705C284.978 226.937 284.643 227.276 284.399 227.719C284.16 228.162 284.041 228.699 284.041 229.33ZM301.47 237.256C300.157 237.256 299.024 236.983 298.069 236.438C297.12 235.886 296.39 235.108 295.879 234.102C295.367 233.091 295.112 231.901 295.112 230.531C295.112 229.185 295.367 228.003 295.879 226.986C296.396 225.963 297.117 225.168 298.043 224.599C298.97 224.026 300.058 223.739 301.308 223.739C302.114 223.739 302.876 223.869 303.592 224.131C304.313 224.386 304.95 224.784 305.501 225.324C306.058 225.864 306.495 226.551 306.813 227.386C307.132 228.216 307.291 229.205 307.291 230.352V231.298H296.561V229.219H304.333C304.328 228.628 304.2 228.102 303.95 227.642C303.7 227.176 303.35 226.81 302.901 226.543C302.458 226.276 301.941 226.142 301.35 226.142C300.72 226.142 300.166 226.295 299.688 226.602C299.211 226.903 298.839 227.301 298.572 227.795C298.311 228.284 298.177 228.821 298.171 229.406V231.222C298.171 231.983 298.311 232.636 298.589 233.182C298.867 233.722 299.257 234.136 299.757 234.426C300.257 234.71 300.842 234.852 301.512 234.852C301.961 234.852 302.367 234.79 302.731 234.665C303.095 234.534 303.41 234.344 303.677 234.094C303.944 233.844 304.146 233.534 304.282 233.165L307.163 233.489C306.981 234.25 306.634 234.915 306.123 235.483C305.617 236.045 304.97 236.483 304.18 236.795C303.39 237.102 302.487 237.256 301.47 237.256ZM321.564 237.256C320.286 237.256 319.178 236.974 318.24 236.412C317.303 235.849 316.575 235.062 316.058 234.051C315.547 233.04 315.291 231.858 315.291 230.506C315.291 229.153 315.547 227.969 316.058 226.952C316.575 225.935 317.303 225.145 318.24 224.582C319.178 224.02 320.286 223.739 321.564 223.739C322.842 223.739 323.95 224.02 324.888 224.582C325.825 225.145 326.55 225.935 327.061 226.952C327.578 227.969 327.837 229.153 327.837 230.506C327.837 231.858 327.578 233.04 327.061 234.051C326.55 235.062 325.825 235.849 324.888 236.412C323.95 236.974 322.842 237.256 321.564 237.256ZM321.581 234.784C322.274 234.784 322.854 234.594 323.32 234.213C323.786 233.827 324.132 233.31 324.36 232.662C324.592 232.014 324.709 231.293 324.709 230.497C324.709 229.696 324.592 228.972 324.36 228.324C324.132 227.67 323.786 227.151 323.32 226.764C322.854 226.378 322.274 226.185 321.581 226.185C320.871 226.185 320.28 226.378 319.808 226.764C319.342 227.151 318.993 227.67 318.76 228.324C318.533 228.972 318.419 229.696 318.419 230.497C318.419 231.293 318.533 232.014 318.76 232.662C318.993 233.31 319.342 233.827 319.808 234.213C320.28 234.594 320.871 234.784 321.581 234.784ZM337.086 223.909V226.295H329.347V223.909H337.086ZM331.282 237V222.673C331.282 221.793 331.464 221.06 331.828 220.474C332.197 219.889 332.691 219.452 333.311 219.162C333.93 218.872 334.617 218.727 335.373 218.727C335.907 218.727 336.382 218.77 336.796 218.855C337.211 218.94 337.518 219.017 337.717 219.085L337.103 221.472C336.972 221.432 336.808 221.392 336.609 221.352C336.41 221.307 336.188 221.284 335.944 221.284C335.37 221.284 334.964 221.423 334.725 221.702C334.492 221.974 334.376 222.366 334.376 222.878V237H331.282ZM346.133 223.909V226.295H338.394V223.909H346.133ZM340.329 237V222.673C340.329 221.793 340.511 221.06 340.874 220.474C341.244 219.889 341.738 219.452 342.357 219.162C342.977 218.872 343.664 218.727 344.42 218.727C344.954 218.727 345.428 218.77 345.843 218.855C346.258 218.94 346.565 219.017 346.764 219.085L346.15 221.472C346.019 221.432 345.855 221.392 345.656 221.352C345.457 221.307 345.235 221.284 344.991 221.284C344.417 221.284 344.011 221.423 343.772 221.702C343.539 221.974 343.423 222.366 343.423 222.878V237H340.329ZM348.549 237V223.909H351.634V237H348.549ZM350.1 222.051C349.612 222.051 349.191 221.889 348.839 221.565C348.487 221.236 348.311 220.841 348.311 220.381C348.311 219.915 348.487 219.52 348.839 219.196C349.191 218.866 349.612 218.702 350.1 218.702C350.595 218.702 351.015 218.866 351.362 219.196C351.714 219.52 351.89 219.915 351.89 220.381C351.89 220.841 351.714 221.236 351.362 221.565C351.015 221.889 350.595 222.051 350.1 222.051ZM360.517 237.256C359.21 237.256 358.088 236.969 357.151 236.395C356.219 235.821 355.5 235.028 354.994 234.017C354.494 233 354.244 231.83 354.244 230.506C354.244 229.176 354.5 228.003 355.012 226.986C355.523 225.963 356.244 225.168 357.176 224.599C358.114 224.026 359.222 223.739 360.5 223.739C361.563 223.739 362.503 223.935 363.321 224.327C364.145 224.713 364.801 225.261 365.29 225.972C365.779 226.676 366.057 227.5 366.125 228.443H363.176C363.057 227.812 362.773 227.287 362.324 226.866C361.881 226.44 361.287 226.227 360.543 226.227C359.912 226.227 359.358 226.398 358.881 226.739C358.404 227.074 358.031 227.557 357.764 228.188C357.503 228.818 357.372 229.574 357.372 230.455C357.372 231.347 357.503 232.114 357.764 232.756C358.026 233.392 358.392 233.884 358.864 234.23C359.341 234.571 359.901 234.741 360.543 234.741C360.997 234.741 361.404 234.656 361.762 234.486C362.125 234.31 362.429 234.057 362.673 233.727C362.918 233.398 363.085 232.997 363.176 232.526H366.125C366.051 233.452 365.779 234.273 365.307 234.989C364.835 235.699 364.193 236.256 363.381 236.659C362.568 237.057 361.614 237.256 360.517 237.256ZM368.659 237V223.909H371.744V237H368.659ZM370.21 222.051C369.721 222.051 369.301 221.889 368.948 221.565C368.596 221.236 368.42 220.841 368.42 220.381C368.42 219.915 368.596 219.52 368.948 219.196C369.301 218.866 369.721 218.702 370.21 218.702C370.704 218.702 371.124 218.866 371.471 219.196C371.823 219.52 371.999 219.915 371.999 220.381C371.999 220.841 371.823 221.236 371.471 221.565C371.124 221.889 370.704 222.051 370.21 222.051ZM378.683 237.264C377.854 237.264 377.107 237.116 376.442 236.821C375.783 236.52 375.26 236.077 374.874 235.491C374.493 234.906 374.303 234.185 374.303 233.327C374.303 232.588 374.439 231.977 374.712 231.494C374.985 231.011 375.357 230.625 375.828 230.335C376.3 230.045 376.831 229.827 377.422 229.679C378.019 229.526 378.635 229.415 379.271 229.347C380.039 229.267 380.661 229.196 381.138 229.134C381.615 229.065 381.962 228.963 382.178 228.827C382.399 228.685 382.51 228.466 382.51 228.17V228.119C382.51 227.477 382.32 226.98 381.939 226.628C381.558 226.276 381.01 226.099 380.294 226.099C379.539 226.099 378.939 226.264 378.496 226.594C378.058 226.923 377.763 227.312 377.61 227.761L374.729 227.352C374.956 226.557 375.331 225.892 375.854 225.358C376.377 224.818 377.016 224.415 377.771 224.148C378.527 223.875 379.362 223.739 380.277 223.739C380.908 223.739 381.536 223.812 382.161 223.96C382.786 224.108 383.357 224.352 383.874 224.693C384.391 225.028 384.806 225.486 385.118 226.065C385.436 226.645 385.595 227.369 385.595 228.239V237H382.629V235.202H382.527C382.34 235.565 382.075 235.906 381.735 236.224C381.399 236.537 380.976 236.79 380.465 236.983C379.959 237.17 379.365 237.264 378.683 237.264ZM379.485 234.997C380.104 234.997 380.641 234.875 381.095 234.631C381.55 234.381 381.899 234.051 382.144 233.642C382.394 233.233 382.519 232.787 382.519 232.304V230.761C382.422 230.841 382.257 230.915 382.024 230.983C381.797 231.051 381.541 231.111 381.257 231.162C380.973 231.213 380.692 231.259 380.414 231.298C380.135 231.338 379.894 231.372 379.689 231.401C379.229 231.463 378.817 231.565 378.453 231.707C378.09 231.849 377.803 232.048 377.592 232.304C377.382 232.554 377.277 232.878 377.277 233.276C377.277 233.844 377.485 234.273 377.899 234.562C378.314 234.852 378.842 234.997 379.485 234.997ZM391.783 219.545V237H388.698V219.545H391.783ZM415.389 219.545V237H412.576L404.352 225.111H404.207V237H401.045V219.545H403.874L412.09 231.443H412.244V219.545H415.389ZM424.408 237.256C423.129 237.256 422.021 236.974 421.084 236.412C420.146 235.849 419.419 235.062 418.902 234.051C418.391 233.04 418.135 231.858 418.135 230.506C418.135 229.153 418.391 227.969 418.902 226.952C419.419 225.935 420.146 225.145 421.084 224.582C422.021 224.02 423.129 223.739 424.408 223.739C425.686 223.739 426.794 224.02 427.732 224.582C428.669 225.145 429.394 225.935 429.905 226.952C430.422 227.969 430.681 229.153 430.681 230.506C430.681 231.858 430.422 233.04 429.905 234.051C429.394 235.062 428.669 235.849 427.732 236.412C426.794 236.974 425.686 237.256 424.408 237.256ZM424.425 234.784C425.118 234.784 425.698 234.594 426.164 234.213C426.629 233.827 426.976 233.31 427.203 232.662C427.436 232.014 427.553 231.293 427.553 230.497C427.553 229.696 427.436 228.972 427.203 228.324C426.976 227.67 426.629 227.151 426.164 226.764C425.698 226.378 425.118 226.185 424.425 226.185C423.715 226.185 423.124 226.378 422.652 226.764C422.186 227.151 421.837 227.67 421.604 228.324C421.377 228.972 421.263 229.696 421.263 230.497C421.263 231.293 421.377 232.014 421.604 232.662C421.837 233.31 422.186 233.827 422.652 234.213C423.124 234.594 423.715 234.784 424.425 234.784ZM438.157 237.23C437.129 237.23 436.208 236.966 435.396 236.438C434.583 235.909 433.941 235.142 433.47 234.136C432.998 233.131 432.762 231.909 432.762 230.472C432.762 229.017 433.001 227.79 433.478 226.79C433.961 225.784 434.612 225.026 435.43 224.514C436.248 223.997 437.16 223.739 438.166 223.739C438.933 223.739 439.563 223.869 440.058 224.131C440.552 224.386 440.944 224.696 441.234 225.06C441.524 225.418 441.748 225.756 441.907 226.074H442.035V219.545H445.129V237H442.095V234.938H441.907C441.748 235.256 441.518 235.594 441.217 235.952C440.916 236.304 440.518 236.605 440.024 236.855C439.529 237.105 438.907 237.23 438.157 237.23ZM439.018 234.699C439.671 234.699 440.228 234.523 440.688 234.17C441.149 233.812 441.498 233.315 441.737 232.679C441.975 232.043 442.095 231.301 442.095 230.455C442.095 229.608 441.975 228.872 441.737 228.247C441.504 227.622 441.157 227.136 440.697 226.79C440.242 226.443 439.683 226.27 439.018 226.27C438.33 226.27 437.757 226.449 437.296 226.807C436.836 227.165 436.489 227.659 436.257 228.29C436.024 228.92 435.907 229.642 435.907 230.455C435.907 231.273 436.024 232.003 436.257 232.645C436.495 233.281 436.845 233.784 437.305 234.153C437.771 234.517 438.342 234.699 439.018 234.699ZM454.212 237.256C452.899 237.256 451.766 236.983 450.811 236.438C449.862 235.886 449.132 235.108 448.621 234.102C448.11 233.091 447.854 231.901 447.854 230.531C447.854 229.185 448.11 228.003 448.621 226.986C449.138 225.963 449.86 225.168 450.786 224.599C451.712 224.026 452.8 223.739 454.05 223.739C454.857 223.739 455.618 223.869 456.334 224.131C457.056 224.386 457.692 224.784 458.243 225.324C458.8 225.864 459.237 226.551 459.556 227.386C459.874 228.216 460.033 229.205 460.033 230.352V231.298H449.303V229.219H457.075C457.07 228.628 456.942 228.102 456.692 227.642C456.442 227.176 456.092 226.81 455.644 226.543C455.2 226.276 454.683 226.142 454.092 226.142C453.462 226.142 452.908 226.295 452.431 226.602C451.953 226.903 451.581 227.301 451.314 227.795C451.053 228.284 450.919 228.821 450.914 229.406V231.222C450.914 231.983 451.053 232.636 451.331 233.182C451.61 233.722 451.999 234.136 452.499 234.426C452.999 234.71 453.584 234.852 454.254 234.852C454.703 234.852 455.11 234.79 455.473 234.665C455.837 234.534 456.152 234.344 456.419 234.094C456.686 233.844 456.888 233.534 457.024 233.165L459.905 233.489C459.723 234.25 459.377 234.915 458.865 235.483C458.36 236.045 457.712 236.483 456.922 236.795C456.132 237.102 455.229 237.256 454.212 237.256ZM469.666 219.545H472.802V231.818C472.796 232.943 472.558 233.912 472.086 234.724C471.614 235.531 470.955 236.153 470.109 236.591C469.268 237.023 468.288 237.239 467.168 237.239C466.146 237.239 465.225 237.057 464.407 236.693C463.595 236.324 462.95 235.778 462.472 235.057C461.995 234.335 461.757 233.437 461.757 232.364H464.901C464.907 232.835 465.009 233.241 465.208 233.582C465.413 233.923 465.694 234.185 466.052 234.366C466.41 234.548 466.822 234.639 467.288 234.639C467.793 234.639 468.222 234.534 468.575 234.324C468.927 234.108 469.194 233.79 469.376 233.369C469.563 232.949 469.66 232.432 469.666 231.818V219.545ZM485.718 224.344C485.639 223.599 485.303 223.02 484.713 222.605C484.127 222.19 483.366 221.983 482.428 221.983C481.769 221.983 481.204 222.082 480.732 222.281C480.261 222.48 479.9 222.75 479.65 223.091C479.4 223.432 479.272 223.821 479.266 224.259C479.266 224.622 479.349 224.937 479.514 225.205C479.684 225.472 479.914 225.699 480.204 225.886C480.494 226.068 480.815 226.222 481.167 226.347C481.519 226.472 481.874 226.577 482.232 226.662L483.869 227.071C484.528 227.224 485.161 227.432 485.769 227.693C486.383 227.955 486.931 228.284 487.414 228.682C487.903 229.08 488.289 229.56 488.573 230.122C488.857 230.685 488.999 231.344 488.999 232.099C488.999 233.122 488.738 234.023 488.215 234.801C487.693 235.574 486.937 236.179 485.948 236.616C484.965 237.048 483.775 237.264 482.377 237.264C481.019 237.264 479.84 237.054 478.84 236.634C477.846 236.213 477.068 235.599 476.505 234.793C475.948 233.986 475.647 233.003 475.602 231.844H478.713C478.758 232.452 478.945 232.957 479.275 233.361C479.605 233.764 480.034 234.065 480.562 234.264C481.096 234.463 481.693 234.562 482.352 234.562C483.039 234.562 483.641 234.46 484.159 234.256C484.681 234.045 485.09 233.756 485.386 233.386C485.681 233.011 485.832 232.574 485.838 232.074C485.832 231.619 485.698 231.244 485.437 230.949C485.176 230.648 484.809 230.398 484.338 230.199C483.872 229.994 483.326 229.812 482.701 229.653L480.715 229.142C479.278 228.773 478.141 228.213 477.306 227.463C476.477 226.707 476.062 225.705 476.062 224.455C476.062 223.426 476.34 222.526 476.897 221.753C477.46 220.98 478.224 220.381 479.19 219.955C480.156 219.523 481.249 219.307 482.471 219.307C483.71 219.307 484.795 219.523 485.727 219.955C486.664 220.381 487.4 220.974 487.934 221.736C488.468 222.491 488.744 223.361 488.761 224.344H485.718ZM497.771 237V219.545H500.857V226.074H500.985C501.144 225.756 501.368 225.418 501.658 225.06C501.948 224.696 502.34 224.386 502.834 224.131C503.328 223.869 503.959 223.739 504.726 223.739C505.737 223.739 506.649 223.997 507.462 224.514C508.28 225.026 508.928 225.784 509.405 226.79C509.888 227.79 510.129 229.017 510.129 230.472C510.129 231.909 509.894 233.131 509.422 234.136C508.95 235.142 508.308 235.909 507.496 236.438C506.683 236.966 505.763 237.23 504.735 237.23C503.985 237.23 503.362 237.105 502.868 236.855C502.374 236.605 501.976 236.304 501.675 235.952C501.379 235.594 501.149 235.256 500.985 234.938H500.806V237H497.771ZM500.797 230.455C500.797 231.301 500.916 232.043 501.155 232.679C501.399 233.315 501.749 233.812 502.203 234.17C502.664 234.523 503.22 234.699 503.874 234.699C504.556 234.699 505.127 234.517 505.587 234.153C506.047 233.784 506.394 233.281 506.627 232.645C506.865 232.003 506.985 231.273 506.985 230.455C506.985 229.642 506.868 228.92 506.635 228.29C506.402 227.659 506.056 227.165 505.595 226.807C505.135 226.449 504.561 226.27 503.874 226.27C503.215 226.27 502.655 226.443 502.195 226.79C501.735 227.136 501.385 227.622 501.146 228.247C500.914 228.872 500.797 229.608 500.797 230.455ZM512.752 237V223.909H515.838V237H512.752ZM514.303 222.051C513.815 222.051 513.394 221.889 513.042 221.565C512.69 221.236 512.514 220.841 512.514 220.381C512.514 219.915 512.69 219.52 513.042 219.196C513.394 218.866 513.815 218.702 514.303 218.702C514.798 218.702 515.218 218.866 515.565 219.196C515.917 219.52 516.093 219.915 516.093 220.381C516.093 220.841 515.917 221.236 515.565 221.565C515.218 221.889 514.798 222.051 514.303 222.051ZM522.095 229.33V237H519.01V223.909H521.959V226.134H522.112C522.414 225.401 522.894 224.818 523.553 224.386C524.217 223.955 525.039 223.739 526.016 223.739C526.919 223.739 527.706 223.932 528.377 224.318C529.053 224.705 529.575 225.264 529.945 225.997C530.32 226.73 530.504 227.619 530.499 228.665V237H527.414V229.142C527.414 228.267 527.186 227.582 526.732 227.088C526.283 226.594 525.661 226.347 524.865 226.347C524.325 226.347 523.845 226.466 523.425 226.705C523.01 226.937 522.683 227.276 522.445 227.719C522.212 228.162 522.095 228.699 522.095 229.33ZM538.493 237.23C537.465 237.23 536.544 236.966 535.732 236.438C534.919 235.909 534.277 235.142 533.806 234.136C533.334 233.131 533.098 231.909 533.098 230.472C533.098 229.017 533.337 227.79 533.814 226.79C534.297 225.784 534.948 225.026 535.766 224.514C536.584 223.997 537.496 223.739 538.502 223.739C539.269 223.739 539.899 223.869 540.394 224.131C540.888 224.386 541.28 224.696 541.57 225.06C541.86 225.418 542.084 225.756 542.243 226.074H542.371V219.545H545.465V237H542.431V234.938H542.243C542.084 235.256 541.854 235.594 541.553 235.952C541.252 236.304 540.854 236.605 540.36 236.855C539.865 237.105 539.243 237.23 538.493 237.23ZM539.354 234.699C540.007 234.699 540.564 234.523 541.024 234.17C541.485 233.812 541.834 233.315 542.073 232.679C542.311 232.043 542.431 231.301 542.431 230.455C542.431 229.608 542.311 228.872 542.073 228.247C541.84 227.622 541.493 227.136 541.033 226.79C540.578 226.443 540.019 226.27 539.354 226.27C538.666 226.27 538.092 226.449 537.632 226.807C537.172 227.165 536.825 227.659 536.592 228.29C536.36 228.92 536.243 229.642 536.243 230.455C536.243 231.273 536.36 232.003 536.592 232.645C536.831 233.281 537.181 233.784 537.641 234.153C538.107 234.517 538.678 234.699 539.354 234.699ZM548.752 237V223.909H551.838V237H548.752ZM550.303 222.051C549.815 222.051 549.394 221.889 549.042 221.565C548.69 221.236 548.514 220.841 548.514 220.381C548.514 219.915 548.69 219.52 549.042 219.196C549.394 218.866 549.815 218.702 550.303 218.702C550.798 218.702 551.218 218.866 551.565 219.196C551.917 219.52 552.093 219.915 552.093 220.381C552.093 220.841 551.917 221.236 551.565 221.565C551.218 221.889 550.798 222.051 550.303 222.051ZM558.095 229.33V237H555.01V223.909H557.959V226.134H558.112C558.414 225.401 558.894 224.818 559.553 224.386C560.217 223.955 561.039 223.739 562.016 223.739C562.919 223.739 563.706 223.932 564.377 224.318C565.053 224.705 565.575 225.264 565.945 225.997C566.32 226.73 566.504 227.619 566.499 228.665V237H563.414V229.142C563.414 228.267 563.186 227.582 562.732 227.088C562.283 226.594 561.661 226.347 560.865 226.347C560.325 226.347 559.845 226.466 559.425 226.705C559.01 226.937 558.683 227.276 558.445 227.719C558.212 228.162 558.095 228.699 558.095 229.33ZM575.328 242.182C574.22 242.182 573.269 242.031 572.473 241.73C571.678 241.435 571.039 241.037 570.556 240.537C570.073 240.037 569.737 239.483 569.55 238.875L572.328 238.202C572.453 238.457 572.635 238.71 572.874 238.96C573.112 239.216 573.433 239.426 573.837 239.591C574.246 239.761 574.76 239.847 575.379 239.847C576.254 239.847 576.979 239.634 577.553 239.207C578.127 238.787 578.414 238.094 578.414 237.128V234.648H578.26C578.101 234.966 577.868 235.293 577.561 235.628C577.26 235.963 576.86 236.244 576.36 236.472C575.865 236.699 575.243 236.812 574.493 236.812C573.487 236.812 572.575 236.577 571.757 236.105C570.945 235.628 570.297 234.918 569.814 233.974C569.337 233.026 569.098 231.838 569.098 230.412C569.098 228.974 569.337 227.761 569.814 226.773C570.297 225.778 570.948 225.026 571.766 224.514C572.584 223.997 573.496 223.739 574.502 223.739C575.269 223.739 575.899 223.869 576.394 224.131C576.894 224.386 577.291 224.696 577.587 225.06C577.882 225.418 578.107 225.756 578.26 226.074H578.431V223.909H581.473V237.213C581.473 238.332 581.206 239.259 580.672 239.991C580.138 240.724 579.408 241.273 578.482 241.636C577.556 242 576.504 242.182 575.328 242.182ZM575.354 234.392C576.007 234.392 576.564 234.233 577.024 233.915C577.485 233.597 577.834 233.139 578.073 232.543C578.311 231.946 578.431 231.23 578.431 230.395C578.431 229.571 578.311 228.849 578.073 228.23C577.84 227.611 577.493 227.131 577.033 226.79C576.578 226.443 576.019 226.27 575.354 226.27C574.666 226.27 574.092 226.449 573.632 226.807C573.172 227.165 572.825 227.656 572.592 228.281C572.36 228.901 572.243 229.605 572.243 230.395C572.243 231.196 572.36 231.898 572.592 232.5C572.831 233.097 573.181 233.562 573.641 233.898C574.107 234.227 574.678 234.392 575.354 234.392ZM594.982 227.369L592.169 227.676C592.09 227.392 591.95 227.125 591.752 226.875C591.558 226.625 591.297 226.423 590.967 226.27C590.638 226.116 590.235 226.04 589.757 226.04C589.115 226.04 588.575 226.179 588.138 226.457C587.706 226.736 587.493 227.097 587.499 227.54C587.493 227.92 587.632 228.23 587.916 228.469C588.206 228.707 588.683 228.903 589.348 229.057L591.581 229.534C592.82 229.801 593.74 230.224 594.342 230.804C594.95 231.384 595.257 232.142 595.263 233.08C595.257 233.903 595.016 234.631 594.539 235.261C594.067 235.886 593.411 236.375 592.57 236.727C591.729 237.08 590.763 237.256 589.672 237.256C588.07 237.256 586.78 236.92 585.803 236.25C584.825 235.574 584.243 234.634 584.056 233.429L587.064 233.139C587.2 233.73 587.49 234.176 587.933 234.477C588.377 234.778 588.953 234.929 589.664 234.929C590.396 234.929 590.985 234.778 591.428 234.477C591.877 234.176 592.101 233.804 592.101 233.361C592.101 232.986 591.956 232.676 591.666 232.432C591.382 232.187 590.939 232 590.337 231.869L588.104 231.401C586.848 231.139 585.919 230.699 585.317 230.08C584.715 229.455 584.416 228.665 584.422 227.71C584.416 226.903 584.635 226.205 585.078 225.614C585.527 225.017 586.149 224.557 586.945 224.233C587.746 223.903 588.669 223.739 589.715 223.739C591.249 223.739 592.456 224.065 593.337 224.719C594.223 225.372 594.771 226.256 594.982 227.369ZM610.391 223.909V226.295H602.652V223.909H610.391ZM604.587 237V222.673C604.587 221.793 604.769 221.06 605.132 220.474C605.502 219.889 605.996 219.452 606.615 219.162C607.235 218.872 607.922 218.727 608.678 218.727C609.212 218.727 609.686 218.77 610.101 218.855C610.516 218.94 610.823 219.017 611.021 219.085L610.408 221.472C610.277 221.432 610.112 221.392 609.914 221.352C609.715 221.307 609.493 221.284 609.249 221.284C608.675 221.284 608.269 221.423 608.03 221.702C607.797 221.974 607.681 222.366 607.681 222.878V237H604.587ZM618.025 237.256C616.747 237.256 615.639 236.974 614.701 236.412C613.764 235.849 613.036 235.062 612.519 234.051C612.008 233.04 611.752 231.858 611.752 230.506C611.752 229.153 612.008 227.969 612.519 226.952C613.036 225.935 613.764 225.145 614.701 224.582C615.639 224.02 616.747 223.739 618.025 223.739C619.303 223.739 620.411 224.02 621.349 224.582C622.286 225.145 623.011 225.935 623.522 226.952C624.039 227.969 624.298 229.153 624.298 230.506C624.298 231.858 624.039 233.04 623.522 234.051C623.011 235.062 622.286 235.849 621.349 236.412C620.411 236.974 619.303 237.256 618.025 237.256ZM618.042 234.784C618.735 234.784 619.315 234.594 619.781 234.213C620.247 233.827 620.593 233.31 620.82 232.662C621.053 232.014 621.17 231.293 621.17 230.497C621.17 229.696 621.053 228.972 620.82 228.324C620.593 227.67 620.247 227.151 619.781 226.764C619.315 226.378 618.735 226.185 618.042 226.185C617.332 226.185 616.741 226.378 616.269 226.764C615.803 227.151 615.454 227.67 615.221 228.324C614.994 228.972 614.88 229.696 614.88 230.497C614.88 231.293 614.994 232.014 615.221 232.662C615.454 233.31 615.803 233.827 616.269 234.213C616.741 234.594 617.332 234.784 618.042 234.784ZM626.916 237V223.909H629.908V226.091H630.044C630.283 225.335 630.692 224.753 631.271 224.344C631.857 223.929 632.524 223.722 633.274 223.722C633.445 223.722 633.635 223.73 633.845 223.747C634.061 223.759 634.24 223.778 634.382 223.807V226.645C634.252 226.599 634.044 226.56 633.76 226.526C633.482 226.486 633.212 226.466 632.95 226.466C632.388 226.466 631.882 226.588 631.433 226.832C630.99 227.071 630.641 227.403 630.385 227.83C630.129 228.256 630.002 228.747 630.002 229.304V237H626.916ZM648.922 223.909V226.295H641.396V223.909H648.922ZM643.254 220.773H646.34V233.062C646.34 233.477 646.402 233.795 646.527 234.017C646.658 234.233 646.828 234.381 647.039 234.46C647.249 234.54 647.482 234.58 647.737 234.58C647.931 234.58 648.107 234.565 648.266 234.537C648.431 234.509 648.556 234.483 648.641 234.46L649.161 236.872C648.996 236.929 648.76 236.991 648.453 237.06C648.152 237.128 647.783 237.168 647.345 237.179C646.573 237.202 645.877 237.085 645.257 236.83C644.638 236.568 644.146 236.165 643.783 235.619C643.425 235.074 643.249 234.392 643.254 233.574V220.773ZM654.869 229.33V237H651.784V219.545H654.801V226.134H654.954C655.261 225.395 655.735 224.812 656.377 224.386C657.025 223.955 657.849 223.739 658.849 223.739C659.758 223.739 660.551 223.929 661.227 224.31C661.903 224.69 662.426 225.247 662.795 225.98C663.17 226.713 663.357 227.608 663.357 228.665V237H660.272V229.142C660.272 228.261 660.045 227.577 659.59 227.088C659.141 226.594 658.511 226.347 657.698 226.347C657.153 226.347 656.664 226.466 656.232 226.705C655.806 226.937 655.471 227.276 655.227 227.719C654.988 228.162 654.869 228.699 654.869 229.33ZM672.298 237.256C670.985 237.256 669.852 236.983 668.897 236.438C667.948 235.886 667.218 235.108 666.707 234.102C666.195 233.091 665.94 231.901 665.94 230.531C665.94 229.185 666.195 228.003 666.707 226.986C667.224 225.963 667.945 225.168 668.872 224.599C669.798 224.026 670.886 223.739 672.136 223.739C672.943 223.739 673.704 223.869 674.42 224.131C675.141 224.386 675.778 224.784 676.329 225.324C676.886 225.864 677.323 226.551 677.641 227.386C677.96 228.216 678.119 229.205 678.119 230.352V231.298H667.389V229.219H675.161C675.156 228.628 675.028 228.102 674.778 227.642C674.528 227.176 674.178 226.81 673.73 226.543C673.286 226.276 672.769 226.142 672.178 226.142C671.548 226.142 670.994 226.295 670.516 226.602C670.039 226.903 669.667 227.301 669.4 227.795C669.139 228.284 669.005 228.821 668.999 229.406V231.222C668.999 231.983 669.139 232.636 669.417 233.182C669.695 233.722 670.085 234.136 670.585 234.426C671.085 234.71 671.67 234.852 672.34 234.852C672.789 234.852 673.195 234.79 673.559 234.665C673.923 234.534 674.238 234.344 674.505 234.094C674.772 233.844 674.974 233.534 675.11 233.165L677.991 233.489C677.809 234.25 677.463 234.915 676.951 235.483C676.445 236.045 675.798 236.483 675.008 236.795C674.218 237.102 673.315 237.256 672.298 237.256ZM689.06 237H685.685L691.83 219.545H695.733L701.887 237H698.512L693.85 223.125H693.713L689.06 237ZM689.171 230.156H698.375V232.696H689.171V230.156ZM706.572 223.909L709.214 228.741L711.899 223.909H715.163L711.217 230.455L715.231 237H711.984L709.214 232.287L706.47 237H703.197L707.186 230.455L703.299 223.909H706.572ZM717.549 237V223.909H720.634V237H717.549ZM719.1 222.051C718.612 222.051 718.191 221.889 717.839 221.565C717.487 221.236 717.311 220.841 717.311 220.381C717.311 219.915 717.487 219.52 717.839 219.196C718.191 218.866 718.612 218.702 719.1 218.702C719.595 218.702 720.015 218.866 720.362 219.196C720.714 219.52 720.89 219.915 720.89 220.381C720.89 220.841 720.714 221.236 720.362 221.565C720.015 221.889 719.595 222.051 719.1 222.051ZM729.517 237.256C728.239 237.256 727.131 236.974 726.193 236.412C725.256 235.849 724.529 235.062 724.012 234.051C723.5 233.04 723.244 231.858 723.244 230.506C723.244 229.153 723.5 227.969 724.012 226.952C724.529 225.935 725.256 225.145 726.193 224.582C727.131 224.02 728.239 223.739 729.517 223.739C730.796 223.739 731.904 224.02 732.841 224.582C733.779 225.145 734.503 225.935 735.014 226.952C735.531 227.969 735.79 229.153 735.79 230.506C735.79 231.858 735.531 233.04 735.014 234.051C734.503 235.062 733.779 235.849 732.841 236.412C731.904 236.974 730.796 237.256 729.517 237.256ZM729.534 234.784C730.227 234.784 730.807 234.594 731.273 234.213C731.739 233.827 732.085 233.31 732.313 232.662C732.546 232.014 732.662 231.293 732.662 230.497C732.662 229.696 732.546 228.972 732.313 228.324C732.085 227.67 731.739 227.151 731.273 226.764C730.807 226.378 730.227 226.185 729.534 226.185C728.824 226.185 728.233 226.378 727.762 226.764C727.296 227.151 726.946 227.67 726.713 228.324C726.486 228.972 726.372 229.696 726.372 230.497C726.372 231.293 726.486 232.014 726.713 232.662C726.946 233.31 727.296 233.827 727.762 234.213C728.233 234.594 728.824 234.784 729.534 234.784ZM738.409 237V223.909H741.357V226.134H741.511C741.784 225.384 742.235 224.798 742.866 224.378C743.497 223.952 744.249 223.739 745.124 223.739C746.011 223.739 746.758 223.955 747.366 224.386C747.98 224.812 748.411 225.395 748.661 226.134H748.798C749.088 225.406 749.576 224.827 750.264 224.395C750.957 223.957 751.778 223.739 752.727 223.739C753.931 223.739 754.914 224.119 755.676 224.881C756.437 225.642 756.818 226.753 756.818 228.213V237H753.724V228.69C753.724 227.878 753.508 227.284 753.076 226.909C752.644 226.528 752.116 226.338 751.491 226.338C750.747 226.338 750.164 226.571 749.744 227.037C749.329 227.497 749.122 228.097 749.122 228.835V237H746.096V228.562C746.096 227.886 745.891 227.347 745.482 226.943C745.079 226.54 744.551 226.338 743.897 226.338C743.454 226.338 743.051 226.452 742.687 226.679C742.323 226.901 742.034 227.216 741.818 227.625C741.602 228.028 741.494 228.5 741.494 229.04V237H738.409ZM768.279 237H764.904L771.048 219.545H774.952L781.105 237H777.73L773.068 223.125H772.932L768.279 237ZM768.389 230.156H777.594V232.696H768.389V230.156ZM783.404 237V219.545H789.95C791.291 219.545 792.416 219.795 793.325 220.295C794.239 220.795 794.93 221.483 795.396 222.358C795.867 223.227 796.103 224.216 796.103 225.324C796.103 226.443 795.867 227.437 795.396 228.307C794.924 229.176 794.228 229.861 793.308 230.361C792.387 230.855 791.254 231.102 789.907 231.102H785.569V228.503H789.481C790.265 228.503 790.907 228.366 791.407 228.094C791.907 227.821 792.276 227.446 792.515 226.969C792.759 226.491 792.882 225.943 792.882 225.324C792.882 224.705 792.759 224.159 792.515 223.688C792.276 223.216 791.904 222.849 791.399 222.588C790.899 222.321 790.254 222.188 789.464 222.188H786.566V237H783.404ZM802.012 219.545V237H798.85V219.545H802.012Z" fill="#ABB3BF"/>
<g clip-path="url(#clip2_50_348)">
<path d="M174.5 368.913C173.863 368.913 173.269 368.74 172.717 368.439L167.072 365.034C166.224 364.56 166.648 364.387 166.903 364.301C168.049 363.913 168.261 363.827 169.449 363.138C169.577 363.051 169.746 363.094 169.874 363.181L174.203 365.81C174.373 365.896 174.585 365.896 174.712 365.81L191.647 355.854C191.817 355.768 191.902 355.595 191.902 355.38V335.511C191.902 335.296 191.817 335.124 191.647 335.037L174.712 325.125C174.542 325.038 174.33 325.038 174.203 325.125L157.268 335.037C157.098 335.124 157.013 335.339 157.013 335.511V355.38C157.013 355.552 157.098 355.768 157.268 355.854L161.894 358.569C164.399 359.862 165.969 358.354 165.969 356.845V337.235C165.969 336.977 166.181 336.718 166.478 336.718H168.643C168.898 336.718 169.152 336.934 169.152 337.235V356.845C169.152 360.25 167.327 362.233 164.144 362.233C163.168 362.233 162.404 362.233 160.239 361.155L155.783 358.569C154.679 357.923 154 356.716 154 355.423V335.555C154 334.262 154.679 333.055 155.783 332.408L172.717 322.453C173.778 321.849 175.222 321.849 176.283 322.453L193.217 332.408C194.321 333.055 195 334.262 195 335.555V355.423C195 356.716 194.321 357.923 193.217 358.569L176.283 368.525C175.731 368.784 175.094 368.913 174.5 368.913ZM179.72 355.251C172.293 355.251 170.765 351.803 170.765 348.872C170.765 348.613 170.977 348.355 171.274 348.355H173.481C173.736 348.355 173.948 348.527 173.948 348.786C174.288 351.07 175.264 352.191 179.763 352.191C183.328 352.191 184.856 351.372 184.856 349.432C184.856 348.312 184.432 347.493 178.872 346.933C174.245 346.458 171.359 345.424 171.359 341.674C171.359 338.184 174.245 336.115 179.084 336.115C184.517 336.115 187.19 338.011 187.53 342.149C187.53 342.278 187.488 342.407 187.403 342.536C187.318 342.623 187.19 342.709 187.063 342.709H184.856C184.644 342.709 184.432 342.536 184.389 342.321C183.88 339.951 182.564 339.175 179.084 339.175C175.179 339.175 174.712 340.554 174.712 341.588C174.712 342.838 175.264 343.226 180.527 343.916C185.747 344.605 188.209 345.596 188.209 349.303C188.167 353.096 185.111 355.251 179.72 355.251Z" fill="white"/>
</g>
</g>
<rect x="0.786865" y="0.5" width="1065.67" height="399" stroke="white" stroke-opacity="0.1"/>
<defs>
<radialGradient id="paint0_radial_50_348" cx="0" cy="0" r="1" gradientUnits="userSpaceOnUse" gradientTransform="translate(534.5 134.358) rotate(90) scale(343.561 585.061)">
<stop stop-color="#D9D9D9"/>
<stop offset="1" stop-color="#D9D9D9" stop-opacity="0"/>
</radialGradient>
<radialGradient id="paint1_radial_50_348" cx="0" cy="0" r="1" gradientUnits="userSpaceOnUse" gradientTransform="translate(534.5 195.949) rotate(90) scale(281.97 480.176)">
<stop stop-color="#0A3FFF"/>
<stop offset="1" stop-color="#B591F9" stop-opacity="0"/>
</radialGradient>
<linearGradient id="paint2_linear_50_348" x1="385.838" y1="117.976" x2="645.195" y2="134.588" gradientUnits="userSpaceOnUse">
<stop stop-color="#BE99FF"/>
<stop offset="0.583932" stop-color="#8CBDFF"/>
<stop offset="1" stop-color="#6D7CFF"/>
</linearGradient>
<clipPath id="clip0_50_348">
<rect x="0.286865" width="1066.67" height="400" fill="white"/>
</clipPath>
<clipPath id="clip1_50_348">
<rect width="1069" height="468" fill="white"/>
</clipPath>
<clipPath id="clip2_50_348">
<rect width="41" height="47" fill="white" transform="translate(154 322)"/>
</clipPath>
</defs>
</svg>
