<svg width="1067" height="400" viewBox="0 0 1067 400" fill="none" xmlns="http://www.w3.org/2000/svg">
<g clip-path="url(#clip0_117_3)">
<rect x="0.286865" width="1066.67" height="400" fill="white"/>
<g opacity="0.66" clip-path="url(#clip1_117_3)">
<path d="M20.3835 -28.342H-8.12292V0.173374H20.3835V-28.342Z" stroke="#DDDDDD" stroke-width="1.5"/>
<path d="M48.89 -28.342H20.3835V0.173374H48.89V-28.342Z" stroke="#DDDDDD" stroke-width="1.5"/>
<path d="M77.3965 -28.342H48.89V0.173374H77.3965V-28.342Z" fill="#E2E7F0" fill-opacity="0.3" stroke="#DDDDDD" stroke-width="1.5"/>
<path d="M105.903 -28.342H77.3965V0.173374H105.903V-28.342Z" stroke="#DDDDDD" stroke-width="1.5"/>
<path d="M134.409 -28.342H105.903V0.173374H134.409V-28.342Z" stroke="#DDDDDD" stroke-width="1.5"/>
<path d="M162.916 -28.342H134.409V0.173374H162.916V-28.342Z" stroke="#DDDDDD" stroke-width="1.5"/>
<path d="M191.422 -28.342H162.916V0.173374H191.422V-28.342Z" stroke="#DDDDDD" stroke-width="1.5"/>
<path d="M219.929 -28.342H191.422V0.173374H219.929V-28.342Z" stroke="#DDDDDD" stroke-width="1.5"/>
<path d="M248.435 -28.342H219.929V0.173374H248.435V-28.342Z" fill="#E2E7F0" fill-opacity="0.3" stroke="#DDDDDD" stroke-width="1.5"/>
<path d="M276.942 -28.342H248.435V0.173374H276.942V-28.342Z" stroke="#DDDDDD" stroke-width="1.5"/>
<path d="M305.448 -28.342H276.942V0.173374H305.448V-28.342Z" stroke="#DDDDDD" stroke-width="1.5"/>
<path d="M333.955 -28.342H305.448V0.173374H333.955V-28.342Z" stroke="#DDDDDD" stroke-width="1.5"/>
<path d="M619.019 -28.342H590.513V0.173374H619.019V-28.342Z" stroke="#DDDDDD" stroke-width="1.5"/>
<path d="M647.526 -28.342H619.019V0.173374H647.526V-28.342Z" stroke="#DDDDDD" stroke-width="1.5"/>
<path d="M676.032 -28.342H647.526V0.173374H676.032V-28.342Z" stroke="#DDDDDD" stroke-width="1.5"/>
<path d="M704.539 -28.342H676.032V0.173374H704.539V-28.342Z" stroke="#DDDDDD" stroke-width="1.5"/>
<path d="M733.045 -28.342H704.539V0.173374H733.045V-28.342Z" fill="#E2E7F0" fill-opacity="0.3" stroke="#DDDDDD" stroke-width="1.5"/>
<path d="M761.552 -28.342H733.045V0.173374H761.552V-28.342Z" stroke="#DDDDDD" stroke-width="1.5"/>
<path d="M790.058 -28.342H761.552V0.173374H790.058V-28.342Z" stroke="#DDDDDD" stroke-width="1.5"/>
<path d="M818.565 -28.342H790.058V0.173374H818.565V-28.342Z" fill="#E2E7F0" fill-opacity="0.3" stroke="#DDDDDD" stroke-width="1.5"/>
<path d="M847.071 -28.342H818.565V0.173374H847.071V-28.342Z" stroke="#DDDDDD" stroke-width="1.5"/>
<path d="M875.578 -28.342H847.071V0.173374H875.578V-28.342Z" stroke="#DDDDDD" stroke-width="1.5"/>
<path d="M904.084 -28.342H875.578V0.173374H904.084V-28.342Z" stroke="#DDDDDD" stroke-width="1.5"/>
<path d="M932.591 -28.342H904.084V0.173374H932.591V-28.342Z" stroke="#DDDDDD" stroke-width="1.5"/>
<path d="M961.097 -28.342H932.591V0.173374H961.097V-28.342Z" stroke="#DDDDDD" stroke-width="1.5"/>
<path d="M989.604 -28.342H961.097V0.173374H989.604V-28.342Z" stroke="#DDDDDD" stroke-width="1.5"/>
<path d="M1018.11 -28.342H989.604V0.173374H1018.11V-28.342Z" stroke="#DDDDDD" stroke-width="1.5"/>
<path d="M1046.62 -28.342H1018.11V0.173374H1046.62V-28.342Z" stroke="#DDDDDD" stroke-width="1.5"/>
<path d="M1075.12 -28.342H1046.62V0.173374H1075.12V-28.342Z" fill="#E2E7F0" fill-opacity="0.3" stroke="#DDDDDD" stroke-width="1.5"/>
<path d="M20.3835 0.173374H-8.12292V28.6887H20.3835V0.173374Z" stroke="#DDDDDD" stroke-width="1.5"/>
<path d="M48.89 0.173374H20.3835V28.6887H48.89V0.173374Z" stroke="#DDDDDD" stroke-width="1.5"/>
<path d="M77.3965 0.173374H48.89V28.6887H77.3965V0.173374Z" stroke="#DDDDDD" stroke-width="1.5"/>
<path d="M105.903 0.173374H77.3965V28.6887H105.903V0.173374Z" stroke="#DDDDDD" stroke-width="1.5"/>
<path d="M134.409 0.173374H105.903V28.6887H134.409V0.173374Z" stroke="#DDDDDD" stroke-width="1.5"/>
<path d="M162.916 0.173374H134.409V28.6887H162.916V0.173374Z" stroke="#DDDDDD" stroke-width="1.5"/>
<path d="M191.422 0.173374H162.916V28.6887H191.422V0.173374Z" fill="#E2E7F0" fill-opacity="0.3" stroke="#DDDDDD" stroke-width="1.5"/>
<path d="M219.929 0.173374H191.422V28.6887H219.929V0.173374Z" stroke="#DDDDDD" stroke-width="1.5"/>
<path d="M333.955 0.173374H305.448V28.6887H333.955V0.173374Z" stroke="#DDDDDD" stroke-width="1.5"/>
<path d="M362.461 0.173374H333.955V28.6887H362.461V0.173374Z" stroke="#DDDDDD" stroke-width="1.5"/>
<path d="M390.968 0.173374H362.461V28.6887H390.968V0.173374Z" stroke="#DDDDDD" stroke-width="1.5"/>
<path d="M419.474 0.173374H390.968V28.6887H419.474V0.173374Z" stroke="#DDDDDD" stroke-width="1.5"/>
<path d="M447.981 0.173374H419.474V28.6887H447.981V0.173374Z" stroke="#DDDDDD" stroke-width="1.5"/>
<path d="M476.487 0.173374H447.981V28.6887H476.487V0.173374Z" stroke="#DDDDDD" stroke-width="1.5"/>
<path d="M904.084 0.173374H875.578V28.6887H904.084V0.173374Z" stroke="#DDDDDD" stroke-width="1.5"/>
<path d="M932.591 0.173374H904.084V28.6887H932.591V0.173374Z" fill="#E2E7F0" fill-opacity="0.3" stroke="#DDDDDD" stroke-width="1.5"/>
<path d="M961.097 0.173374H932.591V28.6887H961.097V0.173374Z" stroke="#DDDDDD" stroke-width="1.5"/>
<path d="M989.604 0.173374H961.097V28.6887H989.604V0.173374Z" stroke="#DDDDDD" stroke-width="1.5"/>
<path d="M1018.11 0.173374H989.604V28.6887H1018.11V0.173374Z" stroke="#DDDDDD" stroke-width="1.5"/>
<path d="M1046.62 0.173374H1018.11V28.6887H1046.62V0.173374Z" stroke="#DDDDDD" stroke-width="1.5"/>
<path d="M1075.12 0.173374H1046.62V28.6887H1075.12V0.173374Z" stroke="#DDDDDD" stroke-width="1.5"/>
<path d="M20.3835 28.6887H-8.12292V57.204H20.3835V28.6887Z" stroke="#DDDDDD" stroke-width="1.5"/>
<path d="M48.89 28.6887H20.3835V57.204H48.89V28.6887Z" stroke="#DDDDDD" stroke-width="1.5"/>
<path d="M77.3965 28.6887H48.89V57.204H77.3965V28.6887Z" stroke="#DDDDDD" stroke-width="1.5"/>
<path d="M105.903 28.6887H77.3965V57.204H105.903V28.6887Z" stroke="#DDDDDD" stroke-width="1.5"/>
<path d="M134.409 28.6887H105.903V57.204H134.409V28.6887Z" stroke="#DDDDDD" stroke-width="1.5"/>
<path d="M162.916 28.6887H134.409V57.204H162.916V28.6887Z" stroke="#DDDDDD" stroke-width="1.5"/>
<path d="M333.955 28.6887H305.448V57.204H333.955V28.6887Z" stroke="#DDDDDD" stroke-width="1.5"/>
<path d="M619.019 28.6887H590.513V57.204H619.019V28.6887Z" stroke="#DDDDDD" stroke-width="1.5"/>
<path d="M647.526 28.6887H619.019V57.204H647.526V28.6887Z" stroke="#DDDDDD" stroke-width="1.5"/>
<path d="M676.032 28.6887H647.526V57.204H676.032V28.6887Z" stroke="#DDDDDD" stroke-width="1.5"/>
<path d="M704.539 28.6887H676.032V57.204H704.539V28.6887Z" stroke="#DDDDDD" stroke-width="1.5"/>
<path d="M733.045 28.6887H704.539V57.204H733.045V28.6887Z" stroke="#DDDDDD" stroke-width="1.5"/>
<path d="M761.552 28.6887H733.045V57.204H761.552V28.6887Z" stroke="#DDDDDD" stroke-width="1.5"/>
<path d="M790.058 28.6887H761.552V57.204H790.058V28.6887Z" stroke="#DDDDDD" stroke-width="1.5"/>
<path d="M961.097 28.6887H932.591V57.204H961.097V28.6887Z" stroke="#DDDDDD" stroke-width="1.5"/>
<path d="M989.604 28.6887H961.097V57.204H989.604V28.6887Z" stroke="#DDDDDD" stroke-width="1.5"/>
<path d="M1018.11 28.6887H989.604V57.204H1018.11V28.6887Z" stroke="#DDDDDD" stroke-width="1.5"/>
<path d="M1046.62 28.6887H1018.11V57.204H1046.62V28.6887Z" stroke="#DDDDDD" stroke-width="1.5"/>
<path d="M1075.12 28.6887H1046.62V57.204H1075.12V28.6887Z" stroke="#DDDDDD" stroke-width="1.5"/>
<path d="M20.3835 57.204H-8.12292V85.7193H20.3835V57.204Z" stroke="#DDDDDD" stroke-width="1.5"/>
<path d="M48.89 57.204H20.3835V85.7193H48.89V57.204Z" stroke="#DDDDDD" stroke-width="1.5"/>
<path d="M77.3965 57.204H48.89V85.7193H77.3965V57.204Z" stroke="#DDDDDD" stroke-width="1.5"/>
<path d="M105.903 57.204H77.3965V85.7193H105.903V57.204Z" stroke="#DDDDDD" stroke-width="1.5"/>
<path d="M134.409 57.204H105.903V85.7193H134.409V57.204Z" stroke="#DDDDDD" stroke-width="1.5"/>
<path d="M162.916 57.204H134.409V85.7193H162.916V57.204Z" stroke="#DDDDDD" stroke-width="1.5"/>
<path d="M191.422 57.204H162.916V85.7193H191.422V57.204Z" stroke="#DDDDDD" stroke-width="1.5"/>
<path d="M219.929 57.204H191.422V85.7193H219.929V57.204Z" stroke="#DDDDDD" stroke-width="1.5"/>
<path d="M790.058 57.204H761.552V85.7193H790.058V57.204Z" stroke="#DDDDDD" stroke-width="1.5"/>
<path d="M847.071 57.204H818.565V85.7193H847.071V57.204Z" fill="#E2E7F0" fill-opacity="0.3" stroke="#DDDDDD" stroke-width="1.5"/>
<path d="M875.578 57.204H847.071V85.7193H875.578V57.204Z" stroke="#DDDDDD" stroke-width="1.5"/>
<path d="M904.084 57.204H875.578V85.7193H904.084V57.204Z" stroke="#DDDDDD" stroke-width="1.5"/>
<path d="M932.591 57.204H904.084V85.7193H932.591V57.204Z" stroke="#DDDDDD" stroke-width="1.5"/>
<path d="M961.097 57.204H932.591V85.7193H961.097V57.204Z" stroke="#DDDDDD" stroke-width="1.5"/>
<path d="M989.604 57.204H961.097V85.7193H989.604V57.204Z" fill="#E2E7F0" fill-opacity="0.3" stroke="#DDDDDD" stroke-width="1.5"/>
<path d="M1018.11 57.204H989.604V85.7193H1018.11V57.204Z" stroke="#DDDDDD" stroke-width="1.5"/>
<path d="M1046.62 57.204H1018.11V85.7193H1046.62V57.204Z" stroke="#DDDDDD" stroke-width="1.5"/>
<path d="M1075.12 57.204H1046.62V85.7193H1075.12V57.204Z" fill="#E2E7F0" fill-opacity="0.3" stroke="#DDDDDD" stroke-width="1.5"/>
<path d="M20.3835 85.7193H-8.12292V114.235H20.3835V85.7193Z" stroke="#DDDDDD" stroke-width="1.5"/>
<path d="M48.89 85.7193H20.3835V114.235H48.89V85.7193Z" fill="#E2E7F0" fill-opacity="0.3" stroke="#DDDDDD" stroke-width="1.5"/>
<path d="M77.3965 85.7193H48.89V114.235H77.3965V85.7193Z" stroke="#DDDDDD" stroke-width="1.5"/>
<path d="M191.422 85.7193H162.916V114.235H191.422V85.7193Z" fill="#E2E7F0" fill-opacity="0.3" stroke="#DDDDDD" stroke-width="1.5"/>
<path d="M219.929 85.7193H191.422V114.235H219.929V85.7193Z" stroke="#DDDDDD" stroke-width="1.5"/>
<path d="M276.942 85.7193H248.435V114.235H276.942V85.7193Z" stroke="#DDDDDD" stroke-width="1.5"/>
<path d="M790.058 85.7193H761.552V114.235H790.058V85.7193Z" stroke="#DDDDDD" stroke-width="1.5"/>
<path d="M818.565 85.7193H790.058V114.235H818.565V85.7193Z" stroke="#DDDDDD" stroke-width="1.5"/>
<path d="M904.084 85.7193H875.578V114.235H904.084V85.7193Z" stroke="#DDDDDD" stroke-width="1.5"/>
<path d="M932.591 85.7193H904.084V114.235H932.591V85.7193Z" stroke="#DDDDDD" stroke-width="1.5"/>
<path d="M961.097 85.7193H932.591V114.235H961.097V85.7193Z" stroke="#DDDDDD" stroke-width="1.5"/>
<path d="M1075.12 85.7193H1046.62V114.235H1075.12V85.7193Z" stroke="#DDDDDD" stroke-width="1.5"/>
<path d="M20.3835 114.235H-8.12292V142.75H20.3835V114.235Z" stroke="#DDDDDD" stroke-width="1.5"/>
<path d="M48.89 114.235H20.3835V142.75H48.89V114.235Z" stroke="#DDDDDD" stroke-width="1.5"/>
<path d="M77.3965 114.235H48.89V142.75H77.3965V114.235Z" stroke="#DDDDDD" stroke-width="1.5"/>
<path d="M105.903 114.235H77.3965V142.75H105.903V114.235Z" stroke="#DDDDDD" stroke-width="1.5"/>
<path d="M134.409 114.235H105.903V142.75H134.409V114.235Z" stroke="#DDDDDD" stroke-width="1.5"/>
<path d="M162.916 114.235H134.409V142.75H162.916V114.235Z" stroke="#DDDDDD" stroke-width="1.5"/>
<path d="M305.448 114.235H276.942V142.75H305.448V114.235Z" stroke="#DDDDDD" stroke-width="1.5"/>
<path d="M333.955 114.235H305.448V142.75H333.955V114.235Z" stroke="#DDDDDD" stroke-width="1.5"/>
<path d="M619.019 114.235H590.513V142.75H619.019V114.235Z" stroke="#DDDDDD" stroke-width="1.5"/>
<path d="M647.526 114.235H619.019V142.75H647.526V114.235Z" stroke="#DDDDDD" stroke-width="1.5"/>
<path d="M676.032 114.235H647.526V142.75H676.032V114.235Z" stroke="#DDDDDD" stroke-width="1.5"/>
<path d="M704.539 114.235H676.032V142.75H704.539V114.235Z" stroke="#DDDDDD" stroke-width="1.5"/>
<path d="M733.045 114.235H704.539V142.75H733.045V114.235Z" stroke="#DDDDDD" stroke-width="1.5"/>
<path d="M761.552 114.235H733.045V142.75H761.552V114.235Z" stroke="#DDDDDD" stroke-width="1.5"/>
<path d="M818.565 114.235H790.058V142.75H818.565V114.235Z" stroke="#DDDDDD" stroke-width="1.5"/>
<path d="M847.071 114.235H818.565V142.75H847.071V114.235Z" fill="#E2E7F0" fill-opacity="0.3" stroke="#DDDDDD" stroke-width="1.5"/>
<path d="M961.097 114.235H932.591V142.75H961.097V114.235Z" stroke="#DDDDDD" stroke-width="1.5"/>
<path d="M989.604 114.235H961.097V142.75H989.604V114.235Z" stroke="#DDDDDD" stroke-width="1.5"/>
<path d="M1018.11 114.235H989.604V142.75H1018.11V114.235Z" stroke="#DDDDDD" stroke-width="1.5"/>
<path d="M1046.62 114.235H1018.11V142.75H1046.62V114.235Z" stroke="#DDDDDD" stroke-width="1.5"/>
<path d="M1075.12 114.235H1046.62V142.75H1075.12V114.235Z" stroke="#DDDDDD" stroke-width="1.5"/>
<path d="M20.3835 142.75H-8.12292V171.265H20.3835V142.75Z" stroke="#DDDDDD" stroke-width="1.5"/>
<path d="M48.89 142.75H20.3835V171.265H48.89V142.75Z" stroke="#DDDDDD" stroke-width="1.5"/>
<path d="M77.3965 142.75H48.89V171.265H77.3965V142.75Z" stroke="#DDDDDD" stroke-width="1.5"/>
<path d="M105.903 142.75H77.3965V171.265H105.903V142.75Z" stroke="#DDDDDD" stroke-width="1.5"/>
<path d="M134.409 142.75H105.903V171.265H134.409V142.75Z" stroke="#DDDDDD" stroke-width="1.5"/>
<path d="M162.916 142.75H134.409V171.265H162.916V142.75Z" stroke="#DDDDDD" stroke-width="1.5"/>
<path d="M191.422 142.75H162.916V171.265H191.422V142.75Z" stroke="#DDDDDD" stroke-width="1.5"/>
<path d="M219.929 142.75H191.422V171.265H219.929V142.75Z" stroke="#DDDDDD" stroke-width="1.5"/>
<path d="M875.578 142.75H847.071V171.265H875.578V142.75Z" stroke="#DDDDDD" stroke-width="1.5"/>
<path d="M904.084 142.75H875.578V171.265H904.084V142.75Z" stroke="#DDDDDD" stroke-width="1.5"/>
<path d="M932.591 142.75H904.084V171.265H932.591V142.75Z" stroke="#DDDDDD" stroke-width="1.5"/>
<path d="M961.097 142.75H932.591V171.265H961.097V142.75Z" stroke="#DDDDDD" stroke-width="1.5"/>
<path d="M989.604 142.75H961.097V171.265H989.604V142.75Z" fill="#E2E7F0" fill-opacity="0.3" stroke="#DDDDDD" stroke-width="1.5"/>
<path d="M1018.11 142.75H989.604V171.265H1018.11V142.75Z" stroke="#DDDDDD" stroke-width="1.5"/>
<path d="M1046.62 142.75H1018.11V171.265H1046.62V142.75Z" stroke="#DDDDDD" stroke-width="1.5"/>
<path d="M1075.12 142.75H1046.62V171.265H1075.12V142.75Z" stroke="#DDDDDD" stroke-width="1.5"/>
<path d="M20.3835 171.265H-8.12292V199.781H20.3835V171.265Z" fill="#E2E7F0" fill-opacity="0.3" stroke="#DDDDDD" stroke-width="1.5"/>
<path d="M48.89 171.265H20.3835V199.781H48.89V171.265Z" stroke="#DDDDDD" stroke-width="1.5"/>
<path d="M77.3965 171.265H48.89V199.781H77.3965V171.265Z" stroke="#DDDDDD" stroke-width="1.5"/>
<path d="M191.422 171.265H162.916V199.781H191.422V171.265Z" fill="#E2E7F0" fill-opacity="0.3" stroke="#DDDDDD" stroke-width="1.5"/>
<path d="M219.929 171.265H191.422V199.781H219.929V171.265Z" stroke="#DDDDDD" stroke-width="1.5"/>
<path d="M276.942 171.265H248.435V199.781H276.942V171.265Z" stroke="#DDDDDD" stroke-width="1.5"/>
<path d="M305.448 171.265H276.942V199.781H305.448V171.265Z" stroke="#DDDDDD" stroke-width="1.5"/>
<path d="M847.071 171.265H818.565V199.781H847.071V171.265Z" stroke="#DDDDDD" stroke-width="1.5"/>
<path d="M875.578 171.265H847.071V199.781H875.578V171.265Z" fill="#E2E7F0" fill-opacity="0.3" stroke="#DDDDDD" stroke-width="1.5"/>
<path d="M904.084 171.265H875.578V199.781H904.084V171.265Z" stroke="#DDDDDD" stroke-width="1.5"/>
<path d="M932.591 171.265H904.084V199.781H932.591V171.265Z" stroke="#DDDDDD" stroke-width="1.5"/>
<path d="M961.097 171.265H932.591V199.781H961.097V171.265Z" stroke="#DDDDDD" stroke-width="1.5"/>
<path d="M1075.12 171.265H1046.62V199.781H1075.12V171.265Z" stroke="#DDDDDD" stroke-width="1.5"/>
<path d="M20.3835 199.781H-8.12292V228.296H20.3835V199.781Z" stroke="#DDDDDD" stroke-width="1.5"/>
<path d="M48.89 199.781H20.3835V228.296H48.89V199.781Z" stroke="#DDDDDD" stroke-width="1.5"/>
<path d="M77.3965 199.781H48.89V228.296H77.3965V199.781Z" stroke="#DDDDDD" stroke-width="1.5"/>
<path d="M105.903 199.781H77.3965V228.296H105.903V199.781Z" stroke="#DDDDDD" stroke-width="1.5"/>
<path d="M134.409 199.781H105.903V228.296H134.409V199.781Z" stroke="#DDDDDD" stroke-width="1.5"/>
<path d="M162.916 199.781H134.409V228.296H162.916V199.781Z" fill="#E2E7F0" fill-opacity="0.3" stroke="#DDDDDD" stroke-width="1.5"/>
<path d="M305.448 199.781H276.942V228.296H305.448V199.781Z" stroke="#DDDDDD" stroke-width="1.5"/>
<path d="M333.955 199.781H305.448V228.296H333.955V199.781Z" stroke="#DDDDDD" stroke-width="1.5"/>
<path d="M619.019 199.781H590.513V228.296H619.019V199.781Z" stroke="#DDDDDD" stroke-width="1.5"/>
<path d="M647.526 199.781H619.019V228.296H647.526V199.781Z" stroke="#DDDDDD" stroke-width="1.5"/>
<path d="M676.032 199.781H647.526V228.296H676.032V199.781Z" stroke="#DDDDDD" stroke-width="1.5"/>
<path d="M704.539 199.781H676.032V228.296H704.539V199.781Z" stroke="#DDDDDD" stroke-width="1.5"/>
<path d="M733.045 199.781H704.539V228.296H733.045V199.781Z" stroke="#DDDDDD" stroke-width="1.5"/>
<path d="M761.552 199.781H733.045V228.296H761.552V199.781Z" stroke="#DDDDDD" stroke-width="1.5"/>
<path d="M790.058 199.781H761.552V228.296H790.058V199.781Z" stroke="#DDDDDD" stroke-width="1.5"/>
<path d="M818.565 199.781H790.058V228.296H818.565V199.781Z" stroke="#DDDDDD" stroke-width="1.5"/>
<path d="M989.604 199.781H961.097V228.296H989.604V199.781Z" stroke="#DDDDDD" stroke-width="1.5"/>
<path d="M1018.11 199.781H989.604V228.296H1018.11V199.781Z" stroke="#DDDDDD" stroke-width="1.5"/>
<path d="M1046.62 199.781H1018.11V228.296H1046.62V199.781Z" stroke="#DDDDDD" stroke-width="1.5"/>
<path d="M1075.12 199.781H1046.62V228.296H1075.12V199.781Z" stroke="#DDDDDD" stroke-width="1.5"/>
<path d="M20.3835 228.296H-8.12292V256.811H20.3835V228.296Z" stroke="#DDDDDD" stroke-width="1.5"/>
<path d="M48.89 228.296H20.3835V256.811H48.89V228.296Z" stroke="#DDDDDD" stroke-width="1.5"/>
<path d="M77.3965 228.296H48.89V256.811H77.3965V228.296Z" stroke="#DDDDDD" stroke-width="1.5"/>
<path d="M105.903 228.296H77.3965V256.811H105.903V228.296Z" fill="#E2E7F0" fill-opacity="0.3" stroke="#DDDDDD" stroke-width="1.5"/>
<path d="M134.409 228.296H105.903V256.811H134.409V228.296Z" stroke="#DDDDDD" stroke-width="1.5"/>
<path d="M162.916 228.296H134.409V256.811H162.916V228.296Z" stroke="#DDDDDD" stroke-width="1.5"/>
<path d="M191.422 228.296H162.916V256.811H191.422V228.296Z" stroke="#DDDDDD" stroke-width="1.5"/>
<path d="M219.929 228.296H191.422V256.811H219.929V228.296Z" stroke="#DDDDDD" stroke-width="1.5"/>
<path d="M305.448 228.296H276.942V256.811H305.448V228.296Z" stroke="#DDDDDD" stroke-width="1.5"/>
<path d="M818.565 228.296H790.058V256.811H818.565V228.296Z" stroke="#DDDDDD" stroke-width="1.5"/>
<path d="M847.071 228.296H818.565V256.811H847.071V228.296Z" stroke="#DDDDDD" stroke-width="1.5"/>
<path d="M989.604 228.296H961.097V256.811H989.604V228.296Z" stroke="#DDDDDD" stroke-width="1.5"/>
<path d="M1018.11 228.296H989.604V256.811H1018.11V228.296Z" stroke="#DDDDDD" stroke-width="1.5"/>
<path d="M1046.62 228.296H1018.11V256.811H1046.62V228.296Z" fill="#E2E7F0" fill-opacity="0.3" stroke="#DDDDDD" stroke-width="1.5"/>
<path d="M1075.12 228.296H1046.62V256.811H1075.12V228.296Z" stroke="#DDDDDD" stroke-width="1.5"/>
<path d="M20.3835 256.811H-8.12292V285.327H20.3835V256.811Z" stroke="#DDDDDD" stroke-width="1.5"/>
<path d="M105.903 256.811H77.3965V285.327H105.903V256.811Z" stroke="#DDDDDD" stroke-width="1.5"/>
<path d="M191.422 256.811H162.916V285.327H191.422V256.811Z" stroke="#DDDDDD" stroke-width="1.5"/>
<path d="M219.929 256.811H191.422V285.327H219.929V256.811Z" fill="#E2E7F0" fill-opacity="0.3" stroke="#DDDDDD" stroke-width="1.5"/>
<path d="M333.955 256.811H305.448V285.327H333.955V256.811Z" stroke="#DDDDDD" stroke-width="1.5"/>
<path d="M362.461 256.811H333.955V285.327H362.461V256.811Z" stroke="#DDDDDD" stroke-width="1.5"/>
<path d="M390.968 256.811H362.461V285.327H390.968V256.811Z" stroke="#DDDDDD" stroke-width="1.5"/>
<path d="M419.474 256.811H390.968V285.327H419.474V256.811Z" fill="#E2E7F0" fill-opacity="0.3" stroke="#DDDDDD" stroke-width="1.5"/>
<path d="M447.981 256.811H419.474V285.327H447.981V256.811Z" stroke="#DDDDDD" stroke-width="1.5"/>
<path d="M476.487 256.811H447.981V285.327H476.487V256.811Z" stroke="#DDDDDD" stroke-width="1.5"/>
<path d="M790.058 256.811H761.552V285.327H790.058V256.811Z" stroke="#DDDDDD" stroke-width="1.5"/>
<path opacity="0.99" d="M818.565 256.811H790.058V285.327H818.565V256.811Z" stroke="#DDDDDD" stroke-width="1.5"/>
<path d="M904.084 256.811H875.578V285.327H904.084V256.811Z" stroke="#DDDDDD" stroke-width="1.5"/>
<path d="M932.591 256.811H904.084V285.327H932.591V256.811Z" stroke="#DDDDDD" stroke-width="1.5"/>
<path d="M961.097 256.811H932.591V285.327H961.097V256.811Z" stroke="#DDDDDD" stroke-width="1.5"/>
<path d="M1075.12 256.811H1046.62V285.327H1075.12V256.811Z" stroke="#DDDDDD" stroke-width="1.5"/>
<path d="M20.3835 285.327H-8.12292V313.842H20.3835V285.327Z" stroke="#DDDDDD" stroke-width="1.5"/>
<path d="M48.89 285.327H20.3835V313.842H48.89V285.327Z" stroke="#DDDDDD" stroke-width="1.5"/>
<path d="M77.3965 285.327H48.89V313.842H77.3965V285.327Z" stroke="#DDDDDD" stroke-width="1.5"/>
<path d="M105.903 285.327H77.3965V313.842H105.903V285.327Z" stroke="#DDDDDD" stroke-width="1.5"/>
<path d="M134.409 285.327H105.903V313.842H134.409V285.327Z" stroke="#DDDDDD" stroke-width="1.5"/>
<path d="M419.474 285.327H390.968V313.842H419.474V285.327Z" stroke="#DDDDDD" stroke-width="1.5"/>
<path d="M447.981 285.327H419.474V313.842H447.981V285.327Z" stroke="#DDDDDD" stroke-width="1.5"/>
<path d="M476.487 285.327H447.981V313.842H476.487V285.327Z" stroke="#DDDDDD" stroke-width="1.5"/>
<path d="M676.032 285.327H647.526V313.842H676.032V285.327Z" stroke="#DDDDDD" stroke-width="1.5"/>
<path d="M704.539 285.327H676.032V313.842H704.539V285.327Z" stroke="#DDDDDD" stroke-width="1.5"/>
<path d="M733.045 285.327H704.539V313.842H733.045V285.327Z" stroke="#DDDDDD" stroke-width="1.5"/>
<path d="M761.552 285.327H733.045V313.842H761.552V285.327Z" stroke="#DDDDDD" stroke-width="1.5"/>
<path d="M790.058 285.327H761.552V313.842H790.058V285.327Z" fill="#E2E7F0" fill-opacity="0.3" stroke="#DDDDDD" stroke-width="1.5"/>
<path d="M818.565 285.327H790.058V313.842H818.565V285.327Z" stroke="#DDDDDD" stroke-width="1.5"/>
<path d="M847.071 285.327H818.565V313.842H847.071V285.327Z" stroke="#DDDDDD" stroke-width="1.5"/>
<path d="M904.084 285.327H875.578V313.842H904.084V285.327Z" stroke="#DDDDDD" stroke-width="1.5"/>
<path d="M932.591 285.327H904.084V313.842H932.591V285.327Z" stroke="#DDDDDD" stroke-width="1.5"/>
<path d="M961.097 285.327H932.591V313.842H961.097V285.327Z" stroke="#DDDDDD" stroke-width="1.5"/>
<path d="M989.604 285.327H961.097V313.842H989.604V285.327Z" fill="#E2E7F0" fill-opacity="0.3" stroke="#DDDDDD" stroke-width="1.5"/>
<path d="M1018.11 285.327H989.604V313.842H1018.11V285.327Z" stroke="#DDDDDD" stroke-width="1.5"/>
<path d="M1046.62 285.327H1018.11V313.842H1046.62V285.327Z" stroke="#DDDDDD" stroke-width="1.5"/>
<path d="M1075.12 285.327H1046.62V313.842H1075.12V285.327Z" stroke="#DDDDDD" stroke-width="1.5"/>
<path d="M20.3835 313.842H-8.12292V342.357H20.3835V313.842Z" stroke="#DDDDDD" stroke-width="1.5"/>
<path d="M48.89 313.842H20.3835V342.357H48.89V313.842Z" stroke="#DDDDDD" stroke-width="1.5"/>
<path d="M77.3965 313.842H48.89V342.357H77.3965V313.842Z" fill="#E2E7F0" fill-opacity="0.3" stroke="#DDDDDD" stroke-width="1.5"/>
<path d="M105.903 313.842H77.3965V342.357H105.903V313.842Z" stroke="#DDDDDD" stroke-width="1.5"/>
<path d="M134.409 313.842H105.903V342.357H134.409V313.842Z" stroke="#DDDDDD" stroke-width="1.5"/>
<path d="M162.916 313.842H134.409V342.357H162.916V313.842Z" stroke="#DDDDDD" stroke-width="1.5"/>
<path d="M191.422 313.842H162.916V342.357H191.422V313.842Z" stroke="#DDDDDD" stroke-width="1.5"/>
<path d="M219.929 313.842H191.422V342.357H219.929V313.842Z" stroke="#DDDDDD" stroke-width="1.5"/>
<path d="M248.435 313.842H219.929V342.357H248.435V313.842Z" stroke="#DDDDDD" stroke-width="1.5"/>
<path d="M276.942 313.842H248.435V342.357H276.942V313.842Z" stroke="#DDDDDD" stroke-width="1.5"/>
<path d="M305.448 313.842H276.942V342.357H305.448V313.842Z" stroke="#DDDDDD" stroke-width="1.5"/>
<path d="M333.955 313.842H305.448V342.357H333.955V313.842Z" stroke="#DDDDDD" stroke-width="1.5"/>
<path d="M362.461 313.842H333.955V342.357H362.461V313.842Z" fill="#E2E7F0" fill-opacity="0.3" stroke="#DDDDDD" stroke-width="1.5"/>
<path d="M619.019 313.842H590.513V342.357H619.019V313.842Z" stroke="#DDDDDD" stroke-width="1.5"/>
<path d="M647.526 313.842H619.019V342.357H647.526V313.842Z" stroke="#DDDDDD" stroke-width="1.5"/>
<path d="M676.032 313.842H647.526V342.357H676.032V313.842Z" stroke="#DDDDDD" stroke-width="1.5"/>
<path d="M704.539 313.842H676.032V342.357H704.539V313.842Z" stroke="#DDDDDD" stroke-width="1.5"/>
<path d="M733.045 313.842H704.539V342.357H733.045V313.842Z" fill="#E2E7F0" fill-opacity="0.3" stroke="#DDDDDD" stroke-width="1.5"/>
<path d="M761.552 313.842H733.045V342.357H761.552V313.842Z" stroke="#DDDDDD" stroke-width="1.5"/>
<path d="M790.058 313.842H761.552V342.357H790.058V313.842Z" stroke="#DDDDDD" stroke-width="1.5"/>
<path d="M818.565 313.842H790.058V342.357H818.565V313.842Z" stroke="#DDDDDD" stroke-width="1.5"/>
<path d="M847.071 313.842H818.565V342.357H847.071V313.842Z" stroke="#DDDDDD" stroke-width="1.5"/>
<path d="M875.578 313.842H847.071V342.357H875.578V313.842Z" stroke="#DDDDDD" stroke-width="1.5"/>
<path d="M904.084 313.842H875.578V342.357H904.084V313.842Z" stroke="#DDDDDD" stroke-width="1.5"/>
<path d="M932.591 313.842H904.084V342.357H932.591V313.842Z" stroke="#DDDDDD" stroke-width="1.5"/>
<path d="M961.097 313.842H932.591V342.357H961.097V313.842Z" stroke="#DDDDDD" stroke-width="1.5"/>
<path d="M989.604 313.842H961.097V342.357H989.604V313.842Z" stroke="#DDDDDD" stroke-width="1.5"/>
<path d="M1018.11 313.842H989.604V342.357H1018.11V313.842Z" stroke="#DDDDDD" stroke-width="1.5"/>
<path d="M1046.62 313.842H1018.11V342.357H1046.62V313.842Z" stroke="#DDDDDD" stroke-width="1.5"/>
<path d="M1075.12 313.842H1046.62V342.357H1075.12V313.842Z" stroke="#DDDDDD" stroke-width="1.5"/>
<path d="M20.3835 342.357H-8.12292V370.873H20.3835V342.357Z" stroke="#DDDDDD" stroke-width="1.5"/>
<path d="M48.89 342.357H20.3835V370.873H48.89V342.357Z" stroke="#DDDDDD" stroke-width="1.5"/>
<path d="M77.3965 342.357H48.89V370.873H77.3965V342.357Z" stroke="#DDDDDD" stroke-width="1.5"/>
<path d="M105.903 342.357H77.3965V370.873H105.903V342.357Z" stroke="#DDDDDD" stroke-width="1.5"/>
<path d="M134.409 342.357H105.903V370.873H134.409V342.357Z" stroke="#DDDDDD" stroke-width="1.5"/>
<path d="M162.916 342.357H134.409V370.873H162.916V342.357Z" fill="#E2E7F0" fill-opacity="0.3" stroke="#DDDDDD" stroke-width="1.5"/>
<path d="M305.448 342.357H276.942V370.873H305.448V342.357Z" stroke="#DDDDDD" stroke-width="1.5"/>
<path d="M333.955 342.357H305.448V370.873H333.955V342.357Z" stroke="#DDDDDD" stroke-width="1.5"/>
<path d="M619.019 342.357H590.513V370.873H619.019V342.357Z" stroke="#DDDDDD" stroke-width="1.5"/>
<path d="M647.526 342.357H619.019V370.873H647.526V342.357Z" stroke="#DDDDDD" stroke-width="1.5"/>
<path d="M676.032 342.357H647.526V370.873H676.032V342.357Z" stroke="#DDDDDD" stroke-width="1.5"/>
<path d="M704.539 342.357H676.032V370.873H704.539V342.357Z" stroke="#DDDDDD" stroke-width="1.5"/>
<path d="M733.045 342.357H704.539V370.873H733.045V342.357Z" stroke="#DDDDDD" stroke-width="1.5"/>
<path d="M761.552 342.357H733.045V370.873H761.552V342.357Z" stroke="#DDDDDD" stroke-width="1.5"/>
<path d="M790.058 342.357H761.552V370.873H790.058V342.357Z" stroke="#DDDDDD" stroke-width="1.5"/>
<path d="M818.565 342.357H790.058V370.873H818.565V342.357Z" stroke="#DDDDDD" stroke-width="1.5"/>
<path d="M989.604 342.357H961.097V370.873H989.604V342.357Z" stroke="#DDDDDD" stroke-width="1.5"/>
<path d="M1018.11 342.357H989.604V370.873H1018.11V342.357Z" stroke="#DDDDDD" stroke-width="1.5"/>
<path d="M1046.62 342.357H1018.11V370.873H1046.62V342.357Z" stroke="#DDDDDD" stroke-width="1.5"/>
<path d="M1075.12 342.357H1046.62V370.873H1075.12V342.357Z" stroke="#DDDDDD" stroke-width="1.5"/>
<path d="M20.3835 370.873H-8.12292V399.388H20.3835V370.873Z" stroke="#DDDDDD" stroke-width="1.5"/>
<path d="M48.89 370.873H20.3835V399.388H48.89V370.873Z" stroke="#DDDDDD" stroke-width="1.5"/>
<path d="M77.3965 370.873H48.89V399.388H77.3965V370.873Z" stroke="#DDDDDD" stroke-width="1.5"/>
<path d="M105.903 370.873H77.3965V399.388H105.903V370.873Z" stroke="#DDDDDD" stroke-width="1.5"/>
<path d="M134.409 370.873H105.903V399.388H134.409V370.873Z" stroke="#DDDDDD" stroke-width="1.5"/>
<path d="M162.916 370.873H134.409V399.388H162.916V370.873Z" stroke="#DDDDDD" stroke-width="1.5"/>
<path d="M191.422 370.873H162.916V399.388H191.422V370.873Z" stroke="#DDDDDD" stroke-width="1.5"/>
<path d="M219.929 370.873H191.422V399.388H219.929V370.873Z" stroke="#DDDDDD" stroke-width="1.5"/>
<path d="M276.942 370.873H248.435V399.388H276.942V370.873Z" stroke="#DDDDDD" stroke-width="1.5"/>
<path d="M305.448 370.873H276.942V399.388H305.448V370.873Z" stroke="#DDDDDD" stroke-width="1.5"/>
<path d="M333.955 370.873H305.448V399.388H333.955V370.873Z" stroke="#DDDDDD" stroke-width="1.5"/>
<path d="M362.461 370.873H333.955V399.388H362.461V370.873Z" stroke="#DDDDDD" stroke-width="1.5"/>
<path d="M562.006 370.873H533.5V399.388H562.006V370.873Z" stroke="#DDDDDD" stroke-width="1.5"/>
<path d="M590.513 370.873H562.006V399.388H590.513V370.873Z" stroke="#DDDDDD" stroke-width="1.5"/>
<path d="M619.019 370.873H590.513V399.388H619.019V370.873Z" stroke="#DDDDDD" stroke-width="1.5"/>
<path d="M647.526 370.873H619.019V399.388H647.526V370.873Z" stroke="#DDDDDD" stroke-width="1.5"/>
<path d="M676.032 370.873H647.526V399.388H676.032V370.873Z" stroke="#DDDDDD" stroke-width="1.5"/>
<path d="M704.539 370.873H676.032V399.388H704.539V370.873Z" stroke="#DDDDDD" stroke-width="1.5"/>
<path d="M733.045 370.873H704.539V399.388H733.045V370.873Z" stroke="#DDDDDD" stroke-width="1.5"/>
<path d="M790.058 370.873H761.552V399.388H790.058V370.873Z" stroke="#DDDDDD" stroke-width="1.5"/>
<path d="M847.071 370.873H818.565V399.388H847.071V370.873Z" fill="#E2E7F0" fill-opacity="0.3" stroke="#DDDDDD" stroke-width="1.5"/>
<path d="M875.578 370.873H847.071V399.388H875.578V370.873Z" stroke="#DDDDDD" stroke-width="1.5"/>
<path d="M1046.62 370.873H1018.11V399.388H1046.62V370.873Z" stroke="#DDDDDD" stroke-width="1.5"/>
<path d="M1075.12 370.873H1046.62V399.388H1075.12V370.873Z" fill="#E2E7F0" fill-opacity="0.3" stroke="#DDDDDD" stroke-width="1.5"/>
<path d="M20.3835 427.903V399.388H-8.12292V427.903" stroke="#DDDDDD" stroke-width="1.5"/>
<path d="M48.89 427.903V399.388H20.3835V427.903" stroke="#DDDDDD" stroke-width="1.5"/>
<path d="M77.3965 427.903V399.388H48.89V427.903" stroke="#DDDDDD" stroke-width="1.5"/>
<path d="M105.903 427.903V399.388H77.3965V427.903" stroke="#DDDDDD" stroke-width="1.5"/>
<path d="M134.409 427.903V399.388H105.903V427.903" stroke="#DDDDDD" stroke-width="1.5"/>
<path d="M162.916 427.903V399.388H134.409V427.903" stroke="#DDDDDD" stroke-width="1.5"/>
<path d="M333.955 427.903V399.388H305.448V427.903" stroke="#DDDDDD" stroke-width="1.5"/>
<path d="M362.461 427.903V399.388H333.955V427.903" stroke="#DDDDDD" stroke-width="1.5"/>
<path d="M390.968 427.903V399.388H362.461V427.903" stroke="#DDDDDD" stroke-width="1.5"/>
<path d="M419.474 427.903V399.388H390.968V427.903" stroke="#DDDDDD" stroke-width="1.5"/>
<path d="M447.981 427.903V399.388H419.474V427.903" stroke="#DDDDDD" stroke-width="1.5"/>
<path d="M476.487 427.903V399.388H447.981V427.903" stroke="#DDDDDD" stroke-width="1.5"/>
<path d="M904.084 427.903V399.388H875.578V427.903" stroke="#DDDDDD" stroke-width="1.5"/>
<path d="M932.591 427.903V399.388H904.084V427.903" stroke="#DDDDDD" stroke-width="1.5"/>
<path d="M961.097 427.903V399.388H932.591V427.903" stroke="#DDDDDD" stroke-width="1.5"/>
<path d="M989.604 427.903V399.388H961.097V427.903" stroke="#DDDDDD" stroke-width="1.5"/>
<path d="M1018.11 427.903V399.388H989.604V427.903" stroke="#DDDDDD" stroke-width="1.5"/>
<path d="M1046.62 427.903V399.388H1018.11V427.903" stroke="#DDDDDD" stroke-width="1.5"/>
<path d="M1075.12 427.903V399.388H1046.62V427.903" stroke="#DDDDDD" stroke-width="1.5"/>
<path d="M20.4713 116.428L20.4713 169.072" stroke="url(#paint0_linear_117_3)" stroke-width="1.5" stroke-linecap="round" stroke-linejoin="round"/>
<g filter="url(#filter0_d_117_3)">
<path d="M932.591 177.407V124.763" stroke="url(#paint1_linear_117_3)" stroke-width="1.5" stroke-linecap="round" stroke-linejoin="round"/>
<path d="M162.916 200V147.356" stroke="url(#paint2_linear_117_3)" stroke-width="1.5" stroke-linecap="round" stroke-linejoin="round"/>
<path d="M219.994 58.3961L219.994 111.04" stroke="url(#paint3_linear_117_3)" stroke-width="1.5" stroke-linecap="round" stroke-linejoin="round"/>
<path d="M790.091 58.3961L790.091 111.04" stroke="url(#paint4_linear_117_3)" stroke-width="1.5" stroke-linecap="round" stroke-linejoin="round"/>
</g>
<rect x="263.989" width="539.022" height="399.388" fill="url(#paint5_radial_117_3)"/>
</g>
<g clip-path="url(#clip2_117_3)">
<path d="M178.619 357.744C178.134 357.744 177.681 357.612 177.261 357.382L172.96 354.788C172.313 354.427 172.637 354.296 172.831 354.23C173.704 353.934 173.866 353.869 174.771 353.343C174.868 353.278 174.997 353.311 175.094 353.376L178.393 355.379C178.522 355.445 178.684 355.445 178.781 355.379L191.684 347.794C191.813 347.728 191.878 347.597 191.878 347.433V332.295C191.878 332.13 191.813 331.999 191.684 331.933L178.781 324.381C178.652 324.315 178.49 324.315 178.393 324.381L165.49 331.933C165.361 331.999 165.296 332.163 165.296 332.295V347.433C165.296 347.564 165.361 347.728 165.49 347.794L169.015 349.863C170.923 350.848 172.119 349.698 172.119 348.549V333.608C172.119 333.411 172.281 333.214 172.507 333.214H174.157C174.351 333.214 174.545 333.378 174.545 333.608V348.549C174.545 351.143 173.154 352.654 170.729 352.654C169.985 352.654 169.403 352.654 167.754 351.833L164.358 349.863C163.517 349.37 163 348.451 163 347.465V332.327C163 331.342 163.517 330.423 164.358 329.93L177.261 322.345C178.07 321.885 179.169 321.885 179.977 322.345L192.88 329.93C193.721 330.423 194.239 331.342 194.239 332.327V347.465C194.239 348.451 193.721 349.37 192.88 349.863L179.977 357.448C179.557 357.645 179.072 357.744 178.619 357.744ZM182.597 347.334C176.938 347.334 175.774 344.707 175.774 342.474C175.774 342.277 175.935 342.08 176.162 342.08H177.843C178.037 342.08 178.199 342.211 178.199 342.408C178.458 344.149 179.201 345.003 182.629 345.003C185.346 345.003 186.51 344.379 186.51 342.901C186.51 342.047 186.186 341.423 181.95 340.996C178.425 340.635 176.226 339.847 176.226 336.99C176.226 334.33 178.425 332.754 182.112 332.754C186.251 332.754 188.288 334.199 188.547 337.352C188.547 337.45 188.515 337.549 188.45 337.647C188.385 337.713 188.288 337.778 188.191 337.778H186.51C186.348 337.778 186.186 337.647 186.154 337.483C185.766 335.677 184.763 335.086 182.112 335.086C179.137 335.086 178.781 336.137 178.781 336.925C178.781 337.877 179.201 338.172 183.211 338.698C187.189 339.223 189.064 339.979 189.064 342.803C189.032 345.692 186.704 347.334 182.597 347.334Z" fill="#20294F"/>
</g>
<path d="M88.5123 347.348L79.947 332.539C79.5543 331.859 78.5864 331.302 77.7963 331.302H72.4488C71.2059 331.302 70.6963 330.427 71.3163 329.358L74.2488 324.301C74.4815 323.9 74.481 323.406 74.2475 323.005C74.0139 322.604 73.5828 322.357 73.1163 322.357H65.6565C64.8663 322.357 63.8963 322.913 63.5008 323.592L49.0052 348.488C48.6098 349.167 48.6095 350.279 49.0047 350.958L52.7345 357.37C53.3559 358.439 54.3751 358.44 54.9992 357.373L57.9137 352.391C58.5378 351.324 59.557 351.326 60.1784 352.394L62.8206 356.936C63.2157 357.616 64.1854 358.171 64.9756 358.171H82.2135C83.0038 358.171 83.9735 357.616 84.3686 356.936L88.508 349.82C88.9031 349.141 88.905 348.028 88.5123 347.348ZM76.9449 346.635C77.5624 347.706 77.0508 348.582 75.8079 348.582H62.3996C61.1567 348.582 60.6482 347.707 61.2696 346.639L67.9791 335.104C68.6005 334.036 69.6174 334.036 70.2388 335.104L76.9449 346.635Z" fill="#20294F"/>
<path d="M388.603 181.137C386.097 181.137 383.881 180.728 381.955 179.909C380.046 179.074 378.546 177.813 377.455 176.125C376.364 174.438 375.819 172.29 375.819 169.682C375.819 167.534 376.185 165.702 376.918 164.185C377.651 162.651 378.674 161.398 379.986 160.426C381.299 159.455 382.825 158.713 384.563 158.202C386.319 157.691 388.211 157.358 390.239 157.205C392.438 157.034 394.202 156.83 395.532 156.591C396.878 156.336 397.85 155.986 398.447 155.543C399.043 155.083 399.342 154.478 399.342 153.728V153.625C399.342 152.603 398.95 151.818 398.165 151.273C397.381 150.728 396.376 150.455 395.148 150.455C393.802 150.455 392.702 150.753 391.85 151.35C391.015 151.929 390.512 152.824 390.342 154.034H377.353C377.523 151.648 378.282 149.449 379.628 147.438C380.992 145.409 382.978 143.79 385.586 142.58C388.194 141.353 391.45 140.739 395.353 140.739C398.165 140.739 400.688 141.071 402.921 141.736C405.154 142.384 407.055 143.296 408.623 144.472C410.191 145.631 411.384 146.995 412.202 148.563C413.038 150.114 413.455 151.801 413.455 153.625V180.523H400.262V175H399.955C399.171 176.466 398.217 177.651 397.092 178.554C395.984 179.458 394.714 180.114 393.282 180.523C391.867 180.932 390.307 181.137 388.603 181.137ZM393.205 172.239C394.279 172.239 395.285 172.017 396.222 171.574C397.177 171.131 397.952 170.492 398.549 169.657C399.146 168.821 399.444 167.807 399.444 166.614V163.341C399.069 163.495 398.668 163.639 398.242 163.776C397.833 163.912 397.39 164.04 396.913 164.159C396.452 164.279 395.958 164.389 395.43 164.492C394.918 164.594 394.381 164.688 393.819 164.773C392.728 164.943 391.833 165.225 391.134 165.617C390.452 165.992 389.941 166.461 389.6 167.023C389.276 167.568 389.114 168.182 389.114 168.864C389.114 169.955 389.498 170.79 390.265 171.37C391.032 171.949 392.012 172.239 393.205 172.239ZM432.369 141.25L438.097 153.421L444.131 141.25H458.142L447.608 160.887L458.653 180.523H444.744L438.097 168.046L431.653 180.523H417.54L428.687 160.887L418.256 141.25H432.369ZM463.16 180.523V141.25H477.273V180.523H463.16ZM470.217 137.159C468.307 137.159 466.671 136.529 465.307 135.267C463.944 134.006 463.262 132.489 463.262 130.716C463.262 128.943 463.944 127.426 465.307 126.165C466.671 124.904 468.307 124.273 470.217 124.273C472.143 124.273 473.779 124.904 475.126 126.165C476.489 127.426 477.171 128.943 477.171 130.716C477.171 132.489 476.489 134.006 475.126 135.267C473.779 136.529 472.143 137.159 470.217 137.159ZM503.385 181.239C499.124 181.239 495.476 180.395 492.442 178.708C489.408 177.003 487.081 174.634 485.462 171.6C483.842 168.549 483.033 165.012 483.033 160.989C483.033 156.966 483.842 153.438 485.462 150.404C487.081 147.353 489.408 144.983 492.442 143.296C495.476 141.591 499.124 140.739 503.385 140.739C507.646 140.739 511.294 141.591 514.328 143.296C517.362 144.983 519.689 147.353 521.308 150.404C522.928 153.438 523.737 156.966 523.737 160.989C523.737 165.012 522.928 168.549 521.308 171.6C519.689 174.634 517.362 177.003 514.328 178.708C511.294 180.395 507.646 181.239 503.385 181.239ZM503.487 170.807C504.68 170.807 505.712 170.407 506.581 169.605C507.45 168.804 508.124 167.662 508.601 166.179C509.078 164.696 509.317 162.932 509.317 160.887C509.317 158.824 509.078 157.06 508.601 155.594C508.124 154.111 507.45 152.969 506.581 152.168C505.712 151.367 504.68 150.966 503.487 150.966C502.226 150.966 501.143 151.367 500.24 152.168C499.337 152.969 498.646 154.111 498.169 155.594C497.692 157.06 497.453 158.824 497.453 160.887C497.453 162.932 497.692 164.696 498.169 166.179C498.646 167.662 499.337 168.804 500.24 169.605C501.143 170.407 502.226 170.807 503.487 170.807ZM529.464 180.523V141.25H542.862V148.716H543.271C544.089 146.262 545.487 144.318 547.464 142.887C549.442 141.455 551.794 140.739 554.521 140.739C557.283 140.739 559.66 141.472 561.655 142.938C563.649 144.387 564.851 146.313 565.26 148.716H565.669C566.334 146.313 567.749 144.387 569.913 142.938C572.078 141.472 574.618 140.739 577.533 140.739C581.3 140.739 584.351 141.949 586.686 144.37C589.038 146.79 590.214 150.012 590.214 154.034V180.523H576.101V157.614C576.101 155.892 575.666 154.546 574.797 153.574C573.928 152.586 572.76 152.091 571.294 152.091C569.845 152.091 568.695 152.586 567.842 153.574C567.007 154.546 566.589 155.892 566.589 157.614V180.523H553.089V157.614C553.089 155.892 552.655 154.546 551.785 153.574C550.916 152.586 549.749 152.091 548.283 152.091C547.311 152.091 546.476 152.313 545.777 152.756C545.078 153.199 544.533 153.838 544.141 154.674C543.766 155.492 543.578 156.472 543.578 157.614V180.523H529.464ZM622.948 154.341V164.978H598.403V154.341H622.948ZM631.347 141.25H645.461V181.853C645.461 185.296 644.736 187.989 643.288 189.932C641.856 191.875 639.844 193.247 637.253 194.049C634.663 194.85 631.637 195.25 628.177 195.25C627.665 195.25 627.197 195.242 626.771 195.225C626.327 195.208 625.842 195.182 625.313 195.148V184.716C625.654 184.75 625.952 184.776 626.208 184.793C626.447 184.81 626.694 184.818 626.95 184.818C628.637 184.818 629.788 184.554 630.401 184.026C631.032 183.514 631.347 182.688 631.347 181.546V141.25ZM638.404 137.159C636.495 137.159 634.859 136.529 633.495 135.267C632.131 134.006 631.45 132.489 631.45 130.716C631.45 128.943 632.131 127.426 633.495 126.165C634.859 124.904 636.495 124.273 638.404 124.273C640.33 124.273 641.967 124.904 643.313 126.165C644.677 127.426 645.359 128.943 645.359 130.716C645.359 132.489 644.677 134.006 643.313 135.267C641.967 136.529 640.33 137.159 638.404 137.159ZM688.55 154.034H675.561C675.493 153.233 675.212 152.543 674.717 151.963C674.223 151.384 673.584 150.941 672.8 150.634C672.033 150.31 671.18 150.148 670.243 150.148C669.033 150.148 667.993 150.37 667.124 150.813C666.254 151.256 665.828 151.887 665.845 152.705C665.828 153.284 666.075 153.821 666.587 154.316C667.115 154.81 668.129 155.193 669.629 155.466L677.606 156.898C681.629 157.631 684.621 158.867 686.581 160.605C688.558 162.327 689.555 164.637 689.572 167.534C689.555 170.33 688.72 172.759 687.067 174.821C685.43 176.867 683.189 178.452 680.342 179.577C677.513 180.685 674.283 181.239 670.652 181.239C664.652 181.239 659.956 180.012 656.564 177.557C653.189 175.103 651.305 171.864 650.913 167.841H664.925C665.112 169.086 665.726 170.049 666.766 170.73C667.822 171.395 669.152 171.728 670.754 171.728C672.05 171.728 673.115 171.506 673.95 171.063C674.803 170.62 675.237 169.989 675.254 169.171C675.237 168.421 674.862 167.824 674.129 167.381C673.413 166.938 672.288 166.58 670.754 166.307L663.8 165.08C659.794 164.381 656.794 163.051 654.8 161.091C652.805 159.131 651.817 156.608 651.834 153.523C651.817 150.796 652.533 148.486 653.981 146.594C655.447 144.685 657.535 143.236 660.246 142.247C662.973 141.242 666.203 140.739 669.936 140.739C675.612 140.739 680.087 141.915 683.359 144.267C686.649 146.62 688.379 149.875 688.55 154.034Z" fill="url(#paint6_radial_117_3)"/>
<path d="M295.348 222.196V219.545H309.274V222.196H303.879V237H300.743V222.196H295.348ZM314.908 229.33V237H311.823V219.545H314.84V226.134H314.993C315.3 225.395 315.774 224.812 316.416 224.386C317.064 223.955 317.888 223.739 318.888 223.739C319.797 223.739 320.59 223.929 321.266 224.31C321.942 224.69 322.465 225.247 322.834 225.98C323.209 226.713 323.396 227.608 323.396 228.665V237H320.311V229.142C320.311 228.261 320.084 227.577 319.629 227.088C319.181 226.594 318.55 226.347 317.737 226.347C317.192 226.347 316.703 226.466 316.271 226.705C315.845 226.937 315.51 227.276 315.266 227.719C315.027 228.162 314.908 228.699 314.908 229.33ZM332.337 237.256C331.024 237.256 329.891 236.983 328.936 236.438C327.987 235.886 327.257 235.108 326.746 234.102C326.235 233.091 325.979 231.901 325.979 230.531C325.979 229.185 326.235 228.003 326.746 226.986C327.263 225.963 327.985 225.168 328.911 224.599C329.837 224.026 330.925 223.739 332.175 223.739C332.982 223.739 333.743 223.869 334.459 224.131C335.181 224.386 335.817 224.784 336.368 225.324C336.925 225.864 337.362 226.551 337.681 227.386C337.999 228.216 338.158 229.205 338.158 230.352V231.298H327.428V229.219H335.2C335.195 228.628 335.067 228.102 334.817 227.642C334.567 227.176 334.217 226.81 333.769 226.543C333.325 226.276 332.808 226.142 332.217 226.142C331.587 226.142 331.033 226.295 330.556 226.602C330.078 226.903 329.706 227.301 329.439 227.795C329.178 228.284 329.044 228.821 329.039 229.406V231.222C329.039 231.983 329.178 232.636 329.456 233.182C329.735 233.722 330.124 234.136 330.624 234.426C331.124 234.71 331.709 234.852 332.379 234.852C332.828 234.852 333.235 234.79 333.598 234.665C333.962 234.534 334.277 234.344 334.544 234.094C334.811 233.844 335.013 233.534 335.149 233.165L338.03 233.489C337.848 234.25 337.502 234.915 336.99 235.483C336.485 236.045 335.837 236.483 335.047 236.795C334.257 237.102 333.354 237.256 332.337 237.256ZM352.431 237.256C351.153 237.256 350.045 236.974 349.107 236.412C348.17 235.849 347.443 235.062 346.926 234.051C346.414 233.04 346.159 231.858 346.159 230.506C346.159 229.153 346.414 227.969 346.926 226.952C347.443 225.935 348.17 225.145 349.107 224.582C350.045 224.02 351.153 223.739 352.431 223.739C353.71 223.739 354.818 224.02 355.755 224.582C356.693 225.145 357.417 225.935 357.928 226.952C358.445 227.969 358.704 229.153 358.704 230.506C358.704 231.858 358.445 233.04 357.928 234.051C357.417 235.062 356.693 235.849 355.755 236.412C354.818 236.974 353.71 237.256 352.431 237.256ZM352.448 234.784C353.141 234.784 353.721 234.594 354.187 234.213C354.653 233.827 354.999 233.31 355.227 232.662C355.46 232.014 355.576 231.293 355.576 230.497C355.576 229.696 355.46 228.972 355.227 228.324C354.999 227.67 354.653 227.151 354.187 226.764C353.721 226.378 353.141 226.185 352.448 226.185C351.738 226.185 351.147 226.378 350.676 226.764C350.21 227.151 349.86 227.67 349.627 228.324C349.4 228.972 349.286 229.696 349.286 230.497C349.286 231.293 349.4 232.014 349.627 232.662C349.86 233.31 350.21 233.827 350.676 234.213C351.147 234.594 351.738 234.784 352.448 234.784ZM367.953 223.909V226.295H360.215V223.909H367.953ZM362.149 237V222.673C362.149 221.793 362.331 221.06 362.695 220.474C363.064 219.889 363.558 219.452 364.178 219.162C364.797 218.872 365.485 218.727 366.24 218.727C366.774 218.727 367.249 218.77 367.664 218.855C368.078 218.94 368.385 219.017 368.584 219.085L367.97 221.472C367.84 221.432 367.675 221.392 367.476 221.352C367.277 221.307 367.056 221.284 366.811 221.284C366.237 221.284 365.831 221.423 365.592 221.702C365.36 221.974 365.243 222.366 365.243 222.878V237H362.149ZM377 223.909V226.295H369.262V223.909H377ZM371.196 237V222.673C371.196 221.793 371.378 221.06 371.742 220.474C372.111 219.889 372.605 219.452 373.225 219.162C373.844 218.872 374.531 218.727 375.287 218.727C375.821 218.727 376.296 218.77 376.71 218.855C377.125 218.94 377.432 219.017 377.631 219.085L377.017 221.472C376.887 221.432 376.722 221.392 376.523 221.352C376.324 221.307 376.102 221.284 375.858 221.284C375.284 221.284 374.878 221.423 374.639 221.702C374.406 221.974 374.29 222.366 374.29 222.878V237H371.196ZM379.416 237V223.909H382.502V237H379.416ZM380.967 222.051C380.479 222.051 380.058 221.889 379.706 221.565C379.354 221.236 379.178 220.841 379.178 220.381C379.178 219.915 379.354 219.52 379.706 219.196C380.058 218.866 380.479 218.702 380.967 218.702C381.462 218.702 381.882 218.866 382.229 219.196C382.581 219.52 382.757 219.915 382.757 220.381C382.757 220.841 382.581 221.236 382.229 221.565C381.882 221.889 381.462 222.051 380.967 222.051ZM391.384 237.256C390.078 237.256 388.955 236.969 388.018 236.395C387.086 235.821 386.367 235.028 385.862 234.017C385.362 233 385.112 231.83 385.112 230.506C385.112 229.176 385.367 228.003 385.879 226.986C386.39 225.963 387.112 225.168 388.043 224.599C388.981 224.026 390.089 223.739 391.367 223.739C392.43 223.739 393.37 223.935 394.188 224.327C395.012 224.713 395.668 225.261 396.157 225.972C396.646 226.676 396.924 227.5 396.992 228.443H394.043C393.924 227.812 393.64 227.287 393.191 226.866C392.748 226.44 392.154 226.227 391.41 226.227C390.779 226.227 390.225 226.398 389.748 226.739C389.271 227.074 388.899 227.557 388.632 228.188C388.37 228.818 388.239 229.574 388.239 230.455C388.239 231.347 388.37 232.114 388.632 232.756C388.893 233.392 389.259 233.884 389.731 234.23C390.208 234.571 390.768 234.741 391.41 234.741C391.864 234.741 392.271 234.656 392.629 234.486C392.992 234.31 393.296 234.057 393.541 233.727C393.785 233.398 393.953 232.997 394.043 232.526H396.992C396.918 233.452 396.646 234.273 396.174 234.989C395.703 235.699 395.061 236.256 394.248 236.659C393.436 237.057 392.481 237.256 391.384 237.256ZM399.526 237V223.909H402.611V237H399.526ZM401.077 222.051C400.588 222.051 400.168 221.889 399.815 221.565C399.463 221.236 399.287 220.841 399.287 220.381C399.287 219.915 399.463 219.52 399.815 219.196C400.168 218.866 400.588 218.702 401.077 218.702C401.571 218.702 401.992 218.866 402.338 219.196C402.69 219.52 402.867 219.915 402.867 220.381C402.867 220.841 402.69 221.236 402.338 221.565C401.992 221.889 401.571 222.051 401.077 222.051ZM409.551 237.264C408.721 237.264 407.974 237.116 407.309 236.821C406.65 236.52 406.127 236.077 405.741 235.491C405.36 234.906 405.17 234.185 405.17 233.327C405.17 232.588 405.306 231.977 405.579 231.494C405.852 231.011 406.224 230.625 406.695 230.335C407.167 230.045 407.698 229.827 408.289 229.679C408.886 229.526 409.502 229.415 410.139 229.347C410.906 229.267 411.528 229.196 412.005 229.134C412.482 229.065 412.829 228.963 413.045 228.827C413.266 228.685 413.377 228.466 413.377 228.17V228.119C413.377 227.477 413.187 226.98 412.806 226.628C412.426 226.276 411.877 226.099 411.161 226.099C410.406 226.099 409.806 226.264 409.363 226.594C408.926 226.923 408.63 227.312 408.477 227.761L405.596 227.352C405.823 226.557 406.198 225.892 406.721 225.358C407.244 224.818 407.883 224.415 408.639 224.148C409.394 223.875 410.23 223.739 411.144 223.739C411.775 223.739 412.403 223.812 413.028 223.96C413.653 224.108 414.224 224.352 414.741 224.693C415.258 225.028 415.673 225.486 415.985 226.065C416.303 226.645 416.463 227.369 416.463 228.239V237H413.497V235.202H413.394C413.207 235.565 412.943 235.906 412.602 236.224C412.266 236.537 411.843 236.79 411.332 236.983C410.826 237.17 410.232 237.264 409.551 237.264ZM410.352 234.997C410.971 234.997 411.508 234.875 411.963 234.631C412.417 234.381 412.766 234.051 413.011 233.642C413.261 233.233 413.386 232.787 413.386 232.304V230.761C413.289 230.841 413.124 230.915 412.891 230.983C412.664 231.051 412.409 231.111 412.124 231.162C411.84 231.213 411.559 231.259 411.281 231.298C411.002 231.338 410.761 231.372 410.556 231.401C410.096 231.463 409.684 231.565 409.32 231.707C408.957 231.849 408.67 232.048 408.46 232.304C408.249 232.554 408.144 232.878 408.144 233.276C408.144 233.844 408.352 234.273 408.766 234.562C409.181 234.852 409.71 234.997 410.352 234.997ZM422.65 219.545V237H419.565V219.545H422.65ZM438.798 219.545H441.935V231.818C441.929 232.943 441.69 233.912 441.219 234.724C440.747 235.531 440.088 236.153 439.242 236.591C438.401 237.023 437.421 237.239 436.301 237.239C435.279 237.239 434.358 237.057 433.54 236.693C432.727 236.324 432.083 235.778 431.605 235.057C431.128 234.335 430.889 233.437 430.889 232.364H434.034C434.04 232.835 434.142 233.241 434.341 233.582C434.546 233.923 434.827 234.185 435.185 234.366C435.543 234.548 435.955 234.639 436.421 234.639C436.926 234.639 437.355 234.534 437.708 234.324C438.06 234.108 438.327 233.79 438.509 233.369C438.696 232.949 438.793 232.432 438.798 231.818V219.545ZM454.851 224.344C454.771 223.599 454.436 223.02 453.845 222.605C453.26 222.19 452.499 221.983 451.561 221.983C450.902 221.983 450.337 222.082 449.865 222.281C449.394 222.48 449.033 222.75 448.783 223.091C448.533 223.432 448.405 223.821 448.399 224.259C448.399 224.622 448.482 224.937 448.646 225.205C448.817 225.472 449.047 225.699 449.337 225.886C449.627 226.068 449.948 226.222 450.3 226.347C450.652 226.472 451.007 226.577 451.365 226.662L453.002 227.071C453.661 227.224 454.294 227.432 454.902 227.693C455.516 227.955 456.064 228.284 456.547 228.682C457.036 229.08 457.422 229.56 457.706 230.122C457.99 230.685 458.132 231.344 458.132 232.099C458.132 233.122 457.871 234.023 457.348 234.801C456.825 235.574 456.07 236.179 455.081 236.616C454.098 237.048 452.908 237.264 451.51 237.264C450.152 237.264 448.973 237.054 447.973 236.634C446.979 236.213 446.2 235.599 445.638 234.793C445.081 233.986 444.78 233.003 444.735 231.844H447.845C447.891 232.452 448.078 232.957 448.408 233.361C448.737 233.764 449.166 234.065 449.695 234.264C450.229 234.463 450.825 234.562 451.485 234.562C452.172 234.562 452.774 234.46 453.291 234.256C453.814 234.045 454.223 233.756 454.519 233.386C454.814 233.011 454.965 232.574 454.97 232.074C454.965 231.619 454.831 231.244 454.57 230.949C454.308 230.648 453.942 230.398 453.47 230.199C453.004 229.994 452.459 229.812 451.834 229.653L449.848 229.142C448.411 228.773 447.274 228.213 446.439 227.463C445.61 226.707 445.195 225.705 445.195 224.455C445.195 223.426 445.473 222.526 446.03 221.753C446.592 220.98 447.357 220.381 448.323 219.955C449.289 219.523 450.382 219.307 451.604 219.307C452.842 219.307 453.928 219.523 454.86 219.955C455.797 220.381 456.533 220.974 457.067 221.736C457.601 222.491 457.877 223.361 457.894 224.344H454.851ZM466.904 237V219.545H469.989V226.074H470.117C470.276 225.756 470.501 225.418 470.791 225.06C471.08 224.696 471.472 224.386 471.967 224.131C472.461 223.869 473.092 223.739 473.859 223.739C474.87 223.739 475.782 223.997 476.595 224.514C477.413 225.026 478.061 225.784 478.538 226.79C479.021 227.79 479.262 229.017 479.262 230.472C479.262 231.909 479.026 233.131 478.555 234.136C478.083 235.142 477.441 235.909 476.629 236.438C475.816 236.966 474.896 237.23 473.867 237.23C473.117 237.23 472.495 237.105 472.001 236.855C471.507 236.605 471.109 236.304 470.808 235.952C470.512 235.594 470.282 235.256 470.117 234.938H469.938V237H466.904ZM469.93 230.455C469.93 231.301 470.049 232.043 470.288 232.679C470.532 233.315 470.882 233.812 471.336 234.17C471.796 234.523 472.353 234.699 473.007 234.699C473.688 234.699 474.259 234.517 474.72 234.153C475.18 233.784 475.526 233.281 475.759 232.645C475.998 232.003 476.117 231.273 476.117 230.455C476.117 229.642 476.001 228.92 475.768 228.29C475.535 227.659 475.188 227.165 474.728 226.807C474.268 226.449 473.694 226.27 473.007 226.27C472.347 226.27 471.788 226.443 471.328 226.79C470.867 227.136 470.518 227.622 470.279 228.247C470.046 228.872 469.93 229.608 469.93 230.455ZM481.885 237V223.909H484.97V237H481.885ZM483.436 222.051C482.948 222.051 482.527 221.889 482.175 221.565C481.823 221.236 481.646 220.841 481.646 220.381C481.646 219.915 481.823 219.52 482.175 219.196C482.527 218.866 482.948 218.702 483.436 218.702C483.931 218.702 484.351 218.866 484.698 219.196C485.05 219.52 485.226 219.915 485.226 220.381C485.226 220.841 485.05 221.236 484.698 221.565C484.351 221.889 483.931 222.051 483.436 222.051ZM491.228 229.33V237H488.143V223.909H491.092V226.134H491.245C491.546 225.401 492.026 224.818 492.686 224.386C493.35 223.955 494.171 223.739 495.149 223.739C496.052 223.739 496.839 223.932 497.509 224.318C498.186 224.705 498.708 225.264 499.078 225.997C499.453 226.73 499.637 227.619 499.632 228.665V237H496.546V229.142C496.546 228.267 496.319 227.582 495.864 227.088C495.416 226.594 494.793 226.347 493.998 226.347C493.458 226.347 492.978 226.466 492.558 226.705C492.143 226.937 491.816 227.276 491.578 227.719C491.345 228.162 491.228 228.699 491.228 229.33ZM507.626 237.23C506.597 237.23 505.677 236.966 504.864 236.438C504.052 235.909 503.41 235.142 502.938 234.136C502.467 233.131 502.231 231.909 502.231 230.472C502.231 229.017 502.47 227.79 502.947 226.79C503.43 225.784 504.08 225.026 504.899 224.514C505.717 223.997 506.629 223.739 507.634 223.739C508.401 223.739 509.032 223.869 509.526 224.131C510.021 224.386 510.413 224.696 510.703 225.06C510.992 225.418 511.217 225.756 511.376 226.074H511.504V219.545H514.597V237H511.563V234.938H511.376C511.217 235.256 510.987 235.594 510.686 235.952C510.384 236.304 509.987 236.605 509.492 236.855C508.998 237.105 508.376 237.23 507.626 237.23ZM508.487 234.699C509.14 234.699 509.697 234.523 510.157 234.17C510.617 233.812 510.967 233.315 511.205 232.679C511.444 232.043 511.563 231.301 511.563 230.455C511.563 229.608 511.444 228.872 511.205 228.247C510.972 227.622 510.626 227.136 510.166 226.79C509.711 226.443 509.151 226.27 508.487 226.27C507.799 226.27 507.225 226.449 506.765 226.807C506.305 227.165 505.958 227.659 505.725 228.29C505.492 228.92 505.376 229.642 505.376 230.455C505.376 231.273 505.492 232.003 505.725 232.645C505.964 233.281 506.313 233.784 506.774 234.153C507.239 234.517 507.811 234.699 508.487 234.699ZM517.885 237V223.909H520.97V237H517.885ZM519.436 222.051C518.948 222.051 518.527 221.889 518.175 221.565C517.823 221.236 517.646 220.841 517.646 220.381C517.646 219.915 517.823 219.52 518.175 219.196C518.527 218.866 518.948 218.702 519.436 218.702C519.931 218.702 520.351 218.866 520.698 219.196C521.05 219.52 521.226 219.915 521.226 220.381C521.226 220.841 521.05 221.236 520.698 221.565C520.351 221.889 519.931 222.051 519.436 222.051ZM527.228 229.33V237H524.143V223.909H527.092V226.134H527.245C527.546 225.401 528.026 224.818 528.686 224.386C529.35 223.955 530.171 223.739 531.149 223.739C532.052 223.739 532.839 223.932 533.509 224.318C534.186 224.705 534.708 225.264 535.078 225.997C535.453 226.73 535.637 227.619 535.632 228.665V237H532.546V229.142C532.546 228.267 532.319 227.582 531.864 227.088C531.416 226.594 530.793 226.347 529.998 226.347C529.458 226.347 528.978 226.466 528.558 226.705C528.143 226.937 527.816 227.276 527.578 227.719C527.345 228.162 527.228 228.699 527.228 229.33ZM544.461 242.182C543.353 242.182 542.401 242.031 541.606 241.73C540.811 241.435 540.171 241.037 539.688 240.537C539.205 240.037 538.87 239.483 538.683 238.875L541.461 238.202C541.586 238.457 541.768 238.71 542.007 238.96C542.245 239.216 542.566 239.426 542.97 239.591C543.379 239.761 543.893 239.847 544.512 239.847C545.387 239.847 546.112 239.634 546.686 239.207C547.259 238.787 547.546 238.094 547.546 237.128V234.648H547.393C547.234 234.966 547.001 235.293 546.694 235.628C546.393 235.963 545.992 236.244 545.492 236.472C544.998 236.699 544.376 236.812 543.626 236.812C542.62 236.812 541.708 236.577 540.89 236.105C540.078 235.628 539.43 234.918 538.947 233.974C538.47 233.026 538.231 231.838 538.231 230.412C538.231 228.974 538.47 227.761 538.947 226.773C539.43 225.778 540.08 225.026 540.899 224.514C541.717 223.997 542.629 223.739 543.634 223.739C544.401 223.739 545.032 223.869 545.526 224.131C546.026 224.386 546.424 224.696 546.72 225.06C547.015 225.418 547.239 225.756 547.393 226.074H547.563V223.909H550.606V237.213C550.606 238.332 550.339 239.259 549.805 239.991C549.271 240.724 548.541 241.273 547.614 241.636C546.688 242 545.637 242.182 544.461 242.182ZM544.487 234.392C545.14 234.392 545.697 234.233 546.157 233.915C546.617 233.597 546.967 233.139 547.205 232.543C547.444 231.946 547.563 231.23 547.563 230.395C547.563 229.571 547.444 228.849 547.205 228.23C546.972 227.611 546.626 227.131 546.166 226.79C545.711 226.443 545.151 226.27 544.487 226.27C543.799 226.27 543.225 226.449 542.765 226.807C542.305 227.165 541.958 227.656 541.725 228.281C541.492 228.901 541.376 229.605 541.376 230.395C541.376 231.196 541.492 231.898 541.725 232.5C541.964 233.097 542.313 233.562 542.774 233.898C543.239 234.227 543.811 234.392 544.487 234.392ZM564.114 227.369L561.302 227.676C561.222 227.392 561.083 227.125 560.884 226.875C560.691 226.625 560.43 226.423 560.1 226.27C559.771 226.116 559.367 226.04 558.89 226.04C558.248 226.04 557.708 226.179 557.271 226.457C556.839 226.736 556.626 227.097 556.632 227.54C556.626 227.92 556.765 228.23 557.049 228.469C557.339 228.707 557.816 228.903 558.481 229.057L560.714 229.534C561.953 229.801 562.873 230.224 563.475 230.804C564.083 231.384 564.39 232.142 564.396 233.08C564.39 233.903 564.149 234.631 563.671 235.261C563.2 235.886 562.543 236.375 561.703 236.727C560.862 237.08 559.896 237.256 558.805 237.256C557.203 237.256 555.913 236.92 554.936 236.25C553.958 235.574 553.376 234.634 553.188 233.429L556.197 233.139C556.333 233.73 556.623 234.176 557.066 234.477C557.509 234.778 558.086 234.929 558.796 234.929C559.529 234.929 560.117 234.778 560.561 234.477C561.009 234.176 561.234 233.804 561.234 233.361C561.234 232.986 561.089 232.676 560.799 232.432C560.515 232.187 560.072 232 559.47 231.869L557.237 231.401C555.981 231.139 555.052 230.699 554.45 230.08C553.847 229.455 553.549 228.665 553.555 227.71C553.549 226.903 553.768 226.205 554.211 225.614C554.66 225.017 555.282 224.557 556.078 224.233C556.879 223.903 557.802 223.739 558.847 223.739C560.382 223.739 561.589 224.065 562.47 224.719C563.356 225.372 563.904 226.256 564.114 227.369ZM579.524 223.909V226.295H571.785V223.909H579.524ZM573.72 237V222.673C573.72 221.793 573.901 221.06 574.265 220.474C574.634 219.889 575.129 219.452 575.748 219.162C576.367 218.872 577.055 218.727 577.811 218.727C578.345 218.727 578.819 218.77 579.234 218.855C579.649 218.94 579.955 219.017 580.154 219.085L579.541 221.472C579.41 221.432 579.245 221.392 579.046 221.352C578.847 221.307 578.626 221.284 578.382 221.284C577.808 221.284 577.401 221.423 577.163 221.702C576.93 221.974 576.813 222.366 576.813 222.878V237H573.72ZM587.158 237.256C585.879 237.256 584.771 236.974 583.834 236.412C582.896 235.849 582.169 235.062 581.652 234.051C581.141 233.04 580.885 231.858 580.885 230.506C580.885 229.153 581.141 227.969 581.652 226.952C582.169 225.935 582.896 225.145 583.834 224.582C584.771 224.02 585.879 223.739 587.158 223.739C588.436 223.739 589.544 224.02 590.482 224.582C591.419 225.145 592.144 225.935 592.655 226.952C593.172 227.969 593.431 229.153 593.431 230.506C593.431 231.858 593.172 233.04 592.655 234.051C592.144 235.062 591.419 235.849 590.482 236.412C589.544 236.974 588.436 237.256 587.158 237.256ZM587.175 234.784C587.868 234.784 588.448 234.594 588.914 234.213C589.379 233.827 589.726 233.31 589.953 232.662C590.186 232.014 590.303 231.293 590.303 230.497C590.303 229.696 590.186 228.972 589.953 228.324C589.726 227.67 589.379 227.151 588.914 226.764C588.448 226.378 587.868 226.185 587.175 226.185C586.465 226.185 585.874 226.378 585.402 226.764C584.936 227.151 584.587 227.67 584.354 228.324C584.127 228.972 584.013 229.696 584.013 230.497C584.013 231.293 584.127 232.014 584.354 232.662C584.587 233.31 584.936 233.827 585.402 234.213C585.874 234.594 586.465 234.784 587.175 234.784ZM596.049 237V223.909H599.041V226.091H599.177C599.416 225.335 599.825 224.753 600.404 224.344C600.989 223.929 601.657 223.722 602.407 223.722C602.578 223.722 602.768 223.73 602.978 223.747C603.194 223.759 603.373 223.778 603.515 223.807V226.645C603.384 226.599 603.177 226.56 602.893 226.526C602.614 226.486 602.345 226.466 602.083 226.466C601.521 226.466 601.015 226.588 600.566 226.832C600.123 227.071 599.774 227.403 599.518 227.83C599.262 228.256 599.134 228.747 599.134 229.304V237H596.049ZM618.055 223.909V226.295H610.529V223.909H618.055ZM612.387 220.773H615.472V233.062C615.472 233.477 615.535 233.795 615.66 234.017C615.791 234.233 615.961 234.381 616.171 234.46C616.382 234.54 616.614 234.58 616.87 234.58C617.063 234.58 617.239 234.565 617.399 234.537C617.563 234.509 617.688 234.483 617.774 234.46L618.293 236.872C618.129 236.929 617.893 236.991 617.586 237.06C617.285 237.128 616.916 237.168 616.478 237.179C615.705 237.202 615.009 237.085 614.39 236.83C613.771 236.568 613.279 236.165 612.916 235.619C612.558 235.074 612.382 234.392 612.387 233.574V220.773ZM624.002 229.33V237H620.916V219.545H623.933V226.134H624.087C624.394 225.395 624.868 224.812 625.51 224.386C626.158 223.955 626.982 223.739 627.982 223.739C628.891 223.739 629.683 223.929 630.36 224.31C631.036 224.69 631.558 225.247 631.928 225.98C632.303 226.713 632.49 227.608 632.49 228.665V237H629.405V229.142C629.405 228.261 629.178 227.577 628.723 227.088C628.274 226.594 627.644 226.347 626.831 226.347C626.286 226.347 625.797 226.466 625.365 226.705C624.939 226.937 624.604 227.276 624.36 227.719C624.121 228.162 624.002 228.699 624.002 229.33ZM641.431 237.256C640.118 237.256 638.985 236.983 638.03 236.438C637.081 235.886 636.351 235.108 635.84 234.102C635.328 233.091 635.073 231.901 635.073 230.531C635.073 229.185 635.328 228.003 635.84 226.986C636.357 225.963 637.078 225.168 638.004 224.599C638.931 224.026 640.019 223.739 641.269 223.739C642.075 223.739 642.837 223.869 643.553 224.131C644.274 224.386 644.911 224.784 645.462 225.324C646.019 225.864 646.456 226.551 646.774 227.386C647.092 228.216 647.252 229.205 647.252 230.352V231.298H636.521V229.219H644.294C644.289 228.628 644.161 228.102 643.911 227.642C643.661 227.176 643.311 226.81 642.862 226.543C642.419 226.276 641.902 226.142 641.311 226.142C640.681 226.142 640.127 226.295 639.649 226.602C639.172 226.903 638.8 227.301 638.533 227.795C638.271 228.284 638.138 228.821 638.132 229.406V231.222C638.132 231.983 638.271 232.636 638.55 233.182C638.828 233.722 639.217 234.136 639.717 234.426C640.217 234.71 640.803 234.852 641.473 234.852C641.922 234.852 642.328 234.79 642.692 234.665C643.056 234.534 643.371 234.344 643.638 234.094C643.905 233.844 644.107 233.534 644.243 233.165L647.124 233.489C646.942 234.25 646.595 234.915 646.084 235.483C645.578 236.045 644.931 236.483 644.141 236.795C643.351 237.102 642.448 237.256 641.431 237.256ZM658.193 237H654.818L660.963 219.545H664.866L671.019 237H667.644L662.982 223.125H662.846L658.193 237ZM658.303 230.156H667.508V232.696H658.303V230.156ZM675.705 223.909L678.347 228.741L681.031 223.909H684.296L680.35 230.455L684.364 237H681.117L678.347 232.287L675.602 237H672.33L676.318 230.455L672.432 223.909H675.705ZM686.682 237V223.909H689.767V237H686.682ZM688.233 222.051C687.744 222.051 687.324 221.889 686.972 221.565C686.619 221.236 686.443 220.841 686.443 220.381C686.443 219.915 686.619 219.52 686.972 219.196C687.324 218.866 687.744 218.702 688.233 218.702C688.727 218.702 689.148 218.866 689.494 219.196C689.847 219.52 690.023 219.915 690.023 220.381C690.023 220.841 689.847 221.236 689.494 221.565C689.148 221.889 688.727 222.051 688.233 222.051ZM698.65 237.256C697.372 237.256 696.264 236.974 695.326 236.412C694.389 235.849 693.661 235.062 693.144 234.051C692.633 233.04 692.377 231.858 692.377 230.506C692.377 229.153 692.633 227.969 693.144 226.952C693.661 225.935 694.389 225.145 695.326 224.582C696.264 224.02 697.372 223.739 698.65 223.739C699.928 223.739 701.036 224.02 701.974 224.582C702.911 225.145 703.636 225.935 704.147 226.952C704.664 227.969 704.923 229.153 704.923 230.506C704.923 231.858 704.664 233.04 704.147 234.051C703.636 235.062 702.911 235.849 701.974 236.412C701.036 236.974 699.928 237.256 698.65 237.256ZM698.667 234.784C699.36 234.784 699.94 234.594 700.406 234.213C700.872 233.827 701.218 233.31 701.445 232.662C701.678 232.014 701.795 231.293 701.795 230.497C701.795 229.696 701.678 228.972 701.445 228.324C701.218 227.67 700.872 227.151 700.406 226.764C699.94 226.378 699.36 226.185 698.667 226.185C697.957 226.185 697.366 226.378 696.894 226.764C696.428 227.151 696.079 227.67 695.846 228.324C695.619 228.972 695.505 229.696 695.505 230.497C695.505 231.293 695.619 232.014 695.846 232.662C696.079 233.31 696.428 233.827 696.894 234.213C697.366 234.594 697.957 234.784 698.667 234.784ZM707.541 237V223.909H710.49V226.134H710.644C710.916 225.384 711.368 224.798 711.999 224.378C712.629 223.952 713.382 223.739 714.257 223.739C715.144 223.739 715.891 223.955 716.499 224.386C717.112 224.812 717.544 225.395 717.794 226.134H717.931C718.22 225.406 718.709 224.827 719.396 224.395C720.09 223.957 720.911 223.739 721.86 223.739C723.064 223.739 724.047 224.119 724.808 224.881C725.57 225.642 725.95 226.753 725.95 228.213V237H722.857V228.69C722.857 227.878 722.641 227.284 722.209 226.909C721.777 226.528 721.249 226.338 720.624 226.338C719.879 226.338 719.297 226.571 718.877 227.037C718.462 227.497 718.254 228.097 718.254 228.835V237H715.229V228.562C715.229 227.886 715.024 227.347 714.615 226.943C714.212 226.54 713.683 226.338 713.03 226.338C712.587 226.338 712.183 226.452 711.82 226.679C711.456 226.901 711.166 227.216 710.95 227.625C710.735 228.028 710.627 228.5 710.627 229.04V237H707.541ZM737.411 237H734.036L740.181 219.545H744.085L750.238 237H746.863L742.201 223.125H742.065L737.411 237ZM737.522 230.156H746.727V232.696H737.522V230.156ZM752.537 237V219.545H759.083C760.423 219.545 761.548 219.795 762.458 220.295C763.372 220.795 764.063 221.483 764.529 222.358C765 223.227 765.236 224.216 765.236 225.324C765.236 226.443 765 227.437 764.529 228.307C764.057 229.176 763.361 229.861 762.44 230.361C761.52 230.855 760.387 231.102 759.04 231.102H754.702V228.503H758.614C759.398 228.503 760.04 228.366 760.54 228.094C761.04 227.821 761.409 227.446 761.648 226.969C761.892 226.491 762.014 225.943 762.014 225.324C762.014 224.705 761.892 224.159 761.648 223.688C761.409 223.216 761.037 222.849 760.531 222.588C760.031 222.321 759.387 222.188 758.597 222.188H755.699V237H752.537ZM771.144 219.545V237H767.982V219.545H771.144Z" fill="#09101F"/>
<path d="M129.863 347.597L120.062 337.804L121.673 336.185L131.474 345.986L129.863 347.597ZM121.673 347.597L120.062 345.986L129.863 336.185L131.474 337.804L121.673 347.597Z" fill="#20294F"/>
</g>
<rect x="0.786865" y="0.5" width="1065.67" height="399" stroke="#E0E0E0"/>
<defs>
<filter id="filter0_d_117_3" x="130.166" y="29.6461" width="835.175" height="207.104" filterUnits="userSpaceOnUse" color-interpolation-filters="sRGB">
<feFlood flood-opacity="0" result="BackgroundImageFix"/>
<feColorMatrix in="SourceAlpha" type="matrix" values="0 0 0 0 0 0 0 0 0 0 0 0 0 0 0 0 0 0 127 0" result="hardAlpha"/>
<feOffset dy="4"/>
<feGaussianBlur stdDeviation="16"/>
<feComposite in2="hardAlpha" operator="out"/>
<feColorMatrix type="matrix" values="0 0 0 0 0.1375 0 0 0 0 0.328673 0 0 0 0 1 0 0 0 1 0"/>
<feBlend mode="normal" in2="BackgroundImageFix" result="effect1_dropShadow_117_3"/>
<feBlend mode="normal" in="SourceGraphic" in2="effect1_dropShadow_117_3" result="shape"/>
</filter>
<linearGradient id="paint0_linear_117_3" x1="19.7213" y1="116.647" x2="-2.87256" y2="156.473" gradientUnits="userSpaceOnUse">
<stop stop-color="#6A68FF"/>
<stop offset="1" stop-color="#6C7EFF" stop-opacity="0"/>
</linearGradient>
<linearGradient id="paint1_linear_117_3" x1="-3.64529e+13" y1="177.186" x2="-3.64529e+13" y2="124.542" gradientUnits="userSpaceOnUse">
<stop stop-color="#6A68FF"/>
<stop offset="1" stop-color="#6C7EFF" stop-opacity="0"/>
</linearGradient>
<linearGradient id="paint2_linear_117_3" x1="-3.64529e+13" y1="199.779" x2="-3.64529e+13" y2="147.135" gradientUnits="userSpaceOnUse">
<stop stop-color="#6A68FF"/>
<stop offset="1" stop-color="#6C7EFF" stop-opacity="0"/>
</linearGradient>
<linearGradient id="paint3_linear_117_3" x1="3.64529e+13" y1="-225668" x2="3.64529e+13" y2="-225616" gradientUnits="userSpaceOnUse">
<stop stop-color="#6A68FF"/>
<stop offset="1" stop-color="#6C7EFF" stop-opacity="0"/>
</linearGradient>
<linearGradient id="paint4_linear_117_3" x1="3.64529e+13" y1="-225668" x2="3.64529e+13" y2="-225616" gradientUnits="userSpaceOnUse">
<stop stop-color="#6A68FF"/>
<stop offset="1" stop-color="#6C7EFF" stop-opacity="0"/>
</linearGradient>
<radialGradient id="paint5_radial_117_3" cx="0" cy="0" r="1" gradientUnits="userSpaceOnUse" gradientTransform="translate(533.5 199.694) rotate(90) scale(199.694 269.511)">
<stop stop-color="white"/>
<stop offset="1" stop-color="#D9D9D9" stop-opacity="0"/>
</radialGradient>
<radialGradient id="paint6_radial_117_3" cx="0" cy="0" r="1" gradientUnits="userSpaceOnUse" gradientTransform="translate(699.807 175.773) rotate(167.994) scale(318.918 9102.31)">
<stop stop-color="#0D0F26"/>
<stop offset="0.622778" stop-color="#384382"/>
<stop offset="0.773151" stop-color="#504F79"/>
<stop offset="1" stop-color="#0D0F26"/>
</radialGradient>
<clipPath id="clip0_117_3">
<rect x="0.286865" width="1066.67" height="400" fill="white"/>
</clipPath>
<clipPath id="clip1_117_3">
<rect width="1085" height="458" fill="white" transform="translate(-9 -29)"/>
</clipPath>
<clipPath id="clip2_117_3">
<rect width="31.2385" height="35.81" fill="white" transform="translate(163 322)"/>
</clipPath>
</defs>
</svg>
